<svg viewBox="0 0 6.35 6.35" xmlns="http://www.w3.org/2000/svg"><path d="M1.058 1.323c-.288 0-.529.24-.529.529v2.646c0 .288.24.53.53.53h4.233c.288 0 .529-.242.529-.53V1.852a.534.534 0 0 0-.53-.53zm0 .529h4.234v2.646H1.058Zm.793.265c-.288 0-.529.241-.529.53v1.058c0 .289.24.527.53.527H2.91c.289 0 .53-.238.53-.527V2.646a.534.534 0 0 0-.53-.529zm2.118 0c-.354 0-.354.53 0 .53h.793c.346 0 .37-.53 0-.53zm-2.118.53h1.06v1.058H1.85Zm2.118.263c-.354.001-.336.53 0 .53h.793c.352 0 .358-.529 0-.53zm0 .795c-.336 0-.336.527 0 .527h.793c.346.002.352-.527 0-.527z" style="line-height:normal;font-variant-ligatures:normal;font-variant-position:normal;font-variant-caps:normal;font-variant-numeric:normal;font-variant-alternates:normal;font-variant-east-asian:normal;font-feature-settings:normal;font-variation-settings:normal;text-indent:0;text-align:start;text-decoration-line:none;text-decoration-style:solid;text-decoration-color:#000;text-transform:none;text-orientation:mixed;white-space:normal;shape-padding:0;shape-margin:0;inline-size:0;isolation:auto;mix-blend-mode:normal;solid-color:#000;solid-opacity:1" color="#000000" font-style="normal" font-variant="normal" font-weight="400" font-stretch="normal" font-size="medium" font-family="sans-serif" text-decoration="none" letter-spacing="normal" word-spacing="normal" writing-mode="lr-tb" direction="ltr" dominant-baseline="auto" baseline-shift="baseline" text-anchor="start" clip-rule="nonzero" display="inline" overflow="visible" visibility="visible" opacity="1" color-interpolation="sRGB" color-interpolation-filters="linearRGB" vector-effect="none" fill="#ff0000" fill-opacity="1" fill-rule="nonzero" stroke="none" stroke-width=".529143" stroke-linecap="round" stroke-linejoin="round" stroke-miterlimit="4" stroke-dasharray="none" stroke-dashoffset="0" stroke-opacity="1" color-rendering="auto" image-rendering="auto" shape-rendering="auto" text-rendering="auto" enable-background="accumulate" stop-color="#ff0000" stop-opacity="1" class="fill-000000 stop-color-000000"></path></svg>