<svg xmlns="http://www.w3.org/2000/svg" xmlns:xlink="http://www.w3.org/1999/xlink" width="6912" zoomAndPan="magnify" viewBox="0 0 5184 2592.000001" height="3456" preserveAspectRatio="xMidYMid meet" version="1.0"><defs><g><g id="id1"/><g id="id2"/><g id="id3"/></g><clipPath id="id4"><path d="M 1776 296 L 3680 296 L 3680 1816 L 1776 1816 Z M 1776 296 " clip-rule="nonzero"/></clipPath><clipPath id="id5"><path d="M 3162.832031 1621.957031 C 3080.042969 1624.542969 3001.566406 1608.15625 2930.851562 1577.109375 C 2871.34375 1551.238281 2801.492188 1572.796875 2767.859375 1628.855469 C 2698.867188 1740.109375 2575.546875 1815.136719 2434.980469 1815.136719 C 2343.566406 1815.136719 2259.050781 1783.230469 2192.648438 1730.621094 C 2085.710938 1645.242188 2033.96875 1508.117188 2051.21875 1371.855469 L 2068.464844 1239.042969 C 2070.191406 1222.65625 2058.980469 1207.996094 2042.59375 1206.273438 C 1893.402344 1190.746094 1776.980469 1065.699219 1776.980469 912.1875 C 1776.980469 781.101562 1863.21875 668.984375 1981.363281 631.039062 C 1993.4375 627.589844 2002.925781 617.242188 2005.511719 605.167969 C 2048.628906 427.507812 2208.171875 296.421875 2398.757812 296.421875 C 2543.640625 296.421875 2670.410156 372.3125 2741.988281 487.015625 C 2792.007812 567.21875 2888.59375 605.167969 2978.28125 575.84375 C 3030.023438 558.597656 3086.078125 549.972656 3143.859375 549.972656 C 3437.070312 549.972656 3675.089844 785.414062 3679.398438 1076.910156 C 3685.4375 1368.40625 3453.457031 1612.46875 3162.832031 1621.957031 Z M 3162.832031 1621.957031 " clip-rule="nonzero"/></clipPath><linearGradient x1="-0.00000708431" gradientTransform="matrix(8.62385, 0, 0, -8.62417, 1776.979137, 1876.369553)" y1="95.099998" x2="220.991369" gradientUnits="userSpaceOnUse" y2="95.099998" xlink:type="simple" xlink:actuate="onLoad" id="id6" xlink:show="other"><stop stop-opacity="1" stop-color="rgb(53.69873%, 39.199829%, 74.899292%)" offset="0"/><stop stop-opacity="1" stop-color="rgb(53.849792%, 39.219666%, 74.665833%)" offset="0.00390625"/><stop stop-opacity="1" stop-color="rgb(54.000854%, 39.239502%, 74.433899%)" offset="0.0078125"/><stop stop-opacity="1" stop-color="rgb(54.150391%, 39.259338%, 74.200439%)" offset="0.0117187"/><stop stop-opacity="1" stop-color="rgb(54.301453%, 39.279175%, 73.96698%)" offset="0.015625"/><stop stop-opacity="1" stop-color="rgb(54.450989%, 39.299011%, 73.733521%)" offset="0.0195312"/><stop stop-opacity="1" stop-color="rgb(54.602051%, 39.318848%, 73.501587%)" offset="0.0234375"/><stop stop-opacity="1" stop-color="rgb(54.753113%, 39.338684%, 73.268127%)" offset="0.0273437"/><stop stop-opacity="1" stop-color="rgb(54.904175%, 39.358521%, 73.034668%)" offset="0.03125"/><stop stop-opacity="1" stop-color="rgb(55.053711%, 39.378357%, 72.801208%)" offset="0.0351562"/><stop stop-opacity="1" stop-color="rgb(55.204773%, 39.398193%, 72.569275%)" offset="0.0390625"/><stop stop-opacity="1" stop-color="rgb(55.354309%, 39.41803%, 72.335815%)" offset="0.0429687"/><stop stop-opacity="1" stop-color="rgb(55.505371%, 39.437866%, 72.102356%)" offset="0.046875"/><stop stop-opacity="1" stop-color="rgb(55.656433%, 39.457703%, 71.868896%)" offset="0.0507812"/><stop stop-opacity="1" stop-color="rgb(55.807495%, 39.479065%, 71.636963%)" offset="0.0546875"/><stop stop-opacity="1" stop-color="rgb(55.957031%, 39.498901%, 71.403503%)" offset="0.0585937"/><stop stop-opacity="1" stop-color="rgb(56.108093%, 39.518738%, 71.170044%)" offset="0.0625"/><stop stop-opacity="1" stop-color="rgb(56.257629%, 39.538574%, 70.936584%)" offset="0.0664062"/><stop stop-opacity="1" stop-color="rgb(56.408691%, 39.558411%, 70.704651%)" offset="0.0703125"/><stop stop-opacity="1" stop-color="rgb(56.559753%, 39.578247%, 70.471191%)" offset="0.0742187"/><stop stop-opacity="1" stop-color="rgb(56.710815%, 39.598083%, 70.237732%)" offset="0.078125"/><stop stop-opacity="1" stop-color="rgb(56.860352%, 39.61792%, 70.004272%)" offset="0.0820312"/><stop stop-opacity="1" stop-color="rgb(57.011414%, 39.637756%, 69.772339%)" offset="0.0859375"/><stop stop-opacity="1" stop-color="rgb(57.16095%, 39.657593%, 69.538879%)" offset="0.0898438"/><stop stop-opacity="1" stop-color="rgb(57.312012%, 39.677429%, 69.30542%)" offset="0.09375"/><stop stop-opacity="1" stop-color="rgb(57.461548%, 39.697266%, 69.07196%)" offset="0.0976562"/><stop stop-opacity="1" stop-color="rgb(57.61261%, 39.717102%, 68.840027%)" offset="0.101562"/><stop stop-opacity="1" stop-color="rgb(57.763672%, 39.736938%, 68.606567%)" offset="0.105469"/><stop stop-opacity="1" stop-color="rgb(57.914734%, 39.758301%, 68.374634%)" offset="0.109375"/><stop stop-opacity="1" stop-color="rgb(58.06427%, 39.778137%, 68.141174%)" offset="0.113281"/><stop stop-opacity="1" stop-color="rgb(58.215332%, 39.797974%, 67.907715%)" offset="0.117187"/><stop stop-opacity="1" stop-color="rgb(58.364868%, 39.81781%, 67.674255%)" offset="0.121094"/><stop stop-opacity="1" stop-color="rgb(58.51593%, 39.837646%, 67.442322%)" offset="0.125"/><stop stop-opacity="1" stop-color="rgb(58.666992%, 39.857483%, 67.208862%)" offset="0.128906"/><stop stop-opacity="1" stop-color="rgb(58.818054%, 39.877319%, 66.975403%)" offset="0.132812"/><stop stop-opacity="1" stop-color="rgb(58.96759%, 39.897156%, 66.741943%)" offset="0.136719"/><stop stop-opacity="1" stop-color="rgb(59.118652%, 39.916992%, 66.51001%)" offset="0.140625"/><stop stop-opacity="1" stop-color="rgb(59.268188%, 39.936829%, 66.27655%)" offset="0.144531"/><stop stop-opacity="1" stop-color="rgb(59.41925%, 39.956665%, 66.043091%)" offset="0.148438"/><stop stop-opacity="1" stop-color="rgb(59.570312%, 39.976501%, 65.809631%)" offset="0.152344"/><stop stop-opacity="1" stop-color="rgb(59.721375%, 39.996338%, 65.577698%)" offset="0.15625"/><stop stop-opacity="1" stop-color="rgb(59.870911%, 40.016174%, 65.344238%)" offset="0.160156"/><stop stop-opacity="1" stop-color="rgb(60.021973%, 40.037537%, 65.110779%)" offset="0.164063"/><stop stop-opacity="1" stop-color="rgb(60.171509%, 40.057373%, 64.877319%)" offset="0.167969"/><stop stop-opacity="1" stop-color="rgb(60.322571%, 40.077209%, 64.645386%)" offset="0.171875"/><stop stop-opacity="1" stop-color="rgb(60.473633%, 40.097046%, 64.411926%)" offset="0.175781"/><stop stop-opacity="1" stop-color="rgb(60.624695%, 40.116882%, 64.178467%)" offset="0.179688"/><stop stop-opacity="1" stop-color="rgb(60.774231%, 40.136719%, 63.945007%)" offset="0.183594"/><stop stop-opacity="1" stop-color="rgb(60.925293%, 40.156555%, 63.713074%)" offset="0.1875"/><stop stop-opacity="1" stop-color="rgb(61.074829%, 40.176392%, 63.479614%)" offset="0.191406"/><stop stop-opacity="1" stop-color="rgb(61.225891%, 40.196228%, 63.247681%)" offset="0.195312"/><stop stop-opacity="1" stop-color="rgb(61.376953%, 40.216064%, 63.014221%)" offset="0.199219"/><stop stop-opacity="1" stop-color="rgb(61.528015%, 40.235901%, 62.780762%)" offset="0.203125"/><stop stop-opacity="1" stop-color="rgb(61.677551%, 40.255737%, 62.547302%)" offset="0.207031"/><stop stop-opacity="1" stop-color="rgb(61.828613%, 40.275574%, 62.315369%)" offset="0.210937"/><stop stop-opacity="1" stop-color="rgb(61.978149%, 40.29541%, 62.081909%)" offset="0.214844"/><stop stop-opacity="1" stop-color="rgb(62.129211%, 40.315247%, 61.84845%)" offset="0.21875"/><stop stop-opacity="1" stop-color="rgb(62.280273%, 40.335083%, 61.61499%)" offset="0.222656"/><stop stop-opacity="1" stop-color="rgb(62.431335%, 40.356445%, 61.383057%)" offset="0.226562"/><stop stop-opacity="1" stop-color="rgb(62.580872%, 40.376282%, 61.149597%)" offset="0.230469"/><stop stop-opacity="1" stop-color="rgb(62.731934%, 40.396118%, 60.916138%)" offset="0.234375"/><stop stop-opacity="1" stop-color="rgb(62.88147%, 40.415955%, 60.682678%)" offset="0.238281"/><stop stop-opacity="1" stop-color="rgb(63.032532%, 40.435791%, 60.450745%)" offset="0.242187"/><stop stop-opacity="1" stop-color="rgb(63.182068%, 40.455627%, 60.217285%)" offset="0.246094"/><stop stop-opacity="1" stop-color="rgb(63.33313%, 40.475464%, 59.983826%)" offset="0.25"/><stop stop-opacity="1" stop-color="rgb(63.484192%, 40.4953%, 59.750366%)" offset="0.253906"/><stop stop-opacity="1" stop-color="rgb(63.635254%, 40.515137%, 59.518433%)" offset="0.257812"/><stop stop-opacity="1" stop-color="rgb(63.78479%, 40.534973%, 59.284973%)" offset="0.261719"/><stop stop-opacity="1" stop-color="rgb(63.935852%, 40.55481%, 59.051514%)" offset="0.265625"/><stop stop-opacity="1" stop-color="rgb(64.085388%, 40.574646%, 58.818054%)" offset="0.269531"/><stop stop-opacity="1" stop-color="rgb(64.23645%, 40.594482%, 58.586121%)" offset="0.273437"/><stop stop-opacity="1" stop-color="rgb(64.387512%, 40.614319%, 58.352661%)" offset="0.277344"/><stop stop-opacity="1" stop-color="rgb(64.538574%, 40.635681%, 58.119202%)" offset="0.28125"/><stop stop-opacity="1" stop-color="rgb(64.68811%, 40.655518%, 57.885742%)" offset="0.285156"/><stop stop-opacity="1" stop-color="rgb(64.839172%, 40.675354%, 57.653809%)" offset="0.289062"/><stop stop-opacity="1" stop-color="rgb(64.988708%, 40.69519%, 57.420349%)" offset="0.292969"/><stop stop-opacity="1" stop-color="rgb(65.139771%, 40.715027%, 57.188416%)" offset="0.296875"/><stop stop-opacity="1" stop-color="rgb(65.290833%, 40.734863%, 56.954956%)" offset="0.300781"/><stop stop-opacity="1" stop-color="rgb(65.441895%, 40.7547%, 56.721497%)" offset="0.304687"/><stop stop-opacity="1" stop-color="rgb(65.591431%, 40.774536%, 56.488037%)" offset="0.308594"/><stop stop-opacity="1" stop-color="rgb(65.742493%, 40.794373%, 56.256104%)" offset="0.3125"/><stop stop-opacity="1" stop-color="rgb(65.892029%, 40.814209%, 56.022644%)" offset="0.316406"/><stop stop-opacity="1" stop-color="rgb(66.043091%, 40.834045%, 55.789185%)" offset="0.320312"/><stop stop-opacity="1" stop-color="rgb(66.194153%, 40.853882%, 55.555725%)" offset="0.324219"/><stop stop-opacity="1" stop-color="rgb(66.345215%, 40.873718%, 55.323792%)" offset="0.328125"/><stop stop-opacity="1" stop-color="rgb(66.494751%, 40.893555%, 55.090332%)" offset="0.332031"/><stop stop-opacity="1" stop-color="rgb(66.645813%, 40.914917%, 54.856873%)" offset="0.335937"/><stop stop-opacity="1" stop-color="rgb(66.795349%, 40.934753%, 54.623413%)" offset="0.339844"/><stop stop-opacity="1" stop-color="rgb(66.946411%, 40.95459%, 54.391479%)" offset="0.34375"/><stop stop-opacity="1" stop-color="rgb(67.097473%, 40.974426%, 54.15802%)" offset="0.347656"/><stop stop-opacity="1" stop-color="rgb(67.248535%, 40.994263%, 53.924561%)" offset="0.351562"/><stop stop-opacity="1" stop-color="rgb(67.398071%, 41.014099%, 53.691101%)" offset="0.355469"/><stop stop-opacity="1" stop-color="rgb(67.549133%, 41.033936%, 53.459167%)" offset="0.359375"/><stop stop-opacity="1" stop-color="rgb(67.698669%, 41.053772%, 53.225708%)" offset="0.363281"/><stop stop-opacity="1" stop-color="rgb(67.849731%, 41.073608%, 52.992249%)" offset="0.367187"/><stop stop-opacity="1" stop-color="rgb(68.000793%, 41.093445%, 52.758789%)" offset="0.371094"/><stop stop-opacity="1" stop-color="rgb(68.151855%, 41.113281%, 52.526855%)" offset="0.375"/><stop stop-opacity="1" stop-color="rgb(68.301392%, 41.133118%, 52.293396%)" offset="0.378906"/><stop stop-opacity="1" stop-color="rgb(68.452454%, 41.152954%, 52.061462%)" offset="0.382812"/><stop stop-opacity="1" stop-color="rgb(68.60199%, 41.172791%, 51.828003%)" offset="0.386719"/><stop stop-opacity="1" stop-color="rgb(68.753052%, 41.194153%, 51.594543%)" offset="0.390625"/><stop stop-opacity="1" stop-color="rgb(68.904114%, 41.213989%, 51.361084%)" offset="0.394531"/><stop stop-opacity="1" stop-color="rgb(69.055176%, 41.233826%, 51.12915%)" offset="0.398437"/><stop stop-opacity="1" stop-color="rgb(69.204712%, 41.253662%, 50.895691%)" offset="0.402344"/><stop stop-opacity="1" stop-color="rgb(69.355774%, 41.273499%, 50.662231%)" offset="0.40625"/><stop stop-opacity="1" stop-color="rgb(69.50531%, 41.293335%, 50.428772%)" offset="0.410156"/><stop stop-opacity="1" stop-color="rgb(69.656372%, 41.313171%, 50.196838%)" offset="0.414062"/><stop stop-opacity="1" stop-color="rgb(69.805908%, 41.333008%, 49.963379%)" offset="0.417969"/><stop stop-opacity="1" stop-color="rgb(69.95697%, 41.352844%, 49.729919%)" offset="0.421875"/><stop stop-opacity="1" stop-color="rgb(70.108032%, 41.372681%, 49.49646%)" offset="0.425781"/><stop stop-opacity="1" stop-color="rgb(70.259094%, 41.392517%, 49.264526%)" offset="0.429687"/><stop stop-opacity="1" stop-color="rgb(70.40863%, 41.412354%, 49.031067%)" offset="0.433594"/><stop stop-opacity="1" stop-color="rgb(70.559692%, 41.43219%, 48.797607%)" offset="0.4375"/><stop stop-opacity="1" stop-color="rgb(70.709229%, 41.452026%, 48.564148%)" offset="0.441406"/><stop stop-opacity="1" stop-color="rgb(70.860291%, 41.471863%, 48.332214%)" offset="0.445312"/><stop stop-opacity="1" stop-color="rgb(71.011353%, 41.491699%, 48.098755%)" offset="0.449219"/><stop stop-opacity="1" stop-color="rgb(71.162415%, 41.513062%, 47.865295%)" offset="0.453125"/><stop stop-opacity="1" stop-color="rgb(71.311951%, 41.532898%, 47.631836%)" offset="0.457031"/><stop stop-opacity="1" stop-color="rgb(71.463013%, 41.552734%, 47.399902%)" offset="0.460937"/><stop stop-opacity="1" stop-color="rgb(71.612549%, 41.572571%, 47.166443%)" offset="0.464844"/><stop stop-opacity="1" stop-color="rgb(71.763611%, 41.592407%, 46.932983%)" offset="0.46875"/><stop stop-opacity="1" stop-color="rgb(71.914673%, 41.612244%, 46.699524%)" offset="0.472656"/><stop stop-opacity="1" stop-color="rgb(72.065735%, 41.63208%, 46.46759%)" offset="0.476562"/><stop stop-opacity="1" stop-color="rgb(72.215271%, 41.651917%, 46.234131%)" offset="0.480469"/><stop stop-opacity="1" stop-color="rgb(72.366333%, 41.671753%, 46.002197%)" offset="0.484375"/><stop stop-opacity="1" stop-color="rgb(72.515869%, 41.691589%, 45.768738%)" offset="0.488281"/><stop stop-opacity="1" stop-color="rgb(72.666931%, 41.711426%, 45.535278%)" offset="0.492187"/><stop stop-opacity="1" stop-color="rgb(72.817993%, 41.731262%, 45.301819%)" offset="0.496094"/><stop stop-opacity="1" stop-color="rgb(72.969055%, 41.751099%, 45.069885%)" offset="0.5"/><stop stop-opacity="1" stop-color="rgb(73.118591%, 41.770935%, 44.836426%)" offset="0.503906"/><stop stop-opacity="1" stop-color="rgb(73.269653%, 41.792297%, 44.602966%)" offset="0.507812"/><stop stop-opacity="1" stop-color="rgb(73.419189%, 41.812134%, 44.369507%)" offset="0.511719"/><stop stop-opacity="1" stop-color="rgb(73.570251%, 41.83197%, 44.137573%)" offset="0.515625"/><stop stop-opacity="1" stop-color="rgb(73.721313%, 41.851807%, 43.904114%)" offset="0.519531"/><stop stop-opacity="1" stop-color="rgb(73.872375%, 41.871643%, 43.670654%)" offset="0.523438"/><stop stop-opacity="1" stop-color="rgb(74.021912%, 41.891479%, 43.437195%)" offset="0.527344"/><stop stop-opacity="1" stop-color="rgb(74.172974%, 41.911316%, 43.205261%)" offset="0.53125"/><stop stop-opacity="1" stop-color="rgb(74.32251%, 41.931152%, 42.971802%)" offset="0.535156"/><stop stop-opacity="1" stop-color="rgb(74.473572%, 41.950989%, 42.738342%)" offset="0.539062"/><stop stop-opacity="1" stop-color="rgb(74.624634%, 41.970825%, 42.504883%)" offset="0.542969"/><stop stop-opacity="1" stop-color="rgb(74.775696%, 41.990662%, 42.272949%)" offset="0.546875"/><stop stop-opacity="1" stop-color="rgb(74.925232%, 42.010498%, 42.03949%)" offset="0.550781"/><stop stop-opacity="1" stop-color="rgb(75.076294%, 42.030334%, 41.80603%)" offset="0.554687"/><stop stop-opacity="1" stop-color="rgb(75.22583%, 42.050171%, 41.572571%)" offset="0.558594"/><stop stop-opacity="1" stop-color="rgb(75.376892%, 42.071533%, 41.340637%)" offset="0.5625"/><stop stop-opacity="1" stop-color="rgb(75.527954%, 42.09137%, 41.107178%)" offset="0.566406"/><stop stop-opacity="1" stop-color="rgb(75.679016%, 42.111206%, 40.875244%)" offset="0.570312"/><stop stop-opacity="1" stop-color="rgb(75.828552%, 42.131042%, 40.641785%)" offset="0.574219"/><stop stop-opacity="1" stop-color="rgb(75.979614%, 42.150879%, 40.408325%)" offset="0.578125"/><stop stop-opacity="1" stop-color="rgb(76.12915%, 42.170715%, 40.174866%)" offset="0.582031"/><stop stop-opacity="1" stop-color="rgb(76.280212%, 42.190552%, 39.942932%)" offset="0.585938"/><stop stop-opacity="1" stop-color="rgb(76.429749%, 42.210388%, 39.709473%)" offset="0.589844"/><stop stop-opacity="1" stop-color="rgb(76.580811%, 42.230225%, 39.476013%)" offset="0.59375"/><stop stop-opacity="1" stop-color="rgb(76.731873%, 42.250061%, 39.242554%)" offset="0.597656"/><stop stop-opacity="1" stop-color="rgb(76.882935%, 42.269897%, 39.01062%)" offset="0.601562"/><stop stop-opacity="1" stop-color="rgb(77.032471%, 42.289734%, 38.777161%)" offset="0.605469"/><stop stop-opacity="1" stop-color="rgb(77.183533%, 42.30957%, 38.543701%)" offset="0.609375"/><stop stop-opacity="1" stop-color="rgb(77.333069%, 42.329407%, 38.310242%)" offset="0.613281"/><stop stop-opacity="1" stop-color="rgb(77.484131%, 42.350769%, 38.078308%)" offset="0.617188"/><stop stop-opacity="1" stop-color="rgb(77.635193%, 42.370605%, 37.844849%)" offset="0.621094"/><stop stop-opacity="1" stop-color="rgb(77.786255%, 42.390442%, 37.611389%)" offset="0.625"/><stop stop-opacity="1" stop-color="rgb(77.935791%, 42.410278%, 37.37793%)" offset="0.628906"/><stop stop-opacity="1" stop-color="rgb(78.086853%, 42.430115%, 37.145996%)" offset="0.632812"/><stop stop-opacity="1" stop-color="rgb(78.236389%, 42.449951%, 36.912537%)" offset="0.636719"/><stop stop-opacity="1" stop-color="rgb(78.387451%, 42.469788%, 36.679077%)" offset="0.640625"/><stop stop-opacity="1" stop-color="rgb(78.538513%, 42.489624%, 36.445618%)" offset="0.644531"/><stop stop-opacity="1" stop-color="rgb(78.689575%, 42.50946%, 36.213684%)" offset="0.648438"/><stop stop-opacity="1" stop-color="rgb(78.839111%, 42.529297%, 35.980225%)" offset="0.652344"/><stop stop-opacity="1" stop-color="rgb(78.990173%, 42.549133%, 35.746765%)" offset="0.65625"/><stop stop-opacity="1" stop-color="rgb(79.139709%, 42.56897%, 35.513306%)" offset="0.660156"/><stop stop-opacity="1" stop-color="rgb(79.290771%, 42.588806%, 35.281372%)" offset="0.664062"/><stop stop-opacity="1" stop-color="rgb(79.441833%, 42.608643%, 35.047913%)" offset="0.667969"/><stop stop-opacity="1" stop-color="rgb(79.592896%, 42.628479%, 34.815979%)" offset="0.671875"/><stop stop-opacity="1" stop-color="rgb(79.742432%, 42.648315%, 34.58252%)" offset="0.675781"/><stop stop-opacity="1" stop-color="rgb(79.893494%, 42.669678%, 34.34906%)" offset="0.679688"/><stop stop-opacity="1" stop-color="rgb(80.04303%, 42.689514%, 34.115601%)" offset="0.683594"/><stop stop-opacity="1" stop-color="rgb(80.194092%, 42.709351%, 33.883667%)" offset="0.6875"/><stop stop-opacity="1" stop-color="rgb(80.345154%, 42.729187%, 33.650208%)" offset="0.691406"/><stop stop-opacity="1" stop-color="rgb(80.496216%, 42.749023%, 33.416748%)" offset="0.695312"/><stop stop-opacity="1" stop-color="rgb(80.645752%, 42.76886%, 33.183289%)" offset="0.699219"/><stop stop-opacity="1" stop-color="rgb(80.796814%, 42.788696%, 32.951355%)" offset="0.703125"/><stop stop-opacity="1" stop-color="rgb(80.94635%, 42.808533%, 32.717896%)" offset="0.707031"/><stop stop-opacity="1" stop-color="rgb(81.097412%, 42.828369%, 32.484436%)" offset="0.710938"/><stop stop-opacity="1" stop-color="rgb(81.248474%, 42.848206%, 32.250977%)" offset="0.714844"/><stop stop-opacity="1" stop-color="rgb(81.399536%, 42.868042%, 32.019043%)" offset="0.71875"/><stop stop-opacity="1" stop-color="rgb(81.549072%, 42.887878%, 31.785583%)" offset="0.722656"/><stop stop-opacity="1" stop-color="rgb(81.700134%, 42.907715%, 31.552124%)" offset="0.726562"/><stop stop-opacity="1" stop-color="rgb(81.84967%, 42.927551%, 31.318665%)" offset="0.730469"/><stop stop-opacity="1" stop-color="rgb(82.000732%, 42.948914%, 31.086731%)" offset="0.734375"/><stop stop-opacity="1" stop-color="rgb(82.151794%, 42.96875%, 30.853271%)" offset="0.738281"/><stop stop-opacity="1" stop-color="rgb(82.302856%, 42.988586%, 30.619812%)" offset="0.742187"/><stop stop-opacity="1" stop-color="rgb(82.452393%, 43.008423%, 30.386353%)" offset="0.746094"/><stop stop-opacity="1" stop-color="rgb(82.603455%, 43.028259%, 30.154419%)" offset="0.75"/><stop stop-opacity="1" stop-color="rgb(82.752991%, 43.048096%, 29.920959%)" offset="0.753906"/><stop stop-opacity="1" stop-color="rgb(82.904053%, 43.067932%, 29.689026%)" offset="0.757813"/><stop stop-opacity="1" stop-color="rgb(83.053589%, 43.087769%, 29.455566%)" offset="0.761719"/><stop stop-opacity="1" stop-color="rgb(83.204651%, 43.107605%, 29.222107%)" offset="0.765625"/><stop stop-opacity="1" stop-color="rgb(83.355713%, 43.127441%, 28.988647%)" offset="0.769531"/><stop stop-opacity="1" stop-color="rgb(83.506775%, 43.147278%, 28.756714%)" offset="0.773438"/><stop stop-opacity="1" stop-color="rgb(83.656311%, 43.167114%, 28.523254%)" offset="0.777344"/><stop stop-opacity="1" stop-color="rgb(83.807373%, 43.186951%, 28.289795%)" offset="0.78125"/><stop stop-opacity="1" stop-color="rgb(83.956909%, 43.206787%, 28.056335%)" offset="0.785156"/><stop stop-opacity="1" stop-color="rgb(84.107971%, 43.228149%, 27.824402%)" offset="0.789062"/><stop stop-opacity="1" stop-color="rgb(84.259033%, 43.247986%, 27.590942%)" offset="0.792969"/><stop stop-opacity="1" stop-color="rgb(84.410095%, 43.267822%, 27.357483%)" offset="0.796875"/><stop stop-opacity="1" stop-color="rgb(84.559631%, 43.287659%, 27.124023%)" offset="0.800781"/><stop stop-opacity="1" stop-color="rgb(84.710693%, 43.307495%, 26.89209%)" offset="0.804688"/><stop stop-opacity="1" stop-color="rgb(84.860229%, 43.327332%, 26.65863%)" offset="0.808594"/><stop stop-opacity="1" stop-color="rgb(85.011292%, 43.347168%, 26.425171%)" offset="0.8125"/><stop stop-opacity="1" stop-color="rgb(85.162354%, 43.367004%, 26.191711%)" offset="0.816406"/><stop stop-opacity="1" stop-color="rgb(85.313416%, 43.386841%, 25.959778%)" offset="0.820312"/><stop stop-opacity="1" stop-color="rgb(85.462952%, 43.406677%, 25.726318%)" offset="0.824219"/><stop stop-opacity="1" stop-color="rgb(85.614014%, 43.426514%, 25.492859%)" offset="0.828125"/><stop stop-opacity="1" stop-color="rgb(85.76355%, 43.44635%, 25.259399%)" offset="0.832031"/><stop stop-opacity="1" stop-color="rgb(85.914612%, 43.466187%, 25.027466%)" offset="0.835938"/><stop stop-opacity="1" stop-color="rgb(86.065674%, 43.486023%, 24.794006%)" offset="0.839844"/><stop stop-opacity="1" stop-color="rgb(86.216736%, 43.507385%, 24.562073%)" offset="0.84375"/><stop stop-opacity="1" stop-color="rgb(86.366272%, 43.527222%, 24.328613%)" offset="0.847656"/><stop stop-opacity="1" stop-color="rgb(86.517334%, 43.547058%, 24.095154%)" offset="0.851562"/><stop stop-opacity="1" stop-color="rgb(86.66687%, 43.566895%, 23.861694%)" offset="0.855469"/><stop stop-opacity="1" stop-color="rgb(86.817932%, 43.586731%, 23.629761%)" offset="0.859375"/><stop stop-opacity="1" stop-color="rgb(86.968994%, 43.606567%, 23.396301%)" offset="0.863281"/><stop stop-opacity="1" stop-color="rgb(87.120056%, 43.626404%, 23.162842%)" offset="0.867188"/><stop stop-opacity="1" stop-color="rgb(87.269592%, 43.64624%, 22.929382%)" offset="0.871094"/><stop stop-opacity="1" stop-color="rgb(87.420654%, 43.666077%, 22.697449%)" offset="0.875"/><stop stop-opacity="1" stop-color="rgb(87.57019%, 43.685913%, 22.463989%)" offset="0.878906"/><stop stop-opacity="1" stop-color="rgb(87.721252%, 43.70575%, 22.23053%)" offset="0.882812"/><stop stop-opacity="1" stop-color="rgb(87.872314%, 43.725586%, 21.99707%)" offset="0.886719"/><stop stop-opacity="1" stop-color="rgb(88.023376%, 43.745422%, 21.765137%)" offset="0.890625"/><stop stop-opacity="1" stop-color="rgb(88.172913%, 43.765259%, 21.531677%)" offset="0.894531"/><stop stop-opacity="1" stop-color="rgb(88.323975%, 43.786621%, 21.298218%)" offset="0.898438"/><stop stop-opacity="1" stop-color="rgb(88.473511%, 43.806458%, 21.064758%)" offset="0.902344"/><stop stop-opacity="1" stop-color="rgb(88.624573%, 43.826294%, 20.832825%)" offset="0.90625"/><stop stop-opacity="1" stop-color="rgb(88.774109%, 43.84613%, 20.599365%)" offset="0.910156"/><stop stop-opacity="1" stop-color="rgb(88.925171%, 43.865967%, 20.365906%)" offset="0.914062"/><stop stop-opacity="1" stop-color="rgb(89.076233%, 43.885803%, 20.132446%)" offset="0.917969"/><stop stop-opacity="1" stop-color="rgb(89.227295%, 43.90564%, 19.900513%)" offset="0.921875"/><stop stop-opacity="1" stop-color="rgb(89.376831%, 43.925476%, 19.667053%)" offset="0.925781"/><stop stop-opacity="1" stop-color="rgb(89.527893%, 43.945312%, 19.433594%)" offset="0.929688"/><stop stop-opacity="1" stop-color="rgb(89.677429%, 43.965149%, 19.200134%)" offset="0.933594"/><stop stop-opacity="1" stop-color="rgb(89.828491%, 43.984985%, 18.968201%)" offset="0.9375"/><stop stop-opacity="1" stop-color="rgb(89.979553%, 44.004822%, 18.734741%)" offset="0.941406"/><stop stop-opacity="1" stop-color="rgb(90.130615%, 44.024658%, 18.502808%)" offset="0.945313"/><stop stop-opacity="1" stop-color="rgb(90.280151%, 44.044495%, 18.269348%)" offset="0.949219"/><stop stop-opacity="1" stop-color="rgb(90.431213%, 44.064331%, 18.035889%)" offset="0.953125"/><stop stop-opacity="1" stop-color="rgb(90.58075%, 44.084167%, 17.802429%)" offset="0.957031"/><stop stop-opacity="1" stop-color="rgb(90.731812%, 44.10553%, 17.570496%)" offset="0.960938"/><stop stop-opacity="1" stop-color="rgb(90.882874%, 44.125366%, 17.337036%)" offset="0.964844"/><stop stop-opacity="1" stop-color="rgb(91.033936%, 44.145203%, 17.103577%)" offset="0.96875"/><stop stop-opacity="1" stop-color="rgb(91.183472%, 44.165039%, 16.870117%)" offset="0.972656"/><stop stop-opacity="1" stop-color="rgb(91.334534%, 44.184875%, 16.638184%)" offset="0.976562"/><stop stop-opacity="1" stop-color="rgb(91.48407%, 44.204712%, 16.404724%)" offset="0.980469"/><stop stop-opacity="1" stop-color="rgb(91.635132%, 44.224548%, 16.171265%)" offset="0.984375"/><stop stop-opacity="1" stop-color="rgb(91.786194%, 44.244385%, 15.937805%)" offset="0.988281"/><stop stop-opacity="1" stop-color="rgb(91.937256%, 44.264221%, 15.705872%)" offset="0.992188"/><stop stop-opacity="1" stop-color="rgb(92.068481%, 44.281006%, 15.50293%)" offset="0.996094"/><stop stop-opacity="1" stop-color="rgb(92.199707%, 44.299316%, 15.299988%)" offset="1"/></linearGradient><clipPath id="id7"><path d="M 2868 264 L 3066 264 L 3066 462 L 2868 462 Z M 2868 264 " clip-rule="nonzero"/></clipPath><clipPath id="id8"><path d="M 3065.382812 362.828125 C 3065.382812 361.21875 3065.34375 359.609375 3065.265625 358.003906 C 3065.183594 356.398438 3065.066406 354.792969 3064.910156 353.191406 C 3064.75 351.589844 3064.554688 349.992188 3064.316406 348.402344 C 3064.082031 346.808594 3063.808594 345.226562 3063.492188 343.648438 C 3063.179688 342.070312 3062.828125 340.5 3062.4375 338.9375 C 3062.042969 337.378906 3061.617188 335.828125 3061.148438 334.289062 C 3060.683594 332.75 3060.175781 331.222656 3059.636719 329.707031 C 3059.09375 328.191406 3058.515625 326.691406 3057.898438 325.203125 C 3057.28125 323.71875 3056.632812 322.246094 3055.941406 320.792969 C 3055.253906 319.339844 3054.53125 317.902344 3053.773438 316.480469 C 3053.015625 315.0625 3052.222656 313.664062 3051.394531 312.285156 C 3050.566406 310.902344 3049.707031 309.542969 3048.8125 308.207031 C 3047.917969 306.867188 3046.992188 305.554688 3046.035156 304.261719 C 3045.078125 302.96875 3044.085938 301.699219 3043.066406 300.457031 C 3042.046875 299.214844 3040.996094 297.996094 3039.914062 296.804688 C 3038.835938 295.609375 3037.726562 294.445312 3036.585938 293.308594 C 3035.449219 292.171875 3034.285156 291.0625 3033.09375 289.980469 C 3031.898438 288.898438 3030.683594 287.847656 3029.4375 286.828125 C 3028.195312 285.808594 3026.925781 284.816406 3025.632812 283.859375 C 3024.34375 282.902344 3023.027344 281.976562 3021.6875 281.082031 C 3020.351562 280.1875 3018.992188 279.328125 3017.613281 278.5 C 3016.234375 277.671875 3014.832031 276.878906 3013.414062 276.121094 C 3011.996094 275.363281 3010.558594 274.640625 3009.105469 273.953125 C 3007.648438 273.265625 3006.179688 272.613281 3004.691406 271.996094 C 3003.207031 271.378906 3001.707031 270.800781 3000.191406 270.257812 C 2998.675781 269.71875 2997.148438 269.210938 2995.609375 268.746094 C 2994.070312 268.277344 2992.519531 267.847656 2990.957031 267.457031 C 2989.398438 267.066406 2987.828125 266.714844 2986.25 266.402344 C 2984.671875 266.085938 2983.085938 265.8125 2981.496094 265.578125 C 2979.902344 265.339844 2978.308594 265.144531 2976.707031 264.984375 C 2975.105469 264.828125 2973.5 264.710938 2971.894531 264.628906 C 2970.289062 264.550781 2968.679688 264.511719 2967.070312 264.511719 C 2965.460938 264.511719 2963.851562 264.550781 2962.246094 264.628906 C 2960.640625 264.710938 2959.035156 264.828125 2957.433594 264.984375 C 2955.832031 265.144531 2954.238281 265.339844 2952.644531 265.578125 C 2951.054688 265.8125 2949.46875 266.085938 2947.890625 266.402344 C 2946.3125 266.714844 2944.742188 267.066406 2943.183594 267.457031 C 2941.621094 267.847656 2940.070312 268.277344 2938.53125 268.746094 C 2936.992188 269.210938 2935.464844 269.71875 2933.949219 270.257812 C 2932.433594 270.800781 2930.933594 271.378906 2929.449219 271.996094 C 2927.960938 272.613281 2926.492188 273.265625 2925.035156 273.953125 C 2923.582031 274.640625 2922.144531 275.363281 2920.726562 276.121094 C 2919.308594 276.878906 2917.90625 277.671875 2916.527344 278.5 C 2915.148438 279.328125 2913.789062 280.1875 2912.449219 281.082031 C 2911.113281 281.976562 2909.796875 282.902344 2908.507812 283.859375 C 2907.214844 284.816406 2905.945312 285.808594 2904.703125 286.828125 C 2903.457031 287.847656 2902.238281 288.898438 2901.046875 289.980469 C 2899.855469 291.0625 2898.691406 292.171875 2897.554688 293.308594 C 2896.414062 294.445312 2895.304688 295.609375 2894.226562 296.804688 C 2893.144531 297.996094 2892.09375 299.214844 2891.074219 300.457031 C 2890.054688 301.699219 2889.0625 302.96875 2888.105469 304.261719 C 2887.148438 305.554688 2886.222656 306.867188 2885.328125 308.207031 C 2884.433594 309.542969 2883.574219 310.902344 2882.746094 312.285156 C 2881.917969 313.664062 2881.125 315.0625 2880.367188 316.480469 C 2879.609375 317.902344 2878.886719 319.339844 2878.195312 320.792969 C 2877.507812 322.246094 2876.859375 323.71875 2876.242188 325.203125 C 2875.625 326.691406 2875.046875 328.191406 2874.503906 329.707031 C 2873.964844 331.222656 2873.457031 332.75 2872.992188 334.289062 C 2872.523438 335.828125 2872.09375 337.378906 2871.703125 338.9375 C 2871.3125 340.5 2870.960938 342.070312 2870.648438 343.648438 C 2870.332031 345.226562 2870.058594 346.808594 2869.824219 348.402344 C 2869.585938 349.992188 2869.390625 351.589844 2869.230469 353.191406 C 2869.074219 354.792969 2868.957031 356.398438 2868.875 358.003906 C 2868.796875 359.609375 2868.757812 361.21875 2868.757812 362.828125 C 2868.757812 364.4375 2868.796875 366.042969 2868.875 367.652344 C 2868.957031 369.257812 2869.074219 370.863281 2869.230469 372.464844 C 2869.390625 374.066406 2869.585938 375.664062 2869.824219 377.253906 C 2870.058594 378.84375 2870.332031 380.429688 2870.648438 382.007812 C 2870.960938 383.585938 2871.3125 385.15625 2871.703125 386.714844 C 2872.09375 388.277344 2872.523438 389.828125 2872.992188 391.367188 C 2873.457031 392.90625 2873.964844 394.433594 2874.503906 395.949219 C 2875.046875 397.464844 2875.625 398.964844 2876.242188 400.453125 C 2876.859375 401.9375 2877.507812 403.410156 2878.195312 404.863281 C 2878.886719 406.316406 2879.609375 407.753906 2880.367188 409.171875 C 2881.125 410.59375 2881.917969 411.992188 2882.746094 413.371094 C 2883.574219 414.753906 2884.433594 416.109375 2885.328125 417.449219 C 2886.21875 418.785156 2887.148438 420.101562 2888.105469 421.394531 C 2889.0625 422.6875 2890.054688 423.953125 2891.074219 425.199219 C 2892.09375 426.441406 2893.144531 427.660156 2894.226562 428.851562 C 2895.304688 430.042969 2896.414062 431.210938 2897.554688 432.347656 C 2898.691406 433.484375 2899.855469 434.59375 2901.046875 435.675781 C 2902.238281 436.753906 2903.457031 437.804688 2904.703125 438.828125 C 2905.945312 439.847656 2907.214844 440.835938 2908.507812 441.796875 C 2909.796875 442.753906 2911.113281 443.679688 2912.449219 444.574219 C 2913.789062 445.46875 2915.148438 446.328125 2916.527344 447.15625 C 2917.90625 447.984375 2919.308594 448.777344 2920.726562 449.535156 C 2922.144531 450.292969 2923.582031 451.015625 2925.035156 451.703125 C 2926.492188 452.390625 2927.960938 453.042969 2929.449219 453.660156 C 2930.933594 454.273438 2932.433594 454.855469 2933.949219 455.394531 C 2935.464844 455.9375 2936.992188 456.441406 2938.53125 456.910156 C 2940.070312 457.375 2941.621094 457.804688 2943.183594 458.195312 C 2944.742188 458.585938 2946.3125 458.941406 2947.890625 459.253906 C 2949.46875 459.566406 2951.054688 459.84375 2952.644531 460.078125 C 2954.238281 460.316406 2955.832031 460.511719 2957.433594 460.667969 C 2959.035156 460.828125 2960.640625 460.945312 2962.246094 461.023438 C 2963.851562 461.105469 2965.460938 461.144531 2967.070312 461.144531 C 2968.679688 461.144531 2970.289062 461.105469 2971.894531 461.023438 C 2973.5 460.945312 2975.105469 460.828125 2976.707031 460.667969 C 2978.308594 460.511719 2979.902344 460.316406 2981.496094 460.078125 C 2983.085938 459.84375 2984.671875 459.566406 2986.25 459.253906 C 2987.828125 458.941406 2989.398438 458.585938 2990.957031 458.195312 C 2992.519531 457.804688 2994.070312 457.375 2995.609375 456.910156 C 2997.148438 456.441406 2998.675781 455.9375 3000.191406 455.394531 C 3001.707031 454.855469 3003.207031 454.273438 3004.691406 453.660156 C 3006.179688 453.042969 3007.648438 452.390625 3009.105469 451.703125 C 3010.558594 451.015625 3011.996094 450.292969 3013.414062 449.535156 C 3014.832031 448.777344 3016.234375 447.984375 3017.613281 447.15625 C 3018.992188 446.328125 3020.351562 445.46875 3021.6875 444.574219 C 3023.027344 443.679688 3024.34375 442.753906 3025.632812 441.796875 C 3026.925781 440.835938 3028.195312 439.847656 3029.4375 438.828125 C 3030.683594 437.804688 3031.898438 436.753906 3033.09375 435.675781 C 3034.285156 434.59375 3035.449219 433.484375 3036.585938 432.347656 C 3037.726562 431.210938 3038.835938 430.042969 3039.914062 428.851562 C 3040.996094 427.660156 3042.046875 426.441406 3043.066406 425.199219 C 3044.085938 423.953125 3045.078125 422.6875 3046.035156 421.394531 C 3046.992188 420.101562 3047.917969 418.785156 3048.8125 417.449219 C 3049.707031 416.109375 3050.566406 414.753906 3051.394531 413.371094 C 3052.222656 411.992188 3053.015625 410.59375 3053.773438 409.171875 C 3054.53125 407.753906 3055.253906 406.316406 3055.941406 404.863281 C 3056.632812 403.410156 3057.28125 401.9375 3057.898438 400.453125 C 3058.515625 398.964844 3059.09375 397.464844 3059.636719 395.949219 C 3060.175781 394.433594 3060.683594 392.90625 3061.148438 391.367188 C 3061.617188 389.828125 3062.042969 388.277344 3062.4375 386.714844 C 3062.828125 385.15625 3063.179688 383.585938 3063.492188 382.007812 C 3063.808594 380.429688 3064.082031 378.84375 3064.316406 377.253906 C 3064.554688 375.664062 3064.75 374.066406 3064.910156 372.464844 C 3065.066406 370.863281 3065.183594 369.257812 3065.265625 367.652344 C 3065.34375 366.042969 3065.382812 364.4375 3065.382812 362.828125 Z M 3065.382812 362.828125 " clip-rule="nonzero"/></clipPath><linearGradient x1="126.599972" gradientTransform="matrix(8.62385, 0, 0, -8.62417, 1776.979137, 1876.369553)" y1="95.099998" x2="149.399974" gradientUnits="userSpaceOnUse" y2="95.099998" xlink:type="simple" xlink:actuate="onLoad" id="id9" xlink:show="other"><stop stop-opacity="1" stop-color="rgb(75.776672%, 42.123413%, 40.72113%)" offset="0"/><stop stop-opacity="1" stop-color="rgb(75.900269%, 42.140198%, 40.52887%)" offset="0.0625"/><stop stop-opacity="1" stop-color="rgb(76.148987%, 42.172241%, 40.144348%)" offset="0.125"/><stop stop-opacity="1" stop-color="rgb(76.397705%, 42.205811%, 39.759827%)" offset="0.1875"/><stop stop-opacity="1" stop-color="rgb(76.646423%, 42.23938%, 39.375305%)" offset="0.25"/><stop stop-opacity="1" stop-color="rgb(76.895142%, 42.271423%, 38.990784%)" offset="0.3125"/><stop stop-opacity="1" stop-color="rgb(77.142334%, 42.304993%, 38.606262%)" offset="0.375"/><stop stop-opacity="1" stop-color="rgb(77.391052%, 42.337036%, 38.221741%)" offset="0.4375"/><stop stop-opacity="1" stop-color="rgb(77.639771%, 42.370605%, 37.835693%)" offset="0.5"/><stop stop-opacity="1" stop-color="rgb(77.888489%, 42.402649%, 37.451172%)" offset="0.5625"/><stop stop-opacity="1" stop-color="rgb(78.137207%, 42.436218%, 37.06665%)" offset="0.625"/><stop stop-opacity="1" stop-color="rgb(78.385925%, 42.469788%, 36.682129%)" offset="0.6875"/><stop stop-opacity="1" stop-color="rgb(78.634644%, 42.501831%, 36.297607%)" offset="0.75"/><stop stop-opacity="1" stop-color="rgb(78.883362%, 42.5354%, 35.913086%)" offset="0.8125"/><stop stop-opacity="1" stop-color="rgb(79.130554%, 42.567444%, 35.528564%)" offset="0.875"/><stop stop-opacity="1" stop-color="rgb(79.379272%, 42.601013%, 35.144043%)" offset="0.9375"/><stop stop-opacity="1" stop-color="rgb(79.627991%, 42.633057%, 34.759521%)" offset="1"/></linearGradient><clipPath id="id10"><path d="M 2819 1681 L 3015 1681 L 3015 1876.371094 L 2819 1876.371094 Z M 2819 1681 " clip-rule="nonzero"/></clipPath><clipPath id="id11"><path d="M 3014.5 1778.917969 C 3014.5 1777.320312 3014.460938 1775.726562 3014.382812 1774.132812 C 3014.304688 1772.542969 3014.1875 1770.953125 3014.03125 1769.363281 C 3013.875 1767.777344 3013.679688 1766.195312 3013.445312 1764.617188 C 3013.210938 1763.039062 3012.941406 1761.46875 3012.628906 1759.902344 C 3012.316406 1758.339844 3011.96875 1756.785156 3011.582031 1755.238281 C 3011.195312 1753.691406 3010.769531 1752.152344 3010.304688 1750.628906 C 3009.84375 1749.101562 3009.34375 1747.585938 3008.804688 1746.085938 C 3008.265625 1744.582031 3007.695312 1743.097656 3007.082031 1741.621094 C 3006.472656 1740.148438 3005.828125 1738.691406 3005.144531 1737.25 C 3004.464844 1735.808594 3003.746094 1734.382812 3002.996094 1732.976562 C 3002.242188 1731.570312 3001.457031 1730.183594 3000.636719 1728.816406 C 2999.816406 1727.449219 2998.964844 1726.101562 2998.078125 1724.773438 C 2997.191406 1723.449219 2996.273438 1722.144531 2995.324219 1720.863281 C 2994.375 1719.582031 2993.394531 1718.324219 2992.382812 1717.09375 C 2991.371094 1715.859375 2990.328125 1714.652344 2989.257812 1713.472656 C 2988.1875 1712.289062 2987.085938 1711.132812 2985.960938 1710.007812 C 2984.832031 1708.878906 2983.675781 1707.78125 2982.496094 1706.707031 C 2981.3125 1705.636719 2980.105469 1704.597656 2978.875 1703.585938 C 2977.640625 1702.574219 2976.382812 1701.589844 2975.101562 1700.640625 C 2973.820312 1699.691406 2972.519531 1698.773438 2971.191406 1697.886719 C 2969.867188 1697 2968.519531 1696.148438 2967.152344 1695.328125 C 2965.78125 1694.507812 2964.394531 1693.722656 2962.988281 1692.96875 C 2961.582031 1692.21875 2960.160156 1691.5 2958.714844 1690.820312 C 2957.273438 1690.136719 2955.816406 1689.492188 2954.34375 1688.882812 C 2952.871094 1688.269531 2951.382812 1687.699219 2949.882812 1687.160156 C 2948.378906 1686.621094 2946.867188 1686.121094 2945.339844 1685.660156 C 2943.8125 1685.195312 2942.277344 1684.769531 2940.730469 1684.382812 C 2939.183594 1683.996094 2937.628906 1683.648438 2936.0625 1683.335938 C 2934.5 1683.023438 2932.929688 1682.753906 2931.351562 1682.519531 C 2929.773438 1682.285156 2928.191406 1682.089844 2926.605469 1681.933594 C 2925.015625 1681.777344 2923.425781 1681.660156 2921.832031 1681.582031 C 2920.242188 1681.503906 2918.648438 1681.464844 2917.050781 1681.464844 C 2915.457031 1681.464844 2913.863281 1681.503906 2912.269531 1681.582031 C 2910.675781 1681.660156 2909.085938 1681.777344 2907.5 1681.933594 C 2905.914062 1682.089844 2904.332031 1682.285156 2902.753906 1682.519531 C 2901.175781 1682.753906 2899.605469 1683.023438 2898.039062 1683.335938 C 2896.476562 1683.648438 2894.921875 1683.996094 2893.375 1684.382812 C 2891.828125 1684.769531 2890.289062 1685.195312 2888.765625 1685.660156 C 2887.238281 1686.121094 2885.722656 1686.621094 2884.222656 1687.160156 C 2882.71875 1687.699219 2881.234375 1688.269531 2879.757812 1688.882812 C 2878.285156 1689.492188 2876.828125 1690.136719 2875.386719 1690.820312 C 2873.945312 1691.5 2872.519531 1692.21875 2871.113281 1692.96875 C 2869.707031 1693.722656 2868.320312 1694.507812 2866.953125 1695.328125 C 2865.585938 1696.148438 2864.238281 1697 2862.910156 1697.886719 C 2861.585938 1698.773438 2860.28125 1699.691406 2859 1700.640625 C 2857.71875 1701.589844 2856.464844 1702.574219 2855.230469 1703.585938 C 2853.996094 1704.597656 2852.789062 1705.636719 2851.609375 1706.707031 C 2850.425781 1707.78125 2849.273438 1708.878906 2848.144531 1710.007812 C 2847.015625 1711.132812 2845.917969 1712.289062 2844.847656 1713.472656 C 2843.777344 1714.652344 2842.734375 1715.859375 2841.722656 1717.09375 C 2840.710938 1718.324219 2839.730469 1719.582031 2838.78125 1720.863281 C 2837.828125 1722.144531 2836.910156 1723.449219 2836.027344 1724.773438 C 2835.140625 1726.101562 2834.285156 1727.449219 2833.464844 1728.816406 C 2832.648438 1730.183594 2831.859375 1731.570312 2831.109375 1732.976562 C 2830.355469 1734.382812 2829.640625 1735.808594 2828.957031 1737.25 C 2828.277344 1738.691406 2827.628906 1740.148438 2827.019531 1741.621094 C 2826.410156 1743.097656 2825.835938 1744.582031 2825.300781 1746.085938 C 2824.761719 1747.585938 2824.261719 1749.101562 2823.796875 1750.628906 C 2823.335938 1752.152344 2822.910156 1753.691406 2822.523438 1755.238281 C 2822.136719 1756.785156 2821.785156 1758.339844 2821.476562 1759.902344 C 2821.164062 1761.46875 2820.890625 1763.039062 2820.65625 1764.617188 C 2820.421875 1766.195312 2820.226562 1767.777344 2820.070312 1769.363281 C 2819.914062 1770.953125 2819.796875 1772.542969 2819.71875 1774.132812 C 2819.640625 1775.726562 2819.601562 1777.320312 2819.601562 1778.917969 C 2819.601562 1780.511719 2819.640625 1782.105469 2819.71875 1783.699219 C 2819.796875 1785.292969 2819.914062 1786.882812 2820.070312 1788.46875 C 2820.226562 1790.054688 2820.421875 1791.636719 2820.65625 1793.214844 C 2820.890625 1794.792969 2821.164062 1796.363281 2821.476562 1797.929688 C 2821.785156 1799.492188 2822.136719 1801.046875 2822.523438 1802.59375 C 2822.910156 1804.144531 2823.335938 1805.679688 2823.796875 1807.207031 C 2824.261719 1808.730469 2824.761719 1810.246094 2825.296875 1811.746094 C 2825.835938 1813.25 2826.410156 1814.738281 2827.019531 1816.210938 C 2827.628906 1817.683594 2828.277344 1819.140625 2828.957031 1820.582031 C 2829.640625 1822.023438 2830.355469 1823.449219 2831.109375 1824.855469 C 2831.859375 1826.261719 2832.648438 1827.648438 2833.464844 1829.015625 C 2834.285156 1830.386719 2835.140625 1831.730469 2836.027344 1833.058594 C 2836.910156 1834.382812 2837.828125 1835.6875 2838.78125 1836.96875 C 2839.730469 1838.25 2840.710938 1839.507812 2841.722656 1840.738281 C 2842.734375 1841.972656 2843.777344 1843.179688 2844.847656 1844.363281 C 2845.917969 1845.542969 2847.015625 1846.699219 2848.144531 1847.828125 C 2849.273438 1848.953125 2850.425781 1850.054688 2851.609375 1851.125 C 2852.789062 1852.195312 2853.996094 1853.238281 2855.230469 1854.25 C 2856.464844 1855.261719 2857.71875 1856.242188 2859 1857.191406 C 2860.28125 1858.140625 2861.585938 1859.058594 2862.910156 1859.945312 C 2864.238281 1860.832031 2865.585938 1861.683594 2866.953125 1862.503906 C 2868.320312 1863.324219 2869.707031 1864.109375 2871.113281 1864.863281 C 2872.519531 1865.613281 2873.945312 1866.332031 2875.386719 1867.011719 C 2876.828125 1867.695312 2878.285156 1868.339844 2879.757812 1868.953125 C 2881.234375 1869.5625 2882.71875 1870.136719 2884.222656 1870.671875 C 2885.722656 1871.210938 2887.238281 1871.710938 2888.765625 1872.171875 C 2890.289062 1872.636719 2891.828125 1873.0625 2893.375 1873.449219 C 2894.921875 1873.835938 2896.476562 1874.1875 2898.039062 1874.496094 C 2899.605469 1874.808594 2901.175781 1875.082031 2902.753906 1875.316406 C 2904.332031 1875.546875 2905.914062 1875.742188 2907.5 1875.898438 C 2909.085938 1876.054688 2910.675781 1876.175781 2912.269531 1876.253906 C 2913.863281 1876.332031 2915.457031 1876.371094 2917.050781 1876.371094 C 2918.648438 1876.371094 2920.242188 1876.332031 2921.832031 1876.253906 C 2923.425781 1876.175781 2925.015625 1876.054688 2926.605469 1875.898438 C 2928.191406 1875.742188 2929.773438 1875.546875 2931.351562 1875.316406 C 2932.929688 1875.082031 2934.5 1874.808594 2936.0625 1874.496094 C 2937.628906 1874.1875 2939.183594 1873.835938 2940.730469 1873.449219 C 2942.277344 1873.0625 2943.8125 1872.636719 2945.339844 1872.171875 C 2946.867188 1871.710938 2948.378906 1871.210938 2949.882812 1870.671875 C 2951.382812 1870.136719 2952.871094 1869.5625 2954.34375 1868.953125 C 2955.816406 1868.339844 2957.273438 1867.695312 2958.714844 1867.011719 C 2960.160156 1866.332031 2961.582031 1865.613281 2962.988281 1864.863281 C 2964.394531 1864.109375 2965.78125 1863.324219 2967.152344 1862.503906 C 2968.519531 1861.683594 2969.867188 1860.832031 2971.191406 1859.945312 C 2972.519531 1859.058594 2973.820312 1858.140625 2975.101562 1857.191406 C 2976.382812 1856.242188 2977.640625 1855.261719 2978.875 1854.25 C 2980.105469 1853.238281 2981.3125 1852.195312 2982.496094 1851.125 C 2983.675781 1850.054688 2984.832031 1848.953125 2985.960938 1847.828125 C 2987.085938 1846.699219 2988.1875 1845.542969 2989.257812 1844.363281 C 2990.328125 1843.179688 2991.371094 1841.972656 2992.382812 1840.738281 C 2993.394531 1839.507812 2994.375 1838.25 2995.324219 1836.96875 C 2996.273438 1835.6875 2997.191406 1834.382812 2998.078125 1833.058594 C 2998.964844 1831.730469 2999.816406 1830.386719 3000.636719 1829.015625 C 3001.457031 1827.648438 3002.242188 1826.261719 3002.996094 1824.855469 C 3003.746094 1823.449219 3004.464844 1822.023438 3005.144531 1820.582031 C 3005.828125 1819.140625 3006.472656 1817.683594 3007.082031 1816.210938 C 3007.695312 1814.738281 3008.265625 1813.25 3008.804688 1811.746094 C 3009.34375 1810.246094 3009.84375 1808.730469 3010.304688 1807.207031 C 3010.769531 1805.679688 3011.195312 1804.144531 3011.582031 1802.59375 C 3011.96875 1801.046875 3012.316406 1799.492188 3012.628906 1797.929688 C 3012.941406 1796.363281 3013.210938 1794.792969 3013.445312 1793.214844 C 3013.679688 1791.636719 3013.875 1790.054688 3014.03125 1788.46875 C 3014.1875 1786.882812 3014.304688 1785.292969 3014.382812 1783.699219 C 3014.460938 1782.105469 3014.5 1780.511719 3014.5 1778.917969 Z M 3014.5 1778.917969 " clip-rule="nonzero"/></clipPath><linearGradient x1="120.899968" gradientTransform="matrix(8.62385, 0, 0, -8.62417, 1776.979137, 1876.369553)" y1="95.099998" x2="143.49998" gradientUnits="userSpaceOnUse" y2="95.099998" xlink:type="simple" xlink:actuate="onLoad" id="id12" xlink:show="other"><stop stop-opacity="1" stop-color="rgb(74.783325%, 41.992188%, 42.260742%)" offset="0"/><stop stop-opacity="1" stop-color="rgb(74.905396%, 42.007446%, 42.070007%)" offset="0.0625"/><stop stop-opacity="1" stop-color="rgb(75.152588%, 42.041016%, 41.688538%)" offset="0.125"/><stop stop-opacity="1" stop-color="rgb(75.398254%, 42.073059%, 41.307068%)" offset="0.1875"/><stop stop-opacity="1" stop-color="rgb(75.643921%, 42.106628%, 40.925598%)" offset="0.25"/><stop stop-opacity="1" stop-color="rgb(75.891113%, 42.138672%, 40.544128%)" offset="0.3125"/><stop stop-opacity="1" stop-color="rgb(76.13678%, 42.170715%, 40.162659%)" offset="0.375"/><stop stop-opacity="1" stop-color="rgb(76.383972%, 42.204285%, 39.781189%)" offset="0.4375"/><stop stop-opacity="1" stop-color="rgb(76.629639%, 42.236328%, 39.401245%)" offset="0.5"/><stop stop-opacity="1" stop-color="rgb(76.876831%, 42.268372%, 39.019775%)" offset="0.5625"/><stop stop-opacity="1" stop-color="rgb(77.122498%, 42.301941%, 38.638306%)" offset="0.625"/><stop stop-opacity="1" stop-color="rgb(77.368164%, 42.333984%, 38.256836%)" offset="0.6875"/><stop stop-opacity="1" stop-color="rgb(77.615356%, 42.367554%, 37.875366%)" offset="0.75"/><stop stop-opacity="1" stop-color="rgb(77.861023%, 42.399597%, 37.493896%)" offset="0.8125"/><stop stop-opacity="1" stop-color="rgb(78.108215%, 42.431641%, 37.112427%)" offset="0.875"/><stop stop-opacity="1" stop-color="rgb(78.353882%, 42.46521%, 36.730957%)" offset="0.9375"/><stop stop-opacity="1" stop-color="rgb(78.601074%, 42.497253%, 36.349487%)" offset="1"/></linearGradient><clipPath id="id13"><path d="M 1818 1220 L 1945 1220 L 1945 1347 L 1818 1347 Z M 1818 1220 " clip-rule="nonzero"/></clipPath><clipPath id="id14"><path d="M 1944.28125 1283.890625 C 1944.28125 1281.828125 1944.179688 1279.769531 1943.980469 1277.71875 C 1943.777344 1275.667969 1943.472656 1273.628906 1943.070312 1271.605469 C 1942.667969 1269.585938 1942.167969 1267.585938 1941.570312 1265.613281 C 1940.972656 1263.640625 1940.277344 1261.703125 1939.488281 1259.796875 C 1938.699219 1257.890625 1937.820312 1256.03125 1936.847656 1254.210938 C 1935.875 1252.394531 1934.816406 1250.625 1933.671875 1248.914062 C 1932.527344 1247.199219 1931.300781 1245.542969 1929.992188 1243.949219 C 1928.683594 1242.355469 1927.300781 1240.832031 1925.84375 1239.371094 C 1924.386719 1237.914062 1922.859375 1236.53125 1921.265625 1235.222656 C 1919.671875 1233.914062 1918.015625 1232.6875 1916.304688 1231.542969 C 1914.589844 1230.398438 1912.824219 1229.339844 1911.003906 1228.367188 C 1909.1875 1227.394531 1907.324219 1226.515625 1905.417969 1225.726562 C 1903.515625 1224.9375 1901.574219 1224.242188 1899.601562 1223.644531 C 1897.628906 1223.046875 1895.632812 1222.542969 1893.609375 1222.140625 C 1891.585938 1221.738281 1889.550781 1221.4375 1887.5 1221.234375 C 1885.445312 1221.035156 1883.390625 1220.933594 1881.328125 1220.933594 C 1879.265625 1220.933594 1877.207031 1221.035156 1875.15625 1221.234375 C 1873.105469 1221.4375 1871.066406 1221.738281 1869.046875 1222.140625 C 1867.023438 1222.542969 1865.027344 1223.046875 1863.054688 1223.644531 C 1861.078125 1224.242188 1859.140625 1224.9375 1857.234375 1225.726562 C 1855.332031 1226.515625 1853.46875 1227.394531 1851.652344 1228.367188 C 1849.832031 1229.339844 1848.066406 1230.398438 1846.351562 1231.542969 C 1844.636719 1232.6875 1842.984375 1233.914062 1841.390625 1235.222656 C 1839.796875 1236.53125 1838.269531 1237.914062 1836.8125 1239.371094 C 1835.355469 1240.832031 1833.972656 1242.355469 1832.664062 1243.949219 C 1831.355469 1245.542969 1830.128906 1247.199219 1828.984375 1248.914062 C 1827.835938 1250.625 1826.777344 1252.394531 1825.808594 1254.210938 C 1824.835938 1256.03125 1823.953125 1257.890625 1823.164062 1259.796875 C 1822.375 1261.703125 1821.683594 1263.640625 1821.085938 1265.613281 C 1820.484375 1267.585938 1819.984375 1269.585938 1819.582031 1271.605469 C 1819.179688 1273.628906 1818.878906 1275.667969 1818.675781 1277.71875 C 1818.472656 1279.769531 1818.375 1281.828125 1818.375 1283.890625 C 1818.375 1285.949219 1818.472656 1288.007812 1818.675781 1290.058594 C 1818.878906 1292.113281 1819.179688 1294.148438 1819.582031 1296.171875 C 1819.984375 1298.195312 1820.484375 1300.191406 1821.085938 1302.164062 C 1821.683594 1304.136719 1822.375 1306.078125 1823.164062 1307.980469 C 1823.953125 1309.886719 1824.835938 1311.75 1825.808594 1313.566406 C 1826.777344 1315.386719 1827.835938 1317.152344 1828.984375 1318.867188 C 1830.128906 1320.582031 1831.355469 1322.234375 1832.664062 1323.828125 C 1833.972656 1325.421875 1835.355469 1326.949219 1836.8125 1328.40625 C 1838.269531 1329.863281 1839.796875 1331.246094 1841.390625 1332.554688 C 1842.984375 1333.863281 1844.636719 1335.089844 1846.351562 1336.234375 C 1848.066406 1337.382812 1849.832031 1338.441406 1851.652344 1339.410156 C 1853.46875 1340.382812 1855.332031 1341.265625 1857.234375 1342.054688 C 1859.140625 1342.84375 1861.078125 1343.535156 1863.054688 1344.132812 C 1865.027344 1344.734375 1867.023438 1345.234375 1869.046875 1345.636719 C 1871.066406 1346.039062 1873.105469 1346.339844 1875.15625 1346.542969 C 1877.207031 1346.746094 1879.265625 1346.84375 1881.328125 1346.84375 C 1883.390625 1346.84375 1885.445312 1346.746094 1887.5 1346.542969 C 1889.550781 1346.339844 1891.585938 1346.039062 1893.609375 1345.636719 C 1895.632812 1345.234375 1897.628906 1344.734375 1899.601562 1344.132812 C 1901.574219 1343.535156 1903.515625 1342.84375 1905.417969 1342.054688 C 1907.324219 1341.265625 1909.1875 1340.382812 1911.003906 1339.410156 C 1912.824219 1338.441406 1914.589844 1337.382812 1916.304688 1336.234375 C 1918.015625 1335.089844 1919.671875 1333.863281 1921.265625 1332.554688 C 1922.859375 1331.246094 1924.386719 1329.863281 1925.84375 1328.40625 C 1927.300781 1326.949219 1928.683594 1325.421875 1929.992188 1323.828125 C 1931.300781 1322.234375 1932.527344 1320.582031 1933.671875 1318.867188 C 1934.816406 1317.152344 1935.875 1315.386719 1936.847656 1313.566406 C 1937.820312 1311.75 1938.699219 1309.886719 1939.488281 1307.980469 C 1940.277344 1306.078125 1940.972656 1304.136719 1941.570312 1302.164062 C 1942.167969 1300.191406 1942.667969 1298.195312 1943.070312 1296.171875 C 1943.472656 1294.148438 1943.777344 1292.113281 1943.980469 1290.058594 C 1944.179688 1288.007812 1944.28125 1285.949219 1944.28125 1283.890625 Z M 1944.28125 1283.890625 " clip-rule="nonzero"/></clipPath><linearGradient x1="4.799989" gradientTransform="matrix(8.62385, 0, 0, -8.62417, 1776.979137, 1876.369553)" y1="95.099998" x2="19.399991" gradientUnits="userSpaceOnUse" y2="95.099998" xlink:type="simple" xlink:actuate="onLoad" id="id15" xlink:show="other"><stop stop-opacity="1" stop-color="rgb(54.536438%, 39.309692%, 73.603821%)" offset="0"/><stop stop-opacity="1" stop-color="rgb(54.615784%, 39.320374%, 73.480225%)" offset="0.0625"/><stop stop-opacity="1" stop-color="rgb(54.774475%, 39.341736%, 73.233032%)" offset="0.125"/><stop stop-opacity="1" stop-color="rgb(54.933167%, 39.363098%, 72.987366%)" offset="0.1875"/><stop stop-opacity="1" stop-color="rgb(55.093384%, 39.38446%, 72.740173%)" offset="0.25"/><stop stop-opacity="1" stop-color="rgb(55.252075%, 39.404297%, 72.494507%)" offset="0.3125"/><stop stop-opacity="1" stop-color="rgb(55.410767%, 39.425659%, 72.24884%)" offset="0.375"/><stop stop-opacity="1" stop-color="rgb(55.570984%, 39.447021%, 72.001648%)" offset="0.4375"/><stop stop-opacity="1" stop-color="rgb(55.729675%, 39.468384%, 71.755981%)" offset="0.5"/><stop stop-opacity="1" stop-color="rgb(55.888367%, 39.489746%, 71.508789%)" offset="0.5625"/><stop stop-opacity="1" stop-color="rgb(56.048584%, 39.509583%, 71.263123%)" offset="0.625"/><stop stop-opacity="1" stop-color="rgb(56.207275%, 39.530945%, 71.01593%)" offset="0.6875"/><stop stop-opacity="1" stop-color="rgb(56.365967%, 39.552307%, 70.770264%)" offset="0.75"/><stop stop-opacity="1" stop-color="rgb(56.524658%, 39.573669%, 70.523071%)" offset="0.8125"/><stop stop-opacity="1" stop-color="rgb(56.684875%, 39.595032%, 70.277405%)" offset="0.875"/><stop stop-opacity="1" stop-color="rgb(56.843567%, 39.616394%, 70.031738%)" offset="0.9375"/><stop stop-opacity="1" stop-color="rgb(57.002258%, 39.63623%, 69.784546%)" offset="1"/></linearGradient></defs><g fill="rgb(97.648621%, 96.469116%, 91.369629%)" fill-opacity="1"><g transform="translate(1437.291466, 2250.018183)"><g><path d="M 51.796875 -151.484375 L 51.796875 -105.90625 L 107.71875 -105.90625 C 112.207031 -105.90625 115.960938 -104.476562 118.984375 -101.625 C 122.003906 -98.78125 123.515625 -95.117188 123.515625 -90.640625 C 123.515625 -86.835938 122.003906 -83.46875 118.984375 -80.53125 C 115.960938 -77.59375 112.207031 -76.125 107.71875 -76.125 L 51.796875 -76.125 L 51.796875 -15.796875 C 51.796875 -11.304688 50.195312 -7.550781 47 -4.53125 C 43.800781 -1.507812 40.046875 0 35.734375 0 C 30.898438 0 26.972656 -1.460938 23.953125 -4.390625 C 20.929688 -7.328125 19.421875 -11.128906 19.421875 -15.796875 L 19.421875 -165.46875 C 19.421875 -169.957031 20.929688 -173.710938 23.953125 -176.734375 C 26.972656 -179.753906 30.726562 -181.265625 35.21875 -181.265625 L 119.375 -181.265625 C 123.863281 -181.265625 127.617188 -179.835938 130.640625 -176.984375 C 133.660156 -174.140625 135.171875 -170.472656 135.171875 -165.984375 C 135.171875 -162.191406 133.660156 -158.828125 130.640625 -155.890625 C 127.617188 -152.953125 123.863281 -151.484375 119.375 -151.484375 Z M 51.796875 -151.484375 "/></g></g></g><g fill="rgb(97.648621%, 96.469116%, 91.369629%)" fill-opacity="1"><g transform="translate(1690.55519, 2250.018183)"><g><path d="M 186.1875 -90.640625 C 186.1875 -73.546875 182.390625 -57.875 174.796875 -43.625 C 167.203125 -29.382812 156.710938 -18.117188 143.328125 -9.828125 C 129.953125 -1.546875 114.890625 2.59375 98.140625 2.59375 C 81.398438 2.59375 66.335938 -1.546875 52.953125 -9.828125 C 39.578125 -18.117188 29.132812 -29.382812 21.625 -43.625 C 14.113281 -57.875 10.359375 -73.546875 10.359375 -90.640625 C 10.359375 -107.722656 14.113281 -123.382812 21.625 -137.625 C 29.132812 -151.875 39.578125 -163.140625 52.953125 -171.421875 C 66.335938 -179.710938 81.398438 -183.859375 98.140625 -183.859375 C 114.890625 -183.859375 129.953125 -179.710938 143.328125 -171.421875 C 156.710938 -163.140625 167.203125 -151.875 174.796875 -137.625 C 182.390625 -123.382812 186.1875 -107.722656 186.1875 -90.640625 Z M 152.515625 -90.640625 C 152.515625 -102.203125 150.1875 -112.6875 145.53125 -122.09375 C 140.875 -131.5 134.398438 -138.960938 126.109375 -144.484375 C 117.828125 -150.015625 108.503906 -152.78125 98.140625 -152.78125 C 87.609375 -152.78125 78.242188 -150.0625 70.046875 -144.625 C 61.847656 -139.1875 55.457031 -131.71875 50.875 -122.21875 C 46.300781 -112.726562 44.015625 -102.203125 44.015625 -90.640625 C 44.015625 -79.066406 46.300781 -68.53125 50.875 -59.03125 C 55.457031 -49.539062 61.847656 -42.078125 70.046875 -36.640625 C 78.242188 -31.203125 87.609375 -28.484375 98.140625 -28.484375 C 108.503906 -28.484375 117.828125 -31.242188 126.109375 -36.765625 C 134.398438 -42.296875 140.875 -49.765625 145.53125 -59.171875 C 150.1875 -68.578125 152.515625 -79.066406 152.515625 -90.640625 Z M 152.515625 -90.640625 "/></g></g></g><g fill="rgb(97.648621%, 96.469116%, 91.369629%)" fill-opacity="1"><g transform="translate(1994.834219, 2250.018183)"><g><path d="M 161.59375 -25.375 C 163.832031 -24 165.597656 -22.1875 166.890625 -19.9375 C 168.191406 -17.695312 168.84375 -15.367188 168.84375 -12.953125 C 168.84375 -9.835938 167.804688 -6.988281 165.734375 -4.40625 C 163.140625 -1.289062 159.164062 0.265625 153.8125 0.265625 C 149.675781 0.265625 145.878906 -0.6875 142.421875 -2.59375 C 129.992188 -9.664062 123.78125 -24.078125 123.78125 -45.828125 C 123.78125 -52.046875 121.75 -56.96875 117.6875 -60.59375 C 113.632812 -64.21875 107.8125 -66.03125 100.21875 -66.03125 L 51.796875 -66.03125 L 51.796875 -15.796875 C 51.796875 -11.128906 50.539062 -7.328125 48.03125 -4.390625 C 45.53125 -1.460938 42.207031 0 38.0625 0 C 33.0625 0 28.703125 -1.507812 24.984375 -4.53125 C 21.273438 -7.550781 19.421875 -11.304688 19.421875 -15.796875 L 19.421875 -165.46875 C 19.421875 -169.957031 20.929688 -173.710938 23.953125 -176.734375 C 26.972656 -179.753906 30.726562 -181.265625 35.21875 -181.265625 L 109.796875 -181.265625 C 118.773438 -181.265625 127.234375 -178.847656 135.171875 -174.015625 C 143.109375 -169.179688 149.453125 -162.535156 154.203125 -154.078125 C 158.953125 -145.617188 161.328125 -136.125 161.328125 -125.59375 C 161.328125 -116.957031 158.992188 -108.539062 154.328125 -100.34375 C 149.671875 -92.144531 143.628906 -85.628906 136.203125 -80.796875 C 147.078125 -73.203125 153.035156 -63.015625 154.078125 -50.234375 C 154.597656 -47.472656 154.859375 -44.796875 154.859375 -42.203125 C 155.546875 -36.859375 156.234375 -33.019531 156.921875 -30.6875 C 157.617188 -28.351562 159.175781 -26.582031 161.59375 -25.375 Z M 108.5 -92.703125 C 111.601562 -92.703125 114.625 -94.171875 117.5625 -97.109375 C 120.5 -100.046875 122.914062 -103.972656 124.8125 -108.890625 C 126.707031 -113.804688 127.65625 -119.113281 127.65625 -124.8125 C 127.65625 -129.644531 126.707031 -134.085938 124.8125 -138.140625 C 122.914062 -142.203125 120.5 -145.441406 117.5625 -147.859375 C 114.625 -150.273438 111.601562 -151.484375 108.5 -151.484375 L 51.796875 -151.484375 L 51.796875 -92.703125 Z M 108.5 -92.703125 "/></g></g></g><g fill="rgb(97.648621%, 96.469116%, 91.369629%)" fill-opacity="1"><g transform="translate(2280.468039, 2250.018183)"><g><path d="M 176.609375 -181.53125 C 180.921875 -181.53125 184.671875 -180.019531 187.859375 -177 C 191.054688 -173.976562 192.65625 -170.222656 192.65625 -165.734375 L 192.65625 -15.796875 C 192.65625 -11.304688 191.1875 -7.550781 188.25 -4.53125 C 185.320312 -1.507812 181.441406 0 176.609375 0 C 171.773438 0 167.847656 -1.460938 164.828125 -4.390625 C 161.804688 -7.328125 160.296875 -11.128906 160.296875 -15.796875 L 160.296875 -120.15625 L 117.5625 -54.890625 C 115.832031 -52.828125 113.847656 -51.144531 111.609375 -49.84375 C 109.367188 -48.550781 107.035156 -47.992188 104.609375 -48.171875 C 102.367188 -47.992188 100.125 -48.550781 97.875 -49.84375 C 95.632812 -51.144531 93.648438 -52.828125 91.921875 -54.890625 L 49.203125 -122.484375 L 49.203125 -15.796875 C 49.203125 -11.128906 47.820312 -7.328125 45.0625 -4.390625 C 42.300781 -1.460938 38.675781 0 34.1875 0 C 29.863281 0 26.320312 -1.507812 23.5625 -4.53125 C 20.800781 -7.550781 19.421875 -11.304688 19.421875 -15.796875 L 19.421875 -165.734375 C 19.421875 -170.046875 21.015625 -173.753906 24.203125 -176.859375 C 27.398438 -179.972656 31.242188 -181.53125 35.734375 -181.53125 C 38.328125 -181.53125 40.914062 -180.878906 43.5 -179.578125 C 46.09375 -178.285156 48.078125 -176.601562 49.453125 -174.53125 L 105.90625 -87.78125 L 163.921875 -174.53125 C 165.296875 -176.601562 167.148438 -178.285156 169.484375 -179.578125 C 171.816406 -180.878906 174.191406 -181.53125 176.609375 -181.53125 Z M 176.609375 -181.53125 "/></g></g></g><g fill="rgb(97.648621%, 96.469116%, 91.369629%)" fill-opacity="1"><g transform="translate(2600.284683, 2250.018183)"><g><path d="M 161.59375 -20.203125 C 162.445312 -17.953125 162.875 -15.878906 162.875 -13.984375 C 162.875 -9.492188 161.40625 -5.820312 158.46875 -2.96875 C 155.539062 -0.125 152.175781 1.296875 148.375 1.296875 C 145.269531 1.296875 142.460938 0.347656 139.953125 -1.546875 C 137.453125 -3.453125 135.515625 -6.046875 134.140625 -9.328125 L 120.671875 -40.65625 L 43.5 -40.65625 L 30.03125 -9.0625 C 28.820312 -5.78125 26.96875 -3.234375 24.46875 -1.421875 C 21.96875 0.390625 19.25 1.296875 16.3125 1.296875 C 11.820312 1.296875 8.410156 0.0859375 6.078125 -2.328125 C 3.753906 -4.742188 2.59375 -8.023438 2.59375 -12.171875 C 2.59375 -13.722656 2.847656 -15.363281 3.359375 -17.09375 L 67.84375 -171.9375 C 69.226562 -175.394531 71.300781 -178.070312 74.0625 -179.96875 C 76.820312 -181.875 79.929688 -182.648438 83.390625 -182.296875 C 86.492188 -182.296875 89.382812 -181.390625 92.0625 -179.578125 C 94.738281 -177.765625 96.679688 -175.21875 97.890625 -171.9375 Z M 56.1875 -70.4375 L 107.984375 -70.4375 L 81.828125 -131.03125 Z M 56.1875 -70.4375 "/></g></g></g><g fill="rgb(97.648621%, 96.469116%, 91.369629%)" fill-opacity="1"><g transform="translate(2873.488401, 2250.018183)"><g><path d="M 119.375 -30.296875 C 123.863281 -30.296875 127.617188 -28.867188 130.640625 -26.015625 C 133.660156 -23.171875 135.171875 -19.503906 135.171875 -15.015625 C 135.171875 -10.703125 133.660156 -7.117188 130.640625 -4.265625 C 127.617188 -1.421875 123.863281 0 119.375 0 L 35.21875 0 C 30.726562 0 26.972656 -1.507812 23.953125 -4.53125 C 20.929688 -7.550781 19.421875 -11.304688 19.421875 -15.796875 L 19.421875 -165.46875 C 19.421875 -169.957031 20.972656 -173.710938 24.078125 -176.734375 C 27.191406 -179.753906 31.164062 -181.265625 36 -181.265625 C 40.3125 -181.265625 44.019531 -179.753906 47.125 -176.734375 C 50.238281 -173.710938 51.796875 -169.957031 51.796875 -165.46875 L 51.796875 -30.296875 Z M 119.375 -30.296875 "/></g></g></g><g fill="rgb(97.648621%, 96.469116%, 91.369629%)" fill-opacity="1"><g transform="translate(3126.752224, 2250.018183)"><g><path d="M 51.796875 -15.796875 C 51.796875 -11.304688 50.15625 -7.550781 46.875 -4.53125 C 43.59375 -1.507812 39.796875 0 35.484375 0 C 30.816406 0 26.972656 -1.507812 23.953125 -4.53125 C 20.929688 -7.550781 19.421875 -11.304688 19.421875 -15.796875 L 19.421875 -165.46875 C 19.421875 -169.957031 20.972656 -173.710938 24.078125 -176.734375 C 27.191406 -179.753906 31.164062 -181.265625 36 -181.265625 C 40.3125 -181.265625 44.019531 -179.753906 47.125 -176.734375 C 50.238281 -173.710938 51.796875 -169.957031 51.796875 -165.46875 Z M 51.796875 -15.796875 "/></g></g></g><g fill="rgb(97.648621%, 96.469116%, 91.369629%)" fill-opacity="1"><g transform="translate(3305.694227, 2250.018183)"><g><path d="M 158.734375 -165.984375 C 158.734375 -162.703125 157.523438 -159.425781 155.109375 -156.15625 L 56.703125 -29.78125 L 139.3125 -29.78125 C 143.976562 -29.78125 147.773438 -28.441406 150.703125 -25.765625 C 153.640625 -23.085938 155.109375 -19.503906 155.109375 -15.015625 C 155.109375 -10.703125 153.597656 -7.117188 150.578125 -4.265625 C 147.554688 -1.421875 143.800781 0 139.3125 0 L 25.640625 0 C 21.148438 0 17.265625 -1.550781 13.984375 -4.65625 C 10.703125 -7.769531 9.0625 -11.3125 9.0625 -15.28125 C 9.0625 -18.5625 10.269531 -21.84375 12.6875 -25.125 L 110.828125 -151.484375 L 36 -151.484375 C 31.332031 -151.484375 27.53125 -152.863281 24.59375 -155.625 C 21.664062 -158.394531 20.203125 -162.019531 20.203125 -166.5 C 20.203125 -170.820312 21.710938 -174.363281 24.734375 -177.125 C 27.753906 -179.882812 31.507812 -181.265625 36 -181.265625 L 141.90625 -181.265625 C 146.050781 -181.265625 149.890625 -179.796875 153.421875 -176.859375 C 156.960938 -173.929688 158.734375 -170.304688 158.734375 -165.984375 Z M 158.734375 -165.984375 "/></g></g></g><g fill="rgb(97.648621%, 96.469116%, 91.369629%)" fill-opacity="1"><g transform="translate(3581.228495, 2250.018183)"><g><path d="M 161.59375 -20.203125 C 162.445312 -17.953125 162.875 -15.878906 162.875 -13.984375 C 162.875 -9.492188 161.40625 -5.820312 158.46875 -2.96875 C 155.539062 -0.125 152.175781 1.296875 148.375 1.296875 C 145.269531 1.296875 142.460938 0.347656 139.953125 -1.546875 C 137.453125 -3.453125 135.515625 -6.046875 134.140625 -9.328125 L 120.671875 -40.65625 L 43.5 -40.65625 L 30.03125 -9.0625 C 28.820312 -5.78125 26.96875 -3.234375 24.46875 -1.421875 C 21.96875 0.390625 19.25 1.296875 16.3125 1.296875 C 11.820312 1.296875 8.410156 0.0859375 6.078125 -2.328125 C 3.753906 -4.742188 2.59375 -8.023438 2.59375 -12.171875 C 2.59375 -13.722656 2.847656 -15.363281 3.359375 -17.09375 L 67.84375 -171.9375 C 69.226562 -175.394531 71.300781 -178.070312 74.0625 -179.96875 C 76.820312 -181.875 79.929688 -182.648438 83.390625 -182.296875 C 86.492188 -182.296875 89.382812 -181.390625 92.0625 -179.578125 C 94.738281 -177.765625 96.679688 -175.21875 97.890625 -171.9375 Z M 56.1875 -70.4375 L 107.984375 -70.4375 L 81.828125 -131.03125 Z M 56.1875 -70.4375 "/></g></g></g><g fill="rgb(97.648621%, 96.469116%, 91.369629%)" fill-opacity="1"><g transform="translate(1927.629915, 2432.977354)"><g><path d="M 60.65625 -14.8125 C 62.882812 -14.8125 64.75 -14.054688 66.25 -12.546875 C 67.757812 -11.046875 68.515625 -9.3125 68.515625 -7.34375 C 68.515625 -5.195312 67.757812 -3.4375 66.25 -2.0625 C 64.75 -0.6875 62.882812 0 60.65625 0 L 17.515625 0 C 15.285156 0 13.414062 -0.75 11.90625 -2.25 C 10.40625 -3.75 9.65625 -5.617188 9.65625 -7.859375 L 9.65625 -82.296875 C 9.65625 -84.523438 10.40625 -86.390625 11.90625 -87.890625 C 13.414062 -89.390625 15.285156 -90.140625 17.515625 -90.140625 L 60.65625 -90.140625 C 62.882812 -90.140625 64.75 -89.429688 66.25 -88.015625 C 67.757812 -86.597656 68.515625 -84.773438 68.515625 -82.546875 C 68.515625 -80.398438 67.785156 -78.660156 66.328125 -77.328125 C 64.867188 -76.003906 62.976562 -75.34375 60.65625 -75.34375 L 25.75 -75.34375 L 25.75 -53.4375 L 54.859375 -53.4375 C 57.085938 -53.4375 58.953125 -52.726562 60.453125 -51.3125 C 61.960938 -49.894531 62.71875 -48.070312 62.71875 -45.84375 C 62.71875 -43.695312 61.988281 -41.957031 60.53125 -40.625 C 59.070312 -39.300781 57.179688 -38.640625 54.859375 -38.640625 L 25.75 -38.640625 L 25.75 -14.8125 Z M 60.65625 -14.8125 "/></g></g></g><g fill="rgb(97.648621%, 96.469116%, 91.369629%)" fill-opacity="1"><g transform="translate(2028.335456, 2432.977354)"><g><path d="M 87.828125 -90.28125 C 89.972656 -90.28125 91.835938 -89.523438 93.421875 -88.015625 C 95.015625 -86.515625 95.8125 -84.648438 95.8125 -82.421875 L 95.8125 -7.859375 C 95.8125 -5.617188 95.082031 -3.75 93.625 -2.25 C 92.164062 -0.75 90.234375 0 87.828125 0 C 85.421875 0 83.46875 -0.726562 81.96875 -2.1875 C 80.46875 -3.644531 79.71875 -5.535156 79.71875 -7.859375 L 79.71875 -59.75 L 58.46875 -27.296875 C 57.601562 -26.265625 56.613281 -25.425781 55.5 -24.78125 C 54.382812 -24.144531 53.226562 -23.867188 52.03125 -23.953125 C 50.914062 -23.867188 49.796875 -24.144531 48.671875 -24.78125 C 47.554688 -25.425781 46.570312 -26.265625 45.71875 -27.296875 L 24.46875 -60.90625 L 24.46875 -7.859375 C 24.46875 -5.535156 23.78125 -3.644531 22.40625 -2.1875 C 21.03125 -0.726562 19.226562 0 17 0 C 14.851562 0 13.09375 -0.75 11.71875 -2.25 C 10.34375 -3.75 9.65625 -5.617188 9.65625 -7.859375 L 9.65625 -82.421875 C 9.65625 -84.566406 10.445312 -86.410156 12.03125 -87.953125 C 13.625 -89.503906 15.535156 -90.28125 17.765625 -90.28125 C 19.054688 -90.28125 20.34375 -89.957031 21.625 -89.3125 C 22.914062 -88.664062 23.90625 -87.828125 24.59375 -86.796875 L 52.671875 -43.65625 L 81.515625 -86.796875 C 82.203125 -87.828125 83.125 -88.664062 84.28125 -89.3125 C 85.445312 -89.957031 86.628906 -90.28125 87.828125 -90.28125 Z M 87.828125 -90.28125 "/></g></g></g><g fill="rgb(97.648621%, 96.469116%, 91.369629%)" fill-opacity="1"><g transform="translate(2160.847722, 2432.977354)"><g><path d="M 46.875 -90.140625 C 51.25 -90.140625 55.410156 -88.832031 59.359375 -86.21875 C 63.316406 -83.601562 66.492188 -80.082031 68.890625 -75.65625 C 71.296875 -71.238281 72.5 -66.410156 72.5 -61.171875 C 72.5 -56.015625 71.296875 -51.203125 68.890625 -46.734375 C 66.492188 -42.273438 63.316406 -38.738281 59.359375 -36.125 C 55.410156 -33.507812 51.25 -32.203125 46.875 -32.203125 L 24.46875 -32.203125 L 24.46875 -7.859375 C 24.46875 -5.535156 23.78125 -3.644531 22.40625 -2.1875 C 21.03125 -0.726562 19.226562 0 17 0 C 14.851562 0 13.09375 -0.75 11.71875 -2.25 C 10.34375 -3.75 9.65625 -5.617188 9.65625 -7.859375 L 9.65625 -82.296875 C 9.65625 -84.523438 10.40625 -86.390625 11.90625 -87.890625 C 13.414062 -89.390625 15.285156 -90.140625 17.515625 -90.140625 Z M 46.875 -46.875 C 48.507812 -46.875 50.117188 -47.5625 51.703125 -48.9375 C 53.296875 -50.3125 54.582031 -52.09375 55.5625 -54.28125 C 56.550781 -56.46875 57.046875 -58.765625 57.046875 -61.171875 C 57.046875 -63.578125 56.550781 -65.875 55.5625 -68.0625 C 54.582031 -70.25 53.296875 -72.007812 51.703125 -73.34375 C 50.117188 -74.675781 48.507812 -75.34375 46.875 -75.34375 L 24.46875 -75.34375 L 24.46875 -46.875 Z M 46.875 -46.875 "/></g></g></g><g fill="rgb(97.648621%, 96.469116%, 91.369629%)" fill-opacity="1"><g transform="translate(2265.54518, 2432.977354)"><g><path d="M 80.359375 -12.625 C 81.472656 -11.9375 82.351562 -11.03125 83 -9.90625 C 83.644531 -8.789062 83.96875 -7.632812 83.96875 -6.4375 C 83.96875 -4.894531 83.453125 -3.476562 82.421875 -2.1875 C 81.128906 -0.644531 79.15625 0.125 76.5 0.125 C 74.4375 0.125 72.546875 -0.34375 70.828125 -1.28125 C 64.648438 -4.800781 61.5625 -11.972656 61.5625 -22.796875 C 61.5625 -25.890625 60.550781 -28.335938 58.53125 -30.140625 C 56.507812 -31.941406 53.613281 -32.84375 49.84375 -32.84375 L 25.75 -32.84375 L 25.75 -7.859375 C 25.75 -5.535156 25.125 -3.644531 23.875 -2.1875 C 22.632812 -0.726562 20.988281 0 18.9375 0 C 16.445312 0 14.273438 -0.75 12.421875 -2.25 C 10.578125 -3.75 9.65625 -5.617188 9.65625 -7.859375 L 9.65625 -82.296875 C 9.65625 -84.523438 10.40625 -86.390625 11.90625 -87.890625 C 13.414062 -89.390625 15.285156 -90.140625 17.515625 -90.140625 L 54.609375 -90.140625 C 59.066406 -90.140625 63.269531 -88.9375 67.21875 -86.53125 C 71.164062 -84.132812 74.320312 -80.832031 76.6875 -76.625 C 79.050781 -72.414062 80.234375 -67.691406 80.234375 -62.453125 C 80.234375 -58.160156 79.070312 -53.972656 76.75 -49.890625 C 74.4375 -45.816406 71.429688 -42.582031 67.734375 -40.1875 C 73.148438 -36.40625 76.113281 -31.335938 76.625 -24.984375 C 76.882812 -23.609375 77.015625 -22.273438 77.015625 -20.984375 C 77.359375 -18.328125 77.703125 -16.414062 78.046875 -15.25 C 78.390625 -14.09375 79.160156 -13.21875 80.359375 -12.625 Z M 53.953125 -46.109375 C 55.503906 -46.109375 57.007812 -46.835938 58.46875 -48.296875 C 59.925781 -49.753906 61.125 -51.707031 62.0625 -54.15625 C 63.007812 -56.601562 63.484375 -59.242188 63.484375 -62.078125 C 63.484375 -64.472656 63.007812 -66.679688 62.0625 -68.703125 C 61.125 -70.722656 59.925781 -72.332031 58.46875 -73.53125 C 57.007812 -74.738281 55.503906 -75.34375 53.953125 -75.34375 L 25.75 -75.34375 L 25.75 -46.109375 Z M 53.953125 -46.109375 "/></g></g></g><g fill="rgb(97.648621%, 96.469116%, 91.369629%)" fill-opacity="1"><g transform="translate(2381.059551, 2432.977354)"><g><path d="M 60.65625 -14.8125 C 62.882812 -14.8125 64.75 -14.054688 66.25 -12.546875 C 67.757812 -11.046875 68.515625 -9.3125 68.515625 -7.34375 C 68.515625 -5.195312 67.757812 -3.4375 66.25 -2.0625 C 64.75 -0.6875 62.882812 0 60.65625 0 L 17.515625 0 C 15.285156 0 13.414062 -0.75 11.90625 -2.25 C 10.40625 -3.75 9.65625 -5.617188 9.65625 -7.859375 L 9.65625 -82.296875 C 9.65625 -84.523438 10.40625 -86.390625 11.90625 -87.890625 C 13.414062 -89.390625 15.285156 -90.140625 17.515625 -90.140625 L 60.65625 -90.140625 C 62.882812 -90.140625 64.75 -89.429688 66.25 -88.015625 C 67.757812 -86.597656 68.515625 -84.773438 68.515625 -82.546875 C 68.515625 -80.398438 67.785156 -78.660156 66.328125 -77.328125 C 64.867188 -76.003906 62.976562 -75.34375 60.65625 -75.34375 L 25.75 -75.34375 L 25.75 -53.4375 L 54.859375 -53.4375 C 57.085938 -53.4375 58.953125 -52.726562 60.453125 -51.3125 C 61.960938 -49.894531 62.71875 -48.070312 62.71875 -45.84375 C 62.71875 -43.695312 61.988281 -41.957031 60.53125 -40.625 C 59.070312 -39.300781 57.179688 -38.640625 54.859375 -38.640625 L 25.75 -38.640625 L 25.75 -14.8125 Z M 60.65625 -14.8125 "/></g></g></g><g fill="rgb(97.648621%, 96.469116%, 91.369629%)" fill-opacity="1"><g transform="translate(2481.765105, 2432.977354)"><g><path d="M 60.65625 -14.8125 C 62.882812 -14.8125 64.75 -14.054688 66.25 -12.546875 C 67.757812 -11.046875 68.515625 -9.3125 68.515625 -7.34375 C 68.515625 -5.195312 67.757812 -3.4375 66.25 -2.0625 C 64.75 -0.6875 62.882812 0 60.65625 0 L 17.515625 0 C 15.285156 0 13.414062 -0.75 11.90625 -2.25 C 10.40625 -3.75 9.65625 -5.617188 9.65625 -7.859375 L 9.65625 -82.296875 C 9.65625 -84.523438 10.40625 -86.390625 11.90625 -87.890625 C 13.414062 -89.390625 15.285156 -90.140625 17.515625 -90.140625 L 60.65625 -90.140625 C 62.882812 -90.140625 64.75 -89.429688 66.25 -88.015625 C 67.757812 -86.597656 68.515625 -84.773438 68.515625 -82.546875 C 68.515625 -80.398438 67.785156 -78.660156 66.328125 -77.328125 C 64.867188 -76.003906 62.976562 -75.34375 60.65625 -75.34375 L 25.75 -75.34375 L 25.75 -53.4375 L 54.859375 -53.4375 C 57.085938 -53.4375 58.953125 -52.726562 60.453125 -51.3125 C 61.960938 -49.894531 62.71875 -48.070312 62.71875 -45.84375 C 62.71875 -43.695312 61.988281 -41.957031 60.53125 -40.625 C 59.070312 -39.300781 57.179688 -38.640625 54.859375 -38.640625 L 25.75 -38.640625 L 25.75 -14.8125 Z M 60.65625 -14.8125 "/></g></g></g><g fill="rgb(97.648621%, 96.469116%, 91.369629%)" fill-opacity="1"><g transform="translate(2582.470659, 2432.977354)"><g><path d="M 78.046875 -90.140625 C 80.097656 -90.140625 81.769531 -89.453125 83.0625 -88.078125 C 84.351562 -86.710938 85 -85 85 -82.9375 L 85 -7.859375 C 85 -5.617188 84.242188 -3.75 82.734375 -2.25 C 81.234375 -0.75 79.367188 0 77.140625 0 C 75.941406 0 74.757812 -0.191406 73.59375 -0.578125 C 72.4375 -0.960938 71.601562 -1.5 71.09375 -2.1875 L 23.828125 -62.203125 L 23.828125 -7.21875 C 23.828125 -5.15625 23.160156 -3.4375 21.828125 -2.0625 C 20.492188 -0.6875 18.753906 0 16.609375 0 C 14.546875 0 12.867188 -0.6875 11.578125 -2.0625 C 10.296875 -3.4375 9.65625 -5.15625 9.65625 -7.21875 L 9.65625 -82.296875 C 9.65625 -84.523438 10.40625 -86.390625 11.90625 -87.890625 C 13.414062 -89.390625 15.285156 -90.140625 17.515625 -90.140625 C 18.804688 -90.140625 20.070312 -89.878906 21.3125 -89.359375 C 22.5625 -88.847656 23.484375 -88.164062 24.078125 -87.3125 L 70.953125 -27.5625 L 70.953125 -82.9375 C 70.953125 -85 71.617188 -86.710938 72.953125 -88.078125 C 74.285156 -89.453125 75.984375 -90.140625 78.046875 -90.140625 Z M 78.046875 -90.140625 "/></g></g></g><g fill="rgb(97.648621%, 96.469116%, 91.369629%)" fill-opacity="1"><g transform="translate(2704.16605, 2432.977354)"><g><path d="M 48.296875 -90.140625 C 56.367188 -90.140625 63.300781 -88.144531 69.09375 -84.15625 C 74.882812 -80.164062 79.300781 -74.753906 82.34375 -67.921875 C 85.394531 -61.097656 86.921875 -53.484375 86.921875 -45.078125 C 86.921875 -36.660156 85.394531 -29.039062 82.34375 -22.21875 C 79.300781 -15.394531 74.882812 -9.984375 69.09375 -5.984375 C 63.300781 -1.992188 56.367188 0 48.296875 0 L 17.515625 0 C 15.285156 0 13.414062 -0.75 11.90625 -2.25 C 10.40625 -3.75 9.65625 -5.617188 9.65625 -7.859375 L 9.65625 -82.296875 C 9.65625 -84.523438 10.40625 -86.390625 11.90625 -87.890625 C 13.414062 -89.390625 15.285156 -90.140625 17.515625 -90.140625 Z M 47 -14.8125 C 54.726562 -14.8125 60.523438 -17.664062 64.390625 -23.375 C 68.253906 -29.082031 70.1875 -36.316406 70.1875 -45.078125 C 70.1875 -53.828125 68.234375 -61.054688 64.328125 -66.765625 C 60.421875 -72.484375 54.644531 -75.34375 47 -75.34375 L 25.75 -75.34375 L 25.75 -14.8125 Z M 47 -14.8125 "/></g></g></g><g fill="rgb(97.648621%, 96.469116%, 91.369629%)" fill-opacity="1"><g transform="translate(2823.285999, 2432.977354)"><g><path d="M 60.65625 -14.8125 C 62.882812 -14.8125 64.75 -14.054688 66.25 -12.546875 C 67.757812 -11.046875 68.515625 -9.3125 68.515625 -7.34375 C 68.515625 -5.195312 67.757812 -3.4375 66.25 -2.0625 C 64.75 -0.6875 62.882812 0 60.65625 0 L 17.515625 0 C 15.285156 0 13.414062 -0.75 11.90625 -2.25 C 10.40625 -3.75 9.65625 -5.617188 9.65625 -7.859375 L 9.65625 -82.296875 C 9.65625 -84.523438 10.40625 -86.390625 11.90625 -87.890625 C 13.414062 -89.390625 15.285156 -90.140625 17.515625 -90.140625 L 60.65625 -90.140625 C 62.882812 -90.140625 64.75 -89.429688 66.25 -88.015625 C 67.757812 -86.597656 68.515625 -84.773438 68.515625 -82.546875 C 68.515625 -80.398438 67.785156 -78.660156 66.328125 -77.328125 C 64.867188 -76.003906 62.976562 -75.34375 60.65625 -75.34375 L 25.75 -75.34375 L 25.75 -53.4375 L 54.859375 -53.4375 C 57.085938 -53.4375 58.953125 -52.726562 60.453125 -51.3125 C 61.960938 -49.894531 62.71875 -48.070312 62.71875 -45.84375 C 62.71875 -43.695312 61.988281 -41.957031 60.53125 -40.625 C 59.070312 -39.300781 57.179688 -38.640625 54.859375 -38.640625 L 25.75 -38.640625 L 25.75 -14.8125 Z M 60.65625 -14.8125 "/></g></g></g><g fill="rgb(97.648621%, 96.469116%, 91.369629%)" fill-opacity="1"><g transform="translate(2923.991503, 2432.977354)"><g><path d="M 48.296875 -90.140625 C 56.367188 -90.140625 63.300781 -88.144531 69.09375 -84.15625 C 74.882812 -80.164062 79.300781 -74.753906 82.34375 -67.921875 C 85.394531 -61.097656 86.921875 -53.484375 86.921875 -45.078125 C 86.921875 -36.660156 85.394531 -29.039062 82.34375 -22.21875 C 79.300781 -15.394531 74.882812 -9.984375 69.09375 -5.984375 C 63.300781 -1.992188 56.367188 0 48.296875 0 L 17.515625 0 C 15.285156 0 13.414062 -0.75 11.90625 -2.25 C 10.40625 -3.75 9.65625 -5.617188 9.65625 -7.859375 L 9.65625 -82.296875 C 9.65625 -84.523438 10.40625 -86.390625 11.90625 -87.890625 C 13.414062 -89.390625 15.285156 -90.140625 17.515625 -90.140625 Z M 47 -14.8125 C 54.726562 -14.8125 60.523438 -17.664062 64.390625 -23.375 C 68.253906 -29.082031 70.1875 -36.316406 70.1875 -45.078125 C 70.1875 -53.828125 68.234375 -61.054688 64.328125 -66.765625 C 60.421875 -72.484375 54.644531 -75.34375 47 -75.34375 L 25.75 -75.34375 L 25.75 -14.8125 Z M 47 -14.8125 "/></g></g></g><g fill="rgb(97.648621%, 96.469116%, 91.369629%)" fill-opacity="1"><g transform="translate(3043.111453, 2432.977354)"><g><path d="M 92.59375 -45.078125 C 92.59375 -36.578125 90.703125 -28.785156 86.921875 -21.703125 C 83.148438 -14.617188 77.9375 -9.015625 71.28125 -4.890625 C 64.625 -0.773438 57.132812 1.28125 48.8125 1.28125 C 40.476562 1.28125 32.984375 -0.773438 26.328125 -4.890625 C 19.679688 -9.015625 14.488281 -14.617188 10.75 -21.703125 C 7.019531 -28.785156 5.15625 -36.578125 5.15625 -45.078125 C 5.15625 -53.578125 7.019531 -61.367188 10.75 -68.453125 C 14.488281 -75.535156 19.679688 -81.132812 26.328125 -85.25 C 32.984375 -89.375 40.476562 -91.4375 48.8125 -91.4375 C 57.132812 -91.4375 64.625 -89.375 71.28125 -85.25 C 77.9375 -81.132812 83.148438 -75.535156 86.921875 -68.453125 C 90.703125 -61.367188 92.59375 -53.578125 92.59375 -45.078125 Z M 75.859375 -45.078125 C 75.859375 -50.828125 74.695312 -56.039062 72.375 -60.71875 C 70.050781 -65.394531 66.828125 -69.109375 62.703125 -71.859375 C 58.585938 -74.609375 53.957031 -75.984375 48.8125 -75.984375 C 43.570312 -75.984375 38.910156 -74.628906 34.828125 -71.921875 C 30.753906 -69.222656 27.578125 -65.507812 25.296875 -60.78125 C 23.023438 -56.0625 21.890625 -50.828125 21.890625 -45.078125 C 21.890625 -39.316406 23.023438 -34.078125 25.296875 -29.359375 C 27.578125 -24.640625 30.753906 -20.925781 34.828125 -18.21875 C 38.910156 -15.519531 43.570312 -14.171875 48.8125 -14.171875 C 53.957031 -14.171875 58.585938 -15.539062 62.703125 -18.28125 C 66.828125 -21.03125 70.050781 -24.742188 72.375 -29.421875 C 74.695312 -34.097656 75.859375 -39.316406 75.859375 -45.078125 Z M 75.859375 -45.078125 "/></g></g></g><g fill="rgb(97.648621%, 96.469116%, 91.369629%)" fill-opacity="1"><g transform="translate(3167.897355, 2432.977354)"><g><path d="M 80.359375 -12.625 C 81.472656 -11.9375 82.351562 -11.03125 83 -9.90625 C 83.644531 -8.789062 83.96875 -7.632812 83.96875 -6.4375 C 83.96875 -4.894531 83.453125 -3.476562 82.421875 -2.1875 C 81.128906 -0.644531 79.15625 0.125 76.5 0.125 C 74.4375 0.125 72.546875 -0.34375 70.828125 -1.28125 C 64.648438 -4.800781 61.5625 -11.972656 61.5625 -22.796875 C 61.5625 -25.890625 60.550781 -28.335938 58.53125 -30.140625 C 56.507812 -31.941406 53.613281 -32.84375 49.84375 -32.84375 L 25.75 -32.84375 L 25.75 -7.859375 C 25.75 -5.535156 25.125 -3.644531 23.875 -2.1875 C 22.632812 -0.726562 20.988281 0 18.9375 0 C 16.445312 0 14.273438 -0.75 12.421875 -2.25 C 10.578125 -3.75 9.65625 -5.617188 9.65625 -7.859375 L 9.65625 -82.296875 C 9.65625 -84.523438 10.40625 -86.390625 11.90625 -87.890625 C 13.414062 -89.390625 15.285156 -90.140625 17.515625 -90.140625 L 54.609375 -90.140625 C 59.066406 -90.140625 63.269531 -88.9375 67.21875 -86.53125 C 71.164062 -84.132812 74.320312 -80.832031 76.6875 -76.625 C 79.050781 -72.414062 80.234375 -67.691406 80.234375 -62.453125 C 80.234375 -58.160156 79.070312 -53.972656 76.75 -49.890625 C 74.4375 -45.816406 71.429688 -42.582031 67.734375 -40.1875 C 73.148438 -36.40625 76.113281 -31.335938 76.625 -24.984375 C 76.882812 -23.609375 77.015625 -22.273438 77.015625 -20.984375 C 77.359375 -18.328125 77.703125 -16.414062 78.046875 -15.25 C 78.390625 -14.09375 79.160156 -13.21875 80.359375 -12.625 Z M 53.953125 -46.109375 C 55.503906 -46.109375 57.007812 -46.835938 58.46875 -48.296875 C 59.925781 -49.753906 61.125 -51.707031 62.0625 -54.15625 C 63.007812 -56.601562 63.484375 -59.242188 63.484375 -62.078125 C 63.484375 -64.472656 63.007812 -66.679688 62.0625 -68.703125 C 61.125 -70.722656 59.925781 -72.332031 58.46875 -73.53125 C 57.007812 -74.738281 55.503906 -75.34375 53.953125 -75.34375 L 25.75 -75.34375 L 25.75 -46.109375 Z M 53.953125 -46.109375 "/></g></g></g><g clip-path="url(#id4)"><g clip-path="url(#id5)"><path fill="url(#id6)" d="M 1776.980469 1815.136719 L 1776.980469 296.421875 L 3682.777344 296.421875 L 3682.777344 1815.136719 Z M 1776.980469 1815.136719 " fill-rule="nonzero"/></g></g><g clip-path="url(#id7)"><g clip-path="url(#id8)"><path fill="url(#id9)" d="M 2868.757812 461.144531 L 2868.757812 264.511719 L 3065.382812 264.511719 L 3065.382812 461.144531 Z M 2868.757812 461.144531 " fill-rule="nonzero"/></g></g><g clip-path="url(#id10)"><g clip-path="url(#id11)"><path fill="url(#id12)" d="M 2819.601562 1876.371094 L 2819.601562 1681.464844 L 3014.5 1681.464844 L 3014.5 1876.371094 Z M 2819.601562 1876.371094 " fill-rule="nonzero"/></g></g><g clip-path="url(#id13)"><g clip-path="url(#id14)"><path fill="url(#id15)" d="M 1818.375 1346.84375 L 1818.375 1220.933594 L 1944.28125 1220.933594 L 1944.28125 1346.84375 Z M 1818.375 1346.84375 " fill-rule="nonzero"/></g></g><g fill="rgb(100%, 100%, 100%)" fill-opacity="1"><g transform="translate(2049.772971, 1574.802964)"><g><path d="M 1018.984375 -523.515625 C 1017.742188 -493.597656 1005.90625 -469.289062 983.46875 -450.59375 C 961.03125 -431.894531 934.851562 -422.546875 904.9375 -422.546875 L 287.9375 -422.546875 C 302.894531 -349.003906 337.171875 -291.351562 390.765625 -249.59375 C 444.367188 -207.84375 504.820312 -186.96875 572.125 -186.96875 C 623.226562 -186.96875 663.113281 -191.640625 691.78125 -200.984375 C 720.457031 -210.335938 743.207031 -220.3125 760.03125 -230.90625 C 776.863281 -241.5 788.394531 -248.664062 794.625 -252.40625 C 817.0625 -263.625 838.25 -269.234375 858.1875 -269.234375 C 884.363281 -269.234375 906.800781 -259.882812 925.5 -241.1875 C 944.195312 -222.488281 953.546875 -200.675781 953.546875 -175.75 C 953.546875 -142.09375 936.097656 -111.554688 901.203125 -84.140625 C 866.296875 -55.472656 819.550781 -31.164062 760.96875 -11.21875 C 702.382812 8.726562 643.175781 18.703125 583.34375 18.703125 C 478.644531 18.703125 387.34375 -3.109375 309.4375 -46.734375 C 231.53125 -90.367188 171.382812 -150.515625 129 -227.171875 C 86.625 -303.828125 65.4375 -390.144531 65.4375 -486.125 C 65.4375 -593.320312 87.875 -687.429688 132.75 -768.453125 C 177.625 -849.472656 236.832031 -911.484375 310.375 -954.484375 C 383.914062 -997.484375 462.441406 -1018.984375 545.953125 -1018.984375 C 628.222656 -1018.984375 705.816406 -996.546875 778.734375 -951.671875 C 851.648438 -906.804688 909.921875 -846.351562 953.546875 -770.3125 C 997.171875 -694.28125 1018.984375 -612.015625 1018.984375 -523.515625 Z M 545.953125 -813.328125 C 401.359375 -813.328125 315.972656 -745.390625 289.796875 -609.515625 L 779.671875 -609.515625 L 779.671875 -622.609375 C 774.679688 -674.960938 749.125 -719.835938 703 -757.234375 C 656.882812 -794.628906 604.535156 -813.328125 545.953125 -813.328125 Z M 545.953125 -813.328125 "/></g></g></g></svg>