<svg xmlns="http://www.w3.org/2000/svg" xmlns:xlink="http://www.w3.org/1999/xlink" width="6912" zoomAndPan="magnify" viewBox="0 0 5184 2592.000001" height="3456" preserveAspectRatio="xMidYMid meet" version="1.0"><defs><g><g id="id1"/><g id="id2"/><g id="id3"/></g><clipPath id="id4"><path d="M 1776 251 L 3680 251 L 3680 1771 L 1776 1771 Z M 1776 251 " clip-rule="nonzero"/></clipPath><clipPath id="id5"><path d="M 3162.699219 1576.988281 C 3079.917969 1579.574219 3001.449219 1563.191406 2930.738281 1532.144531 C 2871.242188 1506.273438 2801.394531 1527.835938 2767.765625 1583.886719 C 2698.78125 1695.132812 2575.472656 1770.160156 2434.914062 1770.160156 C 2343.511719 1770.160156 2259.007812 1738.25 2192.609375 1685.648438 C 2085.683594 1600.273438 2033.945312 1463.15625 2051.191406 1326.902344 L 2068.4375 1194.097656 C 2070.160156 1177.710938 2058.953125 1163.050781 2042.566406 1161.328125 C 1893.390625 1145.804688 1776.980469 1020.761719 1776.980469 867.261719 C 1776.980469 736.179688 1863.210938 624.074219 1981.34375 586.128906 C 1993.417969 582.679688 2002.902344 572.332031 2005.488281 560.257812 C 2048.605469 382.609375 2208.128906 251.53125 2398.699219 251.53125 C 2543.566406 251.53125 2670.324219 327.417969 2741.894531 442.113281 C 2791.910156 522.3125 2888.488281 560.257812 2978.167969 530.9375 C 3029.90625 513.691406 3085.953125 505.066406 3143.726562 505.066406 C 3436.910156 505.066406 3674.90625 740.492188 3679.21875 1031.972656 C 3685.253906 1323.453125 3453.292969 1567.503906 3162.699219 1576.988281 Z M 3162.699219 1576.988281 " clip-rule="nonzero"/></clipPath><linearGradient x1="-0.00000708536" gradientTransform="matrix(8.623024, 0, 0, -8.623678, 1776.979137, 1831.387517)" y1="95.099998" x2="220.991358" gradientUnits="userSpaceOnUse" y2="95.099998" xlink:type="simple" xlink:actuate="onLoad" id="id6" xlink:show="other"><stop stop-opacity="1" stop-color="rgb(21.998596%, 21.598816%, 22.399902%)" offset="0"/><stop stop-opacity="1" stop-color="rgb(22.290039%, 21.548462%, 22.322083%)" offset="0.00390625"/><stop stop-opacity="1" stop-color="rgb(22.581482%, 21.498108%, 22.245789%)" offset="0.0078125"/><stop stop-opacity="1" stop-color="rgb(22.872925%, 21.446228%, 22.167969%)" offset="0.0117188"/><stop stop-opacity="1" stop-color="rgb(23.164368%, 21.395874%, 22.091675%)" offset="0.015625"/><stop stop-opacity="1" stop-color="rgb(23.455811%, 21.343994%, 22.013855%)" offset="0.0195313"/><stop stop-opacity="1" stop-color="rgb(23.747253%, 21.29364%, 21.937561%)" offset="0.0234375"/><stop stop-opacity="1" stop-color="rgb(24.038696%, 21.243286%, 21.859741%)" offset="0.0273438"/><stop stop-opacity="1" stop-color="rgb(24.330139%, 21.192932%, 21.783447%)" offset="0.03125"/><stop stop-opacity="1" stop-color="rgb(24.621582%, 21.141052%, 21.705627%)" offset="0.0351563"/><stop stop-opacity="1" stop-color="rgb(24.913025%, 21.090698%, 21.629333%)" offset="0.0390625"/><stop stop-opacity="1" stop-color="rgb(25.202942%, 21.040344%, 21.551514%)" offset="0.0429688"/><stop stop-opacity="1" stop-color="rgb(25.494385%, 20.98999%, 21.47522%)" offset="0.046875"/><stop stop-opacity="1" stop-color="rgb(25.785828%, 20.93811%, 21.3974%)" offset="0.0507813"/><stop stop-opacity="1" stop-color="rgb(26.077271%, 20.887756%, 21.321106%)" offset="0.0546875"/><stop stop-opacity="1" stop-color="rgb(26.368713%, 20.835876%, 21.243286%)" offset="0.0585938"/><stop stop-opacity="1" stop-color="rgb(26.660156%, 20.785522%, 21.166992%)" offset="0.0625"/><stop stop-opacity="1" stop-color="rgb(26.951599%, 20.735168%, 21.089172%)" offset="0.0664062"/><stop stop-opacity="1" stop-color="rgb(27.243042%, 20.684814%, 21.012878%)" offset="0.0703125"/><stop stop-opacity="1" stop-color="rgb(27.534485%, 20.632935%, 20.935059%)" offset="0.0742188"/><stop stop-opacity="1" stop-color="rgb(27.825928%, 20.582581%, 20.858765%)" offset="0.078125"/><stop stop-opacity="1" stop-color="rgb(28.115845%, 20.530701%, 20.780945%)" offset="0.0820313"/><stop stop-opacity="1" stop-color="rgb(28.407288%, 20.480347%, 20.704651%)" offset="0.0859375"/><stop stop-opacity="1" stop-color="rgb(28.69873%, 20.429993%, 20.626831%)" offset="0.0898438"/><stop stop-opacity="1" stop-color="rgb(28.990173%, 20.379639%, 20.550537%)" offset="0.09375"/><stop stop-opacity="1" stop-color="rgb(29.281616%, 20.327759%, 20.472717%)" offset="0.0976563"/><stop stop-opacity="1" stop-color="rgb(29.573059%, 20.277405%, 20.396423%)" offset="0.101563"/><stop stop-opacity="1" stop-color="rgb(29.864502%, 20.227051%, 20.318604%)" offset="0.105469"/><stop stop-opacity="1" stop-color="rgb(30.155945%, 20.176697%, 20.24231%)" offset="0.109375"/><stop stop-opacity="1" stop-color="rgb(30.447388%, 20.124817%, 20.16449%)" offset="0.113281"/><stop stop-opacity="1" stop-color="rgb(30.738831%, 20.074463%, 20.088196%)" offset="0.117188"/><stop stop-opacity="1" stop-color="rgb(31.030273%, 20.022583%, 20.010376%)" offset="0.121094"/><stop stop-opacity="1" stop-color="rgb(31.321716%, 19.972229%, 19.934082%)" offset="0.125"/><stop stop-opacity="1" stop-color="rgb(31.611633%, 19.921875%, 19.856262%)" offset="0.128906"/><stop stop-opacity="1" stop-color="rgb(31.903076%, 19.871521%, 19.779968%)" offset="0.132813"/><stop stop-opacity="1" stop-color="rgb(32.194519%, 19.819641%, 19.702148%)" offset="0.136719"/><stop stop-opacity="1" stop-color="rgb(32.485962%, 19.769287%, 19.625854%)" offset="0.140625"/><stop stop-opacity="1" stop-color="rgb(32.777405%, 19.717407%, 19.548035%)" offset="0.144531"/><stop stop-opacity="1" stop-color="rgb(33.068848%, 19.667053%, 19.471741%)" offset="0.148438"/><stop stop-opacity="1" stop-color="rgb(33.360291%, 19.616699%, 19.393921%)" offset="0.152344"/><stop stop-opacity="1" stop-color="rgb(33.651733%, 19.566345%, 19.317627%)" offset="0.15625"/><stop stop-opacity="1" stop-color="rgb(33.943176%, 19.514465%, 19.239807%)" offset="0.160156"/><stop stop-opacity="1" stop-color="rgb(34.234619%, 19.464111%, 19.163513%)" offset="0.164063"/><stop stop-opacity="1" stop-color="rgb(34.526062%, 19.412231%, 19.085693%)" offset="0.167969"/><stop stop-opacity="1" stop-color="rgb(34.817505%, 19.361877%, 19.009399%)" offset="0.171875"/><stop stop-opacity="1" stop-color="rgb(35.107422%, 19.311523%, 18.93158%)" offset="0.175781"/><stop stop-opacity="1" stop-color="rgb(35.398865%, 19.261169%, 18.855286%)" offset="0.179688"/><stop stop-opacity="1" stop-color="rgb(35.690308%, 19.20929%, 18.777466%)" offset="0.183594"/><stop stop-opacity="1" stop-color="rgb(35.98175%, 19.158936%, 18.701172%)" offset="0.1875"/><stop stop-opacity="1" stop-color="rgb(36.273193%, 19.108582%, 18.623352%)" offset="0.191406"/><stop stop-opacity="1" stop-color="rgb(36.564636%, 19.058228%, 18.547058%)" offset="0.195313"/><stop stop-opacity="1" stop-color="rgb(36.856079%, 19.006348%, 18.469238%)" offset="0.199219"/><stop stop-opacity="1" stop-color="rgb(37.147522%, 18.955994%, 18.392944%)" offset="0.203125"/><stop stop-opacity="1" stop-color="rgb(37.438965%, 18.904114%, 18.31665%)" offset="0.207031"/><stop stop-opacity="1" stop-color="rgb(37.730408%, 18.85376%, 18.240356%)" offset="0.210938"/><stop stop-opacity="1" stop-color="rgb(38.020325%, 18.803406%, 18.162537%)" offset="0.214844"/><stop stop-opacity="1" stop-color="rgb(38.311768%, 18.753052%, 18.086243%)" offset="0.21875"/><stop stop-opacity="1" stop-color="rgb(38.60321%, 18.701172%, 18.008423%)" offset="0.222656"/><stop stop-opacity="1" stop-color="rgb(38.894653%, 18.650818%, 17.932129%)" offset="0.226563"/><stop stop-opacity="1" stop-color="rgb(39.186096%, 18.598938%, 17.854309%)" offset="0.230469"/><stop stop-opacity="1" stop-color="rgb(39.477539%, 18.548584%, 17.778015%)" offset="0.234375"/><stop stop-opacity="1" stop-color="rgb(39.768982%, 18.49823%, 17.700195%)" offset="0.238281"/><stop stop-opacity="1" stop-color="rgb(40.060425%, 18.447876%, 17.623901%)" offset="0.242188"/><stop stop-opacity="1" stop-color="rgb(40.351868%, 18.395996%, 17.546082%)" offset="0.246094"/><stop stop-opacity="1" stop-color="rgb(40.643311%, 18.345642%, 17.469788%)" offset="0.25"/><stop stop-opacity="1" stop-color="rgb(40.934753%, 18.295288%, 17.391968%)" offset="0.253906"/><stop stop-opacity="1" stop-color="rgb(41.226196%, 18.244934%, 17.315674%)" offset="0.257812"/><stop stop-opacity="1" stop-color="rgb(41.516113%, 18.193054%, 17.237854%)" offset="0.261719"/><stop stop-opacity="1" stop-color="rgb(41.807556%, 18.1427%, 17.16156%)" offset="0.265625"/><stop stop-opacity="1" stop-color="rgb(42.098999%, 18.09082%, 17.08374%)" offset="0.269531"/><stop stop-opacity="1" stop-color="rgb(42.390442%, 18.040466%, 17.007446%)" offset="0.273438"/><stop stop-opacity="1" stop-color="rgb(42.681885%, 17.990112%, 16.929626%)" offset="0.277344"/><stop stop-opacity="1" stop-color="rgb(42.973328%, 17.939758%, 16.853333%)" offset="0.28125"/><stop stop-opacity="1" stop-color="rgb(43.264771%, 17.887878%, 16.775513%)" offset="0.285156"/><stop stop-opacity="1" stop-color="rgb(43.556213%, 17.837524%, 16.699219%)" offset="0.289062"/><stop stop-opacity="1" stop-color="rgb(43.847656%, 17.785645%, 16.621399%)" offset="0.292969"/><stop stop-opacity="1" stop-color="rgb(44.139099%, 17.735291%, 16.545105%)" offset="0.296875"/><stop stop-opacity="1" stop-color="rgb(44.429016%, 17.684937%, 16.467285%)" offset="0.300781"/><stop stop-opacity="1" stop-color="rgb(44.720459%, 17.634583%, 16.390991%)" offset="0.304688"/><stop stop-opacity="1" stop-color="rgb(45.011902%, 17.582703%, 16.313171%)" offset="0.308594"/><stop stop-opacity="1" stop-color="rgb(45.303345%, 17.532349%, 16.236877%)" offset="0.3125"/><stop stop-opacity="1" stop-color="rgb(45.594788%, 17.481995%, 16.159058%)" offset="0.316406"/><stop stop-opacity="1" stop-color="rgb(45.88623%, 17.431641%, 16.082764%)" offset="0.320312"/><stop stop-opacity="1" stop-color="rgb(46.177673%, 17.379761%, 16.004944%)" offset="0.324219"/><stop stop-opacity="1" stop-color="rgb(46.469116%, 17.329407%, 15.92865%)" offset="0.328125"/><stop stop-opacity="1" stop-color="rgb(46.760559%, 17.277527%, 15.85083%)" offset="0.332031"/><stop stop-opacity="1" stop-color="rgb(47.052002%, 17.227173%, 15.774536%)" offset="0.335938"/><stop stop-opacity="1" stop-color="rgb(47.343445%, 17.176819%, 15.696716%)" offset="0.339844"/><stop stop-opacity="1" stop-color="rgb(47.634888%, 17.126465%, 15.620422%)" offset="0.34375"/><stop stop-opacity="1" stop-color="rgb(47.924805%, 17.074585%, 15.542603%)" offset="0.347656"/><stop stop-opacity="1" stop-color="rgb(48.216248%, 17.024231%, 15.466309%)" offset="0.351562"/><stop stop-opacity="1" stop-color="rgb(48.50769%, 16.972351%, 15.388489%)" offset="0.355469"/><stop stop-opacity="1" stop-color="rgb(48.799133%, 16.921997%, 15.312195%)" offset="0.359375"/><stop stop-opacity="1" stop-color="rgb(49.090576%, 16.871643%, 15.234375%)" offset="0.363281"/><stop stop-opacity="1" stop-color="rgb(49.382019%, 16.821289%, 15.158081%)" offset="0.367188"/><stop stop-opacity="1" stop-color="rgb(49.673462%, 16.769409%, 15.080261%)" offset="0.371094"/><stop stop-opacity="1" stop-color="rgb(49.964905%, 16.719055%, 15.003967%)" offset="0.375"/><stop stop-opacity="1" stop-color="rgb(50.256348%, 16.668701%, 14.926147%)" offset="0.378906"/><stop stop-opacity="1" stop-color="rgb(50.547791%, 16.618347%, 14.849854%)" offset="0.382812"/><stop stop-opacity="1" stop-color="rgb(50.839233%, 16.566467%, 14.772034%)" offset="0.386719"/><stop stop-opacity="1" stop-color="rgb(51.130676%, 16.516113%, 14.69574%)" offset="0.390625"/><stop stop-opacity="1" stop-color="rgb(51.420593%, 16.464233%, 14.61792%)" offset="0.394531"/><stop stop-opacity="1" stop-color="rgb(51.712036%, 16.413879%, 14.541626%)" offset="0.398438"/><stop stop-opacity="1" stop-color="rgb(52.003479%, 16.363525%, 14.463806%)" offset="0.402344"/><stop stop-opacity="1" stop-color="rgb(52.294922%, 16.313171%, 14.387512%)" offset="0.40625"/><stop stop-opacity="1" stop-color="rgb(52.586365%, 16.261292%, 14.309692%)" offset="0.410156"/><stop stop-opacity="1" stop-color="rgb(52.877808%, 16.210938%, 14.233398%)" offset="0.414062"/><stop stop-opacity="1" stop-color="rgb(53.16925%, 16.159058%, 14.155579%)" offset="0.417969"/><stop stop-opacity="1" stop-color="rgb(53.460693%, 16.108704%, 14.079285%)" offset="0.421875"/><stop stop-opacity="1" stop-color="rgb(53.752136%, 16.05835%, 14.001465%)" offset="0.425781"/><stop stop-opacity="1" stop-color="rgb(54.043579%, 16.007996%, 13.925171%)" offset="0.429688"/><stop stop-opacity="1" stop-color="rgb(54.333496%, 15.956116%, 13.848877%)" offset="0.433594"/><stop stop-opacity="1" stop-color="rgb(54.624939%, 15.905762%, 13.772583%)" offset="0.4375"/><stop stop-opacity="1" stop-color="rgb(54.916382%, 15.855408%, 13.694763%)" offset="0.441406"/><stop stop-opacity="1" stop-color="rgb(55.207825%, 15.805054%, 13.618469%)" offset="0.445312"/><stop stop-opacity="1" stop-color="rgb(55.499268%, 15.753174%, 13.540649%)" offset="0.449219"/><stop stop-opacity="1" stop-color="rgb(55.79071%, 15.70282%, 13.464355%)" offset="0.453125"/><stop stop-opacity="1" stop-color="rgb(56.082153%, 15.65094%, 13.386536%)" offset="0.457031"/><stop stop-opacity="1" stop-color="rgb(56.373596%, 15.600586%, 13.310242%)" offset="0.460938"/><stop stop-opacity="1" stop-color="rgb(56.665039%, 15.550232%, 13.232422%)" offset="0.464844"/><stop stop-opacity="1" stop-color="rgb(56.956482%, 15.499878%, 13.156128%)" offset="0.46875"/><stop stop-opacity="1" stop-color="rgb(57.247925%, 15.447998%, 13.078308%)" offset="0.472656"/><stop stop-opacity="1" stop-color="rgb(57.539368%, 15.397644%, 13.002014%)" offset="0.476562"/><stop stop-opacity="1" stop-color="rgb(57.829285%, 15.345764%, 12.924194%)" offset="0.480469"/><stop stop-opacity="1" stop-color="rgb(58.120728%, 15.29541%, 12.8479%)" offset="0.484375"/><stop stop-opacity="1" stop-color="rgb(58.41217%, 15.245056%, 12.770081%)" offset="0.488281"/><stop stop-opacity="1" stop-color="rgb(58.703613%, 15.194702%, 12.693787%)" offset="0.492188"/><stop stop-opacity="1" stop-color="rgb(58.995056%, 15.142822%, 12.615967%)" offset="0.496094"/><stop stop-opacity="1" stop-color="rgb(59.286499%, 15.092468%, 12.539673%)" offset="0.5"/><stop stop-opacity="1" stop-color="rgb(59.577942%, 15.042114%, 12.461853%)" offset="0.503906"/><stop stop-opacity="1" stop-color="rgb(59.869385%, 14.99176%, 12.385559%)" offset="0.507812"/><stop stop-opacity="1" stop-color="rgb(60.160828%, 14.93988%, 12.307739%)" offset="0.511719"/><stop stop-opacity="1" stop-color="rgb(60.452271%, 14.889526%, 12.231445%)" offset="0.515625"/><stop stop-opacity="1" stop-color="rgb(60.743713%, 14.837646%, 12.153625%)" offset="0.519531"/><stop stop-opacity="1" stop-color="rgb(61.035156%, 14.787292%, 12.077332%)" offset="0.523437"/><stop stop-opacity="1" stop-color="rgb(61.325073%, 14.736938%, 11.999512%)" offset="0.527344"/><stop stop-opacity="1" stop-color="rgb(61.616516%, 14.686584%, 11.923218%)" offset="0.53125"/><stop stop-opacity="1" stop-color="rgb(61.907959%, 14.634705%, 11.845398%)" offset="0.535156"/><stop stop-opacity="1" stop-color="rgb(62.199402%, 14.584351%, 11.769104%)" offset="0.539063"/><stop stop-opacity="1" stop-color="rgb(62.490845%, 14.532471%, 11.691284%)" offset="0.542969"/><stop stop-opacity="1" stop-color="rgb(62.782288%, 14.482117%, 11.61499%)" offset="0.546875"/><stop stop-opacity="1" stop-color="rgb(63.07373%, 14.431763%, 11.53717%)" offset="0.550781"/><stop stop-opacity="1" stop-color="rgb(63.365173%, 14.381409%, 11.460876%)" offset="0.554688"/><stop stop-opacity="1" stop-color="rgb(63.656616%, 14.329529%, 11.383057%)" offset="0.558594"/><stop stop-opacity="1" stop-color="rgb(63.948059%, 14.279175%, 11.306763%)" offset="0.5625"/><stop stop-opacity="1" stop-color="rgb(64.237976%, 14.228821%, 11.228943%)" offset="0.566406"/><stop stop-opacity="1" stop-color="rgb(64.529419%, 14.178467%, 11.152649%)" offset="0.570312"/><stop stop-opacity="1" stop-color="rgb(64.820862%, 14.126587%, 11.074829%)" offset="0.574219"/><stop stop-opacity="1" stop-color="rgb(65.112305%, 14.076233%, 10.998535%)" offset="0.578125"/><stop stop-opacity="1" stop-color="rgb(65.403748%, 14.024353%, 10.920715%)" offset="0.582031"/><stop stop-opacity="1" stop-color="rgb(65.69519%, 13.973999%, 10.844421%)" offset="0.585937"/><stop stop-opacity="1" stop-color="rgb(65.986633%, 13.923645%, 10.766602%)" offset="0.589844"/><stop stop-opacity="1" stop-color="rgb(66.278076%, 13.873291%, 10.690308%)" offset="0.59375"/><stop stop-opacity="1" stop-color="rgb(66.569519%, 13.821411%, 10.612488%)" offset="0.597656"/><stop stop-opacity="1" stop-color="rgb(66.860962%, 13.771057%, 10.536194%)" offset="0.601563"/><stop stop-opacity="1" stop-color="rgb(67.152405%, 13.719177%, 10.458374%)" offset="0.605469"/><stop stop-opacity="1" stop-color="rgb(67.443848%, 13.668823%, 10.38208%)" offset="0.609375"/><stop stop-opacity="1" stop-color="rgb(67.733765%, 13.618469%, 10.30426%)" offset="0.613281"/><stop stop-opacity="1" stop-color="rgb(68.025208%, 13.568115%, 10.227966%)" offset="0.617188"/><stop stop-opacity="1" stop-color="rgb(68.31665%, 13.516235%, 10.150146%)" offset="0.621094"/><stop stop-opacity="1" stop-color="rgb(68.608093%, 13.465881%, 10.073853%)" offset="0.625"/><stop stop-opacity="1" stop-color="rgb(68.899536%, 13.415527%, 9.996033%)" offset="0.628906"/><stop stop-opacity="1" stop-color="rgb(69.190979%, 13.365173%, 9.919739%)" offset="0.632812"/><stop stop-opacity="1" stop-color="rgb(69.482422%, 13.313293%, 9.841919%)" offset="0.636719"/><stop stop-opacity="1" stop-color="rgb(69.773865%, 13.262939%, 9.765625%)" offset="0.640625"/><stop stop-opacity="1" stop-color="rgb(70.065308%, 13.21106%, 9.687805%)" offset="0.644531"/><stop stop-opacity="1" stop-color="rgb(70.35675%, 13.160706%, 9.611511%)" offset="0.648437"/><stop stop-opacity="1" stop-color="rgb(70.648193%, 13.110352%, 9.533691%)" offset="0.652344"/><stop stop-opacity="1" stop-color="rgb(70.939636%, 13.059998%, 9.457397%)" offset="0.65625"/><stop stop-opacity="1" stop-color="rgb(71.229553%, 13.008118%, 9.381104%)" offset="0.660156"/><stop stop-opacity="1" stop-color="rgb(71.520996%, 12.957764%, 9.30481%)" offset="0.664063"/><stop stop-opacity="1" stop-color="rgb(71.812439%, 12.905884%, 9.22699%)" offset="0.667969"/><stop stop-opacity="1" stop-color="rgb(72.103882%, 12.85553%, 9.150696%)" offset="0.671875"/><stop stop-opacity="1" stop-color="rgb(72.395325%, 12.805176%, 9.072876%)" offset="0.675781"/><stop stop-opacity="1" stop-color="rgb(72.686768%, 12.754822%, 8.996582%)" offset="0.679688"/><stop stop-opacity="1" stop-color="rgb(72.97821%, 12.702942%, 8.918762%)" offset="0.683594"/><stop stop-opacity="1" stop-color="rgb(73.269653%, 12.652588%, 8.842468%)" offset="0.6875"/><stop stop-opacity="1" stop-color="rgb(73.561096%, 12.600708%, 8.764648%)" offset="0.691406"/><stop stop-opacity="1" stop-color="rgb(73.852539%, 12.550354%, 8.688354%)" offset="0.695312"/><stop stop-opacity="1" stop-color="rgb(74.142456%, 12.5%, 8.610535%)" offset="0.699219"/><stop stop-opacity="1" stop-color="rgb(74.433899%, 12.449646%, 8.534241%)" offset="0.703125"/><stop stop-opacity="1" stop-color="rgb(74.725342%, 12.397766%, 8.456421%)" offset="0.707031"/><stop stop-opacity="1" stop-color="rgb(75.016785%, 12.347412%, 8.380127%)" offset="0.710937"/><stop stop-opacity="1" stop-color="rgb(75.308228%, 12.297058%, 8.302307%)" offset="0.714844"/><stop stop-opacity="1" stop-color="rgb(75.59967%, 12.246704%, 8.226013%)" offset="0.71875"/><stop stop-opacity="1" stop-color="rgb(75.891113%, 12.194824%, 8.148193%)" offset="0.722656"/><stop stop-opacity="1" stop-color="rgb(76.182556%, 12.14447%, 8.071899%)" offset="0.726563"/><stop stop-opacity="1" stop-color="rgb(76.473999%, 12.09259%, 7.99408%)" offset="0.730469"/><stop stop-opacity="1" stop-color="rgb(76.765442%, 12.042236%, 7.917786%)" offset="0.734375"/><stop stop-opacity="1" stop-color="rgb(77.056885%, 11.991882%, 7.839966%)" offset="0.738281"/><stop stop-opacity="1" stop-color="rgb(77.348328%, 11.941528%, 7.763672%)" offset="0.742188"/><stop stop-opacity="1" stop-color="rgb(77.638245%, 11.889648%, 7.685852%)" offset="0.746094"/><stop stop-opacity="1" stop-color="rgb(77.929688%, 11.839294%, 7.609558%)" offset="0.75"/><stop stop-opacity="1" stop-color="rgb(78.22113%, 11.787415%, 7.531738%)" offset="0.753906"/><stop stop-opacity="1" stop-color="rgb(78.512573%, 11.737061%, 7.455444%)" offset="0.757812"/><stop stop-opacity="1" stop-color="rgb(78.804016%, 11.686707%, 7.377625%)" offset="0.761719"/><stop stop-opacity="1" stop-color="rgb(79.095459%, 11.636353%, 7.301331%)" offset="0.765625"/><stop stop-opacity="1" stop-color="rgb(79.386902%, 11.584473%, 7.223511%)" offset="0.769531"/><stop stop-opacity="1" stop-color="rgb(79.678345%, 11.534119%, 7.147217%)" offset="0.773437"/><stop stop-opacity="1" stop-color="rgb(79.969788%, 11.483765%, 7.069397%)" offset="0.777344"/><stop stop-opacity="1" stop-color="rgb(80.26123%, 11.433411%, 6.993103%)" offset="0.78125"/><stop stop-opacity="1" stop-color="rgb(80.551147%, 11.381531%, 6.915283%)" offset="0.785156"/><stop stop-opacity="1" stop-color="rgb(80.84259%, 11.331177%, 6.838989%)" offset="0.789063"/><stop stop-opacity="1" stop-color="rgb(81.134033%, 11.279297%, 6.761169%)" offset="0.792969"/><stop stop-opacity="1" stop-color="rgb(81.425476%, 11.228943%, 6.684875%)" offset="0.796875"/><stop stop-opacity="1" stop-color="rgb(81.716919%, 11.178589%, 6.607056%)" offset="0.800781"/><stop stop-opacity="1" stop-color="rgb(82.008362%, 11.128235%, 6.530762%)" offset="0.804688"/><stop stop-opacity="1" stop-color="rgb(82.299805%, 11.076355%, 6.452942%)" offset="0.808594"/><stop stop-opacity="1" stop-color="rgb(82.591248%, 11.026001%, 6.376648%)" offset="0.8125"/><stop stop-opacity="1" stop-color="rgb(82.88269%, 10.974121%, 6.298828%)" offset="0.816406"/><stop stop-opacity="1" stop-color="rgb(83.174133%, 10.923767%, 6.222534%)" offset="0.820312"/><stop stop-opacity="1" stop-color="rgb(83.465576%, 10.873413%, 6.144714%)" offset="0.824219"/><stop stop-opacity="1" stop-color="rgb(83.757019%, 10.823059%, 6.06842%)" offset="0.828125"/><stop stop-opacity="1" stop-color="rgb(84.046936%, 10.771179%, 5.990601%)" offset="0.832031"/><stop stop-opacity="1" stop-color="rgb(84.338379%, 10.720825%, 5.914307%)" offset="0.835937"/><stop stop-opacity="1" stop-color="rgb(84.629822%, 10.670471%, 5.836487%)" offset="0.839844"/><stop stop-opacity="1" stop-color="rgb(84.921265%, 10.620117%, 5.760193%)" offset="0.84375"/><stop stop-opacity="1" stop-color="rgb(85.212708%, 10.568237%, 5.682373%)" offset="0.847656"/><stop stop-opacity="1" stop-color="rgb(85.50415%, 10.517883%, 5.606079%)" offset="0.851563"/><stop stop-opacity="1" stop-color="rgb(85.795593%, 10.466003%, 5.528259%)" offset="0.855469"/><stop stop-opacity="1" stop-color="rgb(86.087036%, 10.415649%, 5.451965%)" offset="0.859375"/><stop stop-opacity="1" stop-color="rgb(86.378479%, 10.365295%, 5.374146%)" offset="0.863281"/><stop stop-opacity="1" stop-color="rgb(86.669922%, 10.314941%, 5.297852%)" offset="0.867188"/><stop stop-opacity="1" stop-color="rgb(86.961365%, 10.263062%, 5.220032%)" offset="0.871094"/><stop stop-opacity="1" stop-color="rgb(87.252808%, 10.212708%, 5.143738%)" offset="0.875"/><stop stop-opacity="1" stop-color="rgb(87.542725%, 10.160828%, 5.067444%)" offset="0.878906"/><stop stop-opacity="1" stop-color="rgb(87.834167%, 10.110474%, 4.99115%)" offset="0.882812"/><stop stop-opacity="1" stop-color="rgb(88.12561%, 10.06012%, 4.91333%)" offset="0.886719"/><stop stop-opacity="1" stop-color="rgb(88.417053%, 10.009766%, 4.837036%)" offset="0.890625"/><stop stop-opacity="1" stop-color="rgb(88.708496%, 9.957886%, 4.759216%)" offset="0.894531"/><stop stop-opacity="1" stop-color="rgb(88.999939%, 9.907532%, 4.682922%)" offset="0.898437"/><stop stop-opacity="1" stop-color="rgb(89.291382%, 9.857178%, 4.605103%)" offset="0.902344"/><stop stop-opacity="1" stop-color="rgb(89.582825%, 9.806824%, 4.528809%)" offset="0.90625"/><stop stop-opacity="1" stop-color="rgb(89.874268%, 9.754944%, 4.450989%)" offset="0.910156"/><stop stop-opacity="1" stop-color="rgb(90.16571%, 9.70459%, 4.374695%)" offset="0.914063"/><stop stop-opacity="1" stop-color="rgb(90.455627%, 9.65271%, 4.296875%)" offset="0.917969"/><stop stop-opacity="1" stop-color="rgb(90.74707%, 9.602356%, 4.220581%)" offset="0.921875"/><stop stop-opacity="1" stop-color="rgb(91.038513%, 9.552002%, 4.142761%)" offset="0.925781"/><stop stop-opacity="1" stop-color="rgb(91.329956%, 9.501648%, 4.066467%)" offset="0.929688"/><stop stop-opacity="1" stop-color="rgb(91.621399%, 9.449768%, 3.988647%)" offset="0.933594"/><stop stop-opacity="1" stop-color="rgb(91.912842%, 9.399414%, 3.912354%)" offset="0.9375"/><stop stop-opacity="1" stop-color="rgb(92.204285%, 9.347534%, 3.834534%)" offset="0.941406"/><stop stop-opacity="1" stop-color="rgb(92.495728%, 9.29718%, 3.75824%)" offset="0.945312"/><stop stop-opacity="1" stop-color="rgb(92.78717%, 9.246826%, 3.68042%)" offset="0.949219"/><stop stop-opacity="1" stop-color="rgb(93.078613%, 9.196472%, 3.604126%)" offset="0.953125"/><stop stop-opacity="1" stop-color="rgb(93.370056%, 9.144592%, 3.526306%)" offset="0.957031"/><stop stop-opacity="1" stop-color="rgb(93.661499%, 9.094238%, 3.450012%)" offset="0.960937"/><stop stop-opacity="1" stop-color="rgb(93.951416%, 9.043884%, 3.372192%)" offset="0.964844"/><stop stop-opacity="1" stop-color="rgb(94.242859%, 8.99353%, 3.295898%)" offset="0.96875"/><stop stop-opacity="1" stop-color="rgb(94.534302%, 8.94165%, 3.218079%)" offset="0.972656"/><stop stop-opacity="1" stop-color="rgb(94.825745%, 8.891296%, 3.141785%)" offset="0.976563"/><stop stop-opacity="1" stop-color="rgb(95.117188%, 8.839417%, 3.063965%)" offset="0.980469"/><stop stop-opacity="1" stop-color="rgb(95.40863%, 8.789062%, 2.987671%)" offset="0.984375"/><stop stop-opacity="1" stop-color="rgb(95.700073%, 8.738708%, 2.909851%)" offset="0.988281"/><stop stop-opacity="1" stop-color="rgb(95.991516%, 8.688354%, 2.833557%)" offset="0.992188"/><stop stop-opacity="1" stop-color="rgb(96.244812%, 8.644104%, 2.766418%)" offset="0.996094"/><stop stop-opacity="1" stop-color="rgb(96.499634%, 8.599854%, 2.69928%)" offset="1"/></linearGradient><clipPath id="id7"><path d="M 2868 219 L 3066 219 L 3066 417 L 2868 417 Z M 2868 219 " clip-rule="nonzero"/></clipPath><clipPath id="id8"><path d="M 3065.257812 317.933594 C 3065.257812 316.324219 3065.21875 314.714844 3065.140625 313.109375 C 3065.0625 311.5 3064.941406 309.898438 3064.785156 308.296875 C 3064.628906 306.695312 3064.429688 305.097656 3064.195312 303.507812 C 3063.957031 301.914062 3063.683594 300.332031 3063.371094 298.753906 C 3063.054688 297.175781 3062.703125 295.605469 3062.3125 294.042969 C 3061.921875 292.484375 3061.492188 290.933594 3061.027344 289.394531 C 3060.558594 287.855469 3060.054688 286.328125 3059.511719 284.8125 C 3058.96875 283.296875 3058.390625 281.796875 3057.777344 280.3125 C 3057.160156 278.824219 3056.507812 277.355469 3055.820312 275.898438 C 3055.132812 274.445312 3054.410156 273.007812 3053.652344 271.589844 C 3052.894531 270.171875 3052.101562 268.769531 3051.273438 267.390625 C 3050.445312 266.011719 3049.585938 264.652344 3048.691406 263.3125 C 3047.796875 261.976562 3046.871094 260.660156 3045.914062 259.367188 C 3044.953125 258.078125 3043.964844 256.808594 3042.945312 255.566406 C 3041.925781 254.320312 3040.875 253.101562 3039.792969 251.910156 C 3038.714844 250.71875 3037.605469 249.554688 3036.464844 248.417969 C 3035.328125 247.277344 3034.164062 246.167969 3032.972656 245.089844 C 3031.78125 244.007812 3030.5625 242.957031 3029.320312 241.9375 C 3028.074219 240.917969 3026.808594 239.925781 3025.515625 238.96875 C 3024.222656 238.011719 3022.90625 237.085938 3021.570312 236.191406 C 3020.230469 235.296875 3018.875 234.4375 3017.492188 233.609375 C 3016.113281 232.78125 3014.714844 231.988281 3013.296875 231.230469 C 3011.875 230.472656 3010.441406 229.75 3008.984375 229.0625 C 3007.53125 228.375 3006.0625 227.722656 3004.574219 227.105469 C 3003.089844 226.488281 3001.589844 225.910156 3000.074219 225.367188 C 2998.558594 224.828125 2997.03125 224.324219 2995.492188 223.855469 C 2993.953125 223.386719 2992.402344 222.960938 2990.839844 222.566406 C 2989.28125 222.175781 2987.710938 221.824219 2986.132812 221.511719 C 2984.554688 221.199219 2982.972656 220.921875 2981.378906 220.6875 C 2979.789062 220.449219 2978.191406 220.253906 2976.589844 220.09375 C 2974.992188 219.9375 2973.386719 219.820312 2971.78125 219.742188 C 2970.171875 219.660156 2968.566406 219.621094 2966.957031 219.621094 C 2965.347656 219.621094 2963.738281 219.660156 2962.132812 219.742188 C 2960.527344 219.820312 2958.921875 219.9375 2957.320312 220.09375 C 2955.71875 220.253906 2954.125 220.449219 2952.53125 220.6875 C 2950.941406 220.921875 2949.355469 221.199219 2947.777344 221.511719 C 2946.199219 221.824219 2944.632812 222.175781 2943.070312 222.570312 C 2941.511719 222.960938 2939.960938 223.386719 2938.421875 223.855469 C 2936.882812 224.324219 2935.355469 224.828125 2933.839844 225.367188 C 2932.324219 225.910156 2930.824219 226.488281 2929.335938 227.105469 C 2927.851562 227.722656 2926.378906 228.375 2924.925781 229.0625 C 2923.472656 229.75 2922.035156 230.472656 2920.617188 231.230469 C 2919.199219 231.988281 2917.796875 232.78125 2916.417969 233.609375 C 2915.039062 234.4375 2913.679688 235.296875 2912.34375 236.191406 C 2911.003906 237.085938 2909.691406 238.011719 2908.398438 238.96875 C 2907.105469 239.925781 2905.835938 240.917969 2904.59375 241.9375 C 2903.351562 242.957031 2902.132812 244.007812 2900.941406 245.089844 C 2899.75 246.167969 2898.582031 247.277344 2897.445312 248.417969 C 2896.308594 249.554688 2895.199219 250.71875 2894.117188 251.910156 C 2893.039062 253.101562 2891.988281 254.320312 2890.96875 255.566406 C 2889.945312 256.808594 2888.957031 258.078125 2888 259.367188 C 2887.039062 260.660156 2886.113281 261.976562 2885.21875 263.3125 C 2884.328125 264.652344 2883.464844 266.011719 2882.640625 267.390625 C 2881.8125 268.769531 2881.019531 270.171875 2880.261719 271.589844 C 2879.503906 273.007812 2878.78125 274.445312 2878.089844 275.898438 C 2877.402344 277.355469 2876.753906 278.824219 2876.136719 280.3125 C 2875.519531 281.796875 2874.941406 283.296875 2874.398438 284.8125 C 2873.859375 286.328125 2873.355469 287.855469 2872.886719 289.394531 C 2872.417969 290.933594 2871.992188 292.484375 2871.601562 294.042969 C 2871.207031 295.605469 2870.855469 297.175781 2870.542969 298.753906 C 2870.230469 300.332031 2869.953125 301.914062 2869.71875 303.507812 C 2869.480469 305.097656 2869.285156 306.695312 2869.128906 308.296875 C 2868.96875 309.898438 2868.851562 311.5 2868.773438 313.109375 C 2868.691406 314.714844 2868.652344 316.324219 2868.652344 317.933594 C 2868.652344 319.539062 2868.691406 321.148438 2868.773438 322.757812 C 2868.851562 324.363281 2868.96875 325.96875 2869.128906 327.566406 C 2869.285156 329.167969 2869.480469 330.765625 2869.71875 332.355469 C 2869.953125 333.949219 2870.230469 335.535156 2870.542969 337.113281 C 2870.855469 338.691406 2871.207031 340.257812 2871.601562 341.820312 C 2871.992188 343.378906 2872.417969 344.929688 2872.886719 346.46875 C 2873.355469 348.007812 2873.859375 349.535156 2874.398438 351.050781 C 2874.941406 352.566406 2875.519531 354.066406 2876.136719 355.554688 C 2876.753906 357.039062 2877.402344 358.511719 2878.089844 359.964844 C 2878.78125 361.417969 2879.503906 362.855469 2880.261719 364.273438 C 2881.019531 365.695312 2881.8125 367.09375 2882.640625 368.472656 C 2883.464844 369.855469 2884.328125 371.210938 2885.21875 372.550781 C 2886.113281 373.886719 2887.039062 375.203125 2888 376.496094 C 2888.957031 377.789062 2889.945312 379.054688 2890.96875 380.300781 C 2891.988281 381.542969 2893.039062 382.761719 2894.117188 383.953125 C 2895.199219 385.144531 2896.308594 386.308594 2897.445312 387.449219 C 2898.582031 388.585938 2899.75 389.695312 2900.941406 390.773438 C 2902.132812 391.855469 2903.351562 392.90625 2904.59375 393.925781 C 2905.835938 394.949219 2907.105469 395.9375 2908.398438 396.894531 C 2909.691406 397.855469 2911.003906 398.78125 2912.34375 399.675781 C 2913.679688 400.566406 2915.039062 401.429688 2916.417969 402.253906 C 2917.796875 403.082031 2919.199219 403.875 2920.617188 404.632812 C 2922.035156 405.390625 2923.472656 406.117188 2924.925781 406.804688 C 2926.378906 407.492188 2927.851562 408.144531 2929.335938 408.757812 C 2930.824219 409.375 2932.324219 409.953125 2933.839844 410.496094 C 2935.355469 411.039062 2936.882812 411.542969 2938.421875 412.007812 C 2939.960938 412.476562 2941.511719 412.90625 2943.070312 413.296875 C 2944.632812 413.6875 2946.199219 414.039062 2947.777344 414.351562 C 2949.355469 414.667969 2950.941406 414.941406 2952.53125 415.179688 C 2954.125 415.414062 2955.71875 415.609375 2957.320312 415.769531 C 2958.921875 415.925781 2960.527344 416.042969 2962.132812 416.125 C 2963.738281 416.203125 2965.347656 416.242188 2966.957031 416.242188 C 2968.566406 416.242188 2970.171875 416.203125 2971.78125 416.125 C 2973.386719 416.042969 2974.992188 415.925781 2976.589844 415.769531 C 2978.191406 415.609375 2979.789062 415.414062 2981.378906 415.179688 C 2982.972656 414.941406 2984.554688 414.667969 2986.132812 414.351562 C 2987.710938 414.039062 2989.28125 413.6875 2990.839844 413.296875 C 2992.402344 412.90625 2993.953125 412.476562 2995.492188 412.007812 C 2997.03125 411.542969 2998.558594 411.039062 3000.074219 410.496094 C 3001.589844 409.953125 3003.089844 409.375 3004.574219 408.757812 C 3006.0625 408.144531 3007.53125 407.492188 3008.984375 406.804688 C 3010.441406 406.117188 3011.875 405.390625 3013.296875 404.632812 C 3014.714844 403.875 3016.113281 403.082031 3017.492188 402.253906 C 3018.875 401.429688 3020.230469 400.566406 3021.570312 399.675781 C 3022.90625 398.78125 3024.222656 397.855469 3025.515625 396.894531 C 3026.808594 395.9375 3028.074219 394.949219 3029.320312 393.925781 C 3030.5625 392.90625 3031.78125 391.855469 3032.972656 390.773438 C 3034.164062 389.695312 3035.328125 388.585938 3036.464844 387.449219 C 3037.605469 386.308594 3038.714844 385.144531 3039.792969 383.953125 C 3040.875 382.761719 3041.925781 381.542969 3042.945312 380.300781 C 3043.964844 379.054688 3044.953125 377.789062 3045.914062 376.496094 C 3046.871094 375.203125 3047.796875 373.886719 3048.691406 372.550781 C 3049.585938 371.210938 3050.445312 369.855469 3051.273438 368.472656 C 3052.101562 367.09375 3052.894531 365.695312 3053.652344 364.273438 C 3054.410156 362.855469 3055.132812 361.417969 3055.820312 359.964844 C 3056.507812 358.511719 3057.160156 357.039062 3057.777344 355.554688 C 3058.390625 354.066406 3058.96875 352.566406 3059.511719 351.050781 C 3060.054688 349.535156 3060.558594 348.007812 3061.027344 346.46875 C 3061.492188 344.929688 3061.921875 343.378906 3062.3125 341.820312 C 3062.703125 340.257812 3063.054688 338.691406 3063.371094 337.113281 C 3063.683594 335.535156 3063.957031 333.949219 3064.195312 332.355469 C 3064.429688 330.765625 3064.628906 329.167969 3064.785156 327.566406 C 3064.941406 325.96875 3065.0625 324.363281 3065.140625 322.757812 C 3065.21875 321.148438 3065.257812 319.539062 3065.257812 317.933594 Z M 3065.257812 317.933594 " clip-rule="nonzero"/></clipPath><linearGradient x1="126.599976" gradientTransform="matrix(8.623024, 0, 0, -8.623678, 1776.979137, 1831.387517)" y1="95.099998" x2="149.399978" gradientUnits="userSpaceOnUse" y2="95.099998" xlink:type="simple" xlink:actuate="onLoad" id="id9" xlink:show="other"><stop stop-opacity="1" stop-color="rgb(64.72168%, 14.144897%, 11.102295%)" offset="0"/><stop stop-opacity="1" stop-color="rgb(64.840698%, 14.123535%, 11.070251%)" offset="0.03125"/><stop stop-opacity="1" stop-color="rgb(65.081787%, 14.080811%, 11.006165%)" offset="0.0625"/><stop stop-opacity="1" stop-color="rgb(65.32135%, 14.039612%, 10.943604%)" offset="0.09375"/><stop stop-opacity="1" stop-color="rgb(65.562439%, 13.996887%, 10.879517%)" offset="0.125"/><stop stop-opacity="1" stop-color="rgb(65.802002%, 13.955688%, 10.81543%)" offset="0.15625"/><stop stop-opacity="1" stop-color="rgb(66.043091%, 13.912964%, 10.752869%)" offset="0.1875"/><stop stop-opacity="1" stop-color="rgb(66.28418%, 13.871765%, 10.688782%)" offset="0.21875"/><stop stop-opacity="1" stop-color="rgb(66.523743%, 13.829041%, 10.624695%)" offset="0.25"/><stop stop-opacity="1" stop-color="rgb(66.764832%, 13.787842%, 10.562134%)" offset="0.28125"/><stop stop-opacity="1" stop-color="rgb(67.004395%, 13.745117%, 10.498047%)" offset="0.3125"/><stop stop-opacity="1" stop-color="rgb(67.245483%, 13.703918%, 10.43396%)" offset="0.34375"/><stop stop-opacity="1" stop-color="rgb(67.485046%, 13.661194%, 10.371399%)" offset="0.375"/><stop stop-opacity="1" stop-color="rgb(67.726135%, 13.619995%, 10.307312%)" offset="0.40625"/><stop stop-opacity="1" stop-color="rgb(67.967224%, 13.577271%, 10.243225%)" offset="0.4375"/><stop stop-opacity="1" stop-color="rgb(68.206787%, 13.536072%, 10.180664%)" offset="0.46875"/><stop stop-opacity="1" stop-color="rgb(68.447876%, 13.493347%, 10.116577%)" offset="0.5"/><stop stop-opacity="1" stop-color="rgb(68.687439%, 13.452148%, 10.05249%)" offset="0.53125"/><stop stop-opacity="1" stop-color="rgb(68.928528%, 13.409424%, 9.989929%)" offset="0.5625"/><stop stop-opacity="1" stop-color="rgb(69.168091%, 13.368225%, 9.925842%)" offset="0.59375"/><stop stop-opacity="1" stop-color="rgb(69.40918%, 13.3255%, 9.861755%)" offset="0.625"/><stop stop-opacity="1" stop-color="rgb(69.650269%, 13.284302%, 9.799194%)" offset="0.65625"/><stop stop-opacity="1" stop-color="rgb(69.889832%, 13.241577%, 9.735107%)" offset="0.6875"/><stop stop-opacity="1" stop-color="rgb(70.13092%, 13.200378%, 9.671021%)" offset="0.71875"/><stop stop-opacity="1" stop-color="rgb(70.370483%, 13.157654%, 9.608459%)" offset="0.75"/><stop stop-opacity="1" stop-color="rgb(70.611572%, 13.116455%, 9.544373%)" offset="0.78125"/><stop stop-opacity="1" stop-color="rgb(70.851135%, 13.07373%, 9.480286%)" offset="0.8125"/><stop stop-opacity="1" stop-color="rgb(71.092224%, 13.032532%, 9.417725%)" offset="0.84375"/><stop stop-opacity="1" stop-color="rgb(71.333313%, 12.989807%, 9.353638%)" offset="0.875"/><stop stop-opacity="1" stop-color="rgb(71.572876%, 12.948608%, 9.289551%)" offset="0.90625"/><stop stop-opacity="1" stop-color="rgb(71.813965%, 12.905884%, 9.22699%)" offset="0.9375"/><stop stop-opacity="1" stop-color="rgb(72.053528%, 12.864685%, 9.162903%)" offset="0.96875"/><stop stop-opacity="1" stop-color="rgb(72.294617%, 12.82196%, 9.098816%)" offset="1"/></linearGradient><clipPath id="id10"><path d="M 2819 1636 L 3015 1636 L 3015 1831.386719 L 2819 1831.386719 Z M 2819 1636 " clip-rule="nonzero"/></clipPath><clipPath id="id11"><path d="M 3014.382812 1733.941406 C 3014.382812 1732.34375 3014.34375 1730.75 3014.265625 1729.160156 C 3014.1875 1727.566406 3014.070312 1725.976562 3013.914062 1724.386719 C 3013.757812 1722.800781 3013.5625 1721.21875 3013.328125 1719.640625 C 3013.09375 1718.0625 3012.820312 1716.492188 3012.511719 1714.929688 C 3012.199219 1713.363281 3011.851562 1711.808594 3011.460938 1710.261719 C 3011.074219 1708.714844 3010.648438 1707.179688 3010.1875 1705.652344 C 3009.722656 1704.125 3009.222656 1702.613281 3008.6875 1701.109375 C 3008.148438 1699.609375 3007.574219 1698.121094 3006.964844 1696.648438 C 3006.355469 1695.175781 3005.710938 1693.71875 3005.027344 1692.277344 C 3004.34375 1690.835938 3003.628906 1689.410156 3002.878906 1688.003906 C 3002.125 1686.597656 3001.339844 1685.210938 3000.519531 1683.84375 C 2999.699219 1682.472656 2998.847656 1681.128906 2997.960938 1679.800781 C 2997.074219 1678.476562 2996.15625 1677.171875 2995.207031 1675.890625 C 2994.257812 1674.609375 2993.277344 1673.351562 2992.265625 1672.121094 C 2991.253906 1670.886719 2990.210938 1669.679688 2989.140625 1668.5 C 2988.070312 1667.316406 2986.972656 1666.160156 2985.84375 1665.035156 C 2984.714844 1663.90625 2983.5625 1662.808594 2982.378906 1661.734375 C 2981.199219 1660.664062 2979.992188 1659.625 2978.757812 1658.613281 C 2977.523438 1657.601562 2976.269531 1656.621094 2974.988281 1655.667969 C 2973.707031 1654.71875 2972.402344 1653.800781 2971.078125 1652.914062 C 2969.75 1652.027344 2968.40625 1651.175781 2967.035156 1650.355469 C 2965.667969 1649.535156 2964.28125 1648.75 2962.875 1648 C 2961.46875 1647.246094 2960.046875 1646.53125 2958.601562 1645.847656 C 2957.160156 1645.167969 2955.703125 1644.519531 2954.230469 1643.910156 C 2952.757812 1643.300781 2951.269531 1642.726562 2949.769531 1642.1875 C 2948.269531 1641.652344 2946.753906 1641.152344 2945.226562 1640.6875 C 2943.703125 1640.226562 2942.164062 1639.800781 2940.617188 1639.414062 C 2939.070312 1639.023438 2937.515625 1638.675781 2935.953125 1638.363281 C 2934.386719 1638.054688 2932.816406 1637.78125 2931.238281 1637.546875 C 2929.664062 1637.3125 2928.082031 1637.117188 2926.492188 1636.960938 C 2924.90625 1636.804688 2923.316406 1636.6875 2921.722656 1636.609375 C 2920.132812 1636.53125 2918.539062 1636.492188 2916.941406 1636.492188 C 2915.347656 1636.492188 2913.753906 1636.53125 2912.160156 1636.609375 C 2910.570312 1636.6875 2908.980469 1636.804688 2907.390625 1636.960938 C 2905.804688 1637.117188 2904.222656 1637.3125 2902.644531 1637.546875 C 2901.066406 1637.78125 2899.496094 1638.054688 2897.933594 1638.363281 C 2896.367188 1638.675781 2894.8125 1639.023438 2893.265625 1639.414062 C 2891.71875 1639.800781 2890.183594 1640.226562 2888.65625 1640.6875 C 2887.132812 1641.152344 2885.617188 1641.652344 2884.117188 1642.1875 C 2882.613281 1642.726562 2881.128906 1643.300781 2879.652344 1643.910156 C 2878.179688 1644.519531 2876.722656 1645.167969 2875.28125 1645.847656 C 2873.839844 1646.53125 2872.414062 1647.246094 2871.007812 1648 C 2869.601562 1648.75 2868.214844 1649.535156 2866.847656 1650.355469 C 2865.480469 1651.175781 2864.132812 1652.027344 2862.808594 1652.914062 C 2861.480469 1653.800781 2860.179688 1654.71875 2858.898438 1655.667969 C 2857.617188 1656.621094 2856.359375 1657.601562 2855.128906 1658.613281 C 2853.894531 1659.625 2852.6875 1660.664062 2851.503906 1661.734375 C 2850.324219 1662.808594 2849.167969 1663.90625 2848.042969 1665.035156 C 2846.914062 1666.160156 2845.816406 1667.316406 2844.746094 1668.5 C 2843.671875 1669.679688 2842.632812 1670.886719 2841.621094 1672.121094 C 2840.609375 1673.351562 2839.628906 1674.609375 2838.679688 1675.890625 C 2837.726562 1677.171875 2836.808594 1678.476562 2835.925781 1679.800781 C 2835.039062 1681.128906 2834.183594 1682.472656 2833.367188 1683.84375 C 2832.546875 1685.210938 2831.757812 1686.597656 2831.007812 1688.003906 C 2830.257812 1689.410156 2829.539062 1690.835938 2828.859375 1692.277344 C 2828.175781 1693.71875 2827.53125 1695.175781 2826.917969 1696.648438 C 2826.308594 1698.121094 2825.734375 1699.609375 2825.199219 1701.109375 C 2824.660156 1702.613281 2824.160156 1704.125 2823.699219 1705.652344 C 2823.234375 1707.179688 2822.808594 1708.714844 2822.421875 1710.261719 C 2822.035156 1711.808594 2821.6875 1713.363281 2821.375 1714.929688 C 2821.0625 1716.492188 2820.792969 1718.0625 2820.558594 1719.640625 C 2820.324219 1721.21875 2820.128906 1722.800781 2819.972656 1724.386719 C 2819.816406 1725.976562 2819.699219 1727.566406 2819.621094 1729.160156 C 2819.542969 1730.75 2819.503906 1732.34375 2819.503906 1733.941406 C 2819.503906 1735.535156 2819.542969 1737.128906 2819.621094 1738.722656 C 2819.699219 1740.3125 2819.816406 1741.90625 2819.972656 1743.492188 C 2820.128906 1745.078125 2820.324219 1746.660156 2820.558594 1748.238281 C 2820.792969 1749.816406 2821.0625 1751.386719 2821.375 1752.949219 C 2821.6875 1754.515625 2822.035156 1756.070312 2822.421875 1757.617188 C 2822.808594 1759.164062 2823.234375 1760.703125 2823.699219 1762.226562 C 2824.160156 1763.753906 2824.660156 1765.265625 2825.199219 1766.769531 C 2825.734375 1768.269531 2826.308594 1769.757812 2826.917969 1771.230469 C 2827.53125 1772.703125 2828.175781 1774.164062 2828.859375 1775.605469 C 2829.539062 1777.046875 2830.257812 1778.46875 2831.007812 1779.875 C 2831.757812 1781.28125 2832.546875 1782.671875 2833.367188 1784.039062 C 2834.183594 1785.40625 2835.039062 1786.753906 2835.925781 1788.078125 C 2836.808594 1789.40625 2837.726562 1790.707031 2838.679688 1791.988281 C 2839.628906 1793.269531 2840.609375 1794.527344 2841.621094 1795.761719 C 2842.632812 1796.992188 2843.671875 1798.199219 2844.746094 1799.382812 C 2845.816406 1800.5625 2846.914062 1801.71875 2848.042969 1802.847656 C 2849.167969 1803.972656 2850.324219 1805.074219 2851.503906 1806.144531 C 2852.6875 1807.214844 2853.894531 1808.257812 2855.128906 1809.269531 C 2856.359375 1810.28125 2857.617188 1811.261719 2858.898438 1812.210938 C 2860.179688 1813.160156 2861.480469 1814.078125 2862.808594 1814.964844 C 2864.132812 1815.851562 2865.480469 1816.703125 2866.847656 1817.523438 C 2868.214844 1818.34375 2869.601562 1819.128906 2871.007812 1819.882812 C 2872.417969 1820.632812 2873.839844 1821.351562 2875.28125 1822.03125 C 2876.722656 1822.714844 2878.179688 1823.359375 2879.652344 1823.96875 C 2881.128906 1824.578125 2882.613281 1825.152344 2884.117188 1825.691406 C 2885.617188 1826.226562 2887.132812 1826.726562 2888.65625 1827.191406 C 2890.183594 1827.65625 2891.71875 1828.078125 2893.265625 1828.46875 C 2894.8125 1828.855469 2896.367188 1829.203125 2897.933594 1829.515625 C 2899.496094 1829.828125 2901.066406 1830.097656 2902.644531 1830.332031 C 2904.222656 1830.566406 2905.804688 1830.761719 2907.390625 1830.917969 C 2908.980469 1831.074219 2910.570312 1831.191406 2912.160156 1831.269531 C 2913.753906 1831.347656 2915.347656 1831.386719 2916.941406 1831.386719 C 2918.539062 1831.386719 2920.132812 1831.347656 2921.722656 1831.269531 C 2923.316406 1831.191406 2924.90625 1831.074219 2926.492188 1830.917969 C 2928.082031 1830.761719 2929.664062 1830.566406 2931.238281 1830.332031 C 2932.816406 1830.097656 2934.386719 1829.828125 2935.953125 1829.515625 C 2937.515625 1829.203125 2939.070312 1828.855469 2940.617188 1828.46875 C 2942.164062 1828.078125 2943.703125 1827.65625 2945.226562 1827.191406 C 2946.753906 1826.726562 2948.269531 1826.226562 2949.769531 1825.691406 C 2951.269531 1825.152344 2952.757812 1824.578125 2954.230469 1823.96875 C 2955.703125 1823.359375 2957.160156 1822.714844 2958.601562 1822.03125 C 2960.046875 1821.351562 2961.46875 1820.632812 2962.875 1819.882812 C 2964.28125 1819.128906 2965.667969 1818.34375 2967.035156 1817.523438 C 2968.40625 1816.703125 2969.75 1815.851562 2971.078125 1814.964844 C 2972.402344 1814.078125 2973.707031 1813.160156 2974.988281 1812.210938 C 2976.269531 1811.261719 2977.523438 1810.28125 2978.757812 1809.269531 C 2979.992188 1808.257812 2981.199219 1807.214844 2982.378906 1806.144531 C 2983.5625 1805.074219 2984.714844 1803.972656 2985.84375 1802.847656 C 2986.972656 1801.71875 2988.070312 1800.5625 2989.140625 1799.382812 C 2990.210938 1798.199219 2991.253906 1796.992188 2992.265625 1795.761719 C 2993.277344 1794.527344 2994.257812 1793.269531 2995.207031 1791.988281 C 2996.15625 1790.707031 2997.074219 1789.40625 2997.960938 1788.078125 C 2998.847656 1786.753906 2999.699219 1785.40625 3000.519531 1784.039062 C 3001.339844 1782.671875 3002.125 1781.28125 3002.878906 1779.875 C 3003.628906 1778.46875 3004.34375 1777.046875 3005.027344 1775.605469 C 3005.710938 1774.164062 3006.355469 1772.703125 3006.964844 1771.230469 C 3007.574219 1769.757812 3008.148438 1768.269531 3008.6875 1766.769531 C 3009.222656 1765.265625 3009.722656 1763.753906 3010.1875 1762.226562 C 3010.648438 1760.703125 3011.074219 1759.164062 3011.460938 1757.617188 C 3011.851562 1756.070312 3012.199219 1754.515625 3012.511719 1752.949219 C 3012.820312 1751.386719 3013.09375 1749.816406 3013.328125 1748.238281 C 3013.5625 1746.660156 3013.757812 1745.078125 3013.914062 1743.492188 C 3014.070312 1741.90625 3014.1875 1740.3125 3014.265625 1738.722656 C 3014.34375 1737.128906 3014.382812 1735.535156 3014.382812 1733.941406 Z M 3014.382812 1733.941406 " clip-rule="nonzero"/></clipPath><linearGradient x1="120.899971" gradientTransform="matrix(8.623024, 0, 0, -8.623678, 1776.979137, 1831.387517)" y1="95.099998" x2="143.499984" gradientUnits="userSpaceOnUse" y2="95.099998" xlink:type="simple" xlink:actuate="onLoad" id="id12" xlink:show="other"><stop stop-opacity="1" stop-color="rgb(62.797546%, 14.480591%, 11.610413%)" offset="0"/><stop stop-opacity="1" stop-color="rgb(62.916565%, 14.459229%, 11.578369%)" offset="0.03125"/><stop stop-opacity="1" stop-color="rgb(63.154602%, 14.416504%, 11.515808%)" offset="0.0625"/><stop stop-opacity="1" stop-color="rgb(63.392639%, 14.375305%, 11.453247%)" offset="0.09375"/><stop stop-opacity="1" stop-color="rgb(63.632202%, 14.334106%, 11.38916%)" offset="0.125"/><stop stop-opacity="1" stop-color="rgb(63.870239%, 14.292908%, 11.326599%)" offset="0.15625"/><stop stop-opacity="1" stop-color="rgb(64.108276%, 14.250183%, 11.264038%)" offset="0.1875"/><stop stop-opacity="1" stop-color="rgb(64.346313%, 14.208984%, 11.201477%)" offset="0.21875"/><stop stop-opacity="1" stop-color="rgb(64.584351%, 14.167786%, 11.13739%)" offset="0.25"/><stop stop-opacity="1" stop-color="rgb(64.823914%, 14.126587%, 11.074829%)" offset="0.28125"/><stop stop-opacity="1" stop-color="rgb(65.061951%, 14.083862%, 11.012268%)" offset="0.3125"/><stop stop-opacity="1" stop-color="rgb(65.299988%, 14.042664%, 10.948181%)" offset="0.34375"/><stop stop-opacity="1" stop-color="rgb(65.538025%, 14.001465%, 10.88562%)" offset="0.375"/><stop stop-opacity="1" stop-color="rgb(65.776062%, 13.960266%, 10.823059%)" offset="0.40625"/><stop stop-opacity="1" stop-color="rgb(66.014099%, 13.917542%, 10.758972%)" offset="0.4375"/><stop stop-opacity="1" stop-color="rgb(66.253662%, 13.876343%, 10.696411%)" offset="0.46875"/><stop stop-opacity="1" stop-color="rgb(66.491699%, 13.835144%, 10.63385%)" offset="0.5"/><stop stop-opacity="1" stop-color="rgb(66.729736%, 13.793945%, 10.571289%)" offset="0.53125"/><stop stop-opacity="1" stop-color="rgb(66.967773%, 13.751221%, 10.507202%)" offset="0.5625"/><stop stop-opacity="1" stop-color="rgb(67.205811%, 13.710022%, 10.444641%)" offset="0.59375"/><stop stop-opacity="1" stop-color="rgb(67.445374%, 13.668823%, 10.38208%)" offset="0.625"/><stop stop-opacity="1" stop-color="rgb(67.683411%, 13.627625%, 10.317993%)" offset="0.65625"/><stop stop-opacity="1" stop-color="rgb(67.921448%, 13.5849%, 10.255432%)" offset="0.6875"/><stop stop-opacity="1" stop-color="rgb(68.159485%, 13.543701%, 10.192871%)" offset="0.71875"/><stop stop-opacity="1" stop-color="rgb(68.397522%, 13.502502%, 10.128784%)" offset="0.75"/><stop stop-opacity="1" stop-color="rgb(68.637085%, 13.461304%, 10.066223%)" offset="0.78125"/><stop stop-opacity="1" stop-color="rgb(68.875122%, 13.418579%, 10.003662%)" offset="0.8125"/><stop stop-opacity="1" stop-color="rgb(69.113159%, 13.37738%, 9.941101%)" offset="0.84375"/><stop stop-opacity="1" stop-color="rgb(69.351196%, 13.336182%, 9.877014%)" offset="0.875"/><stop stop-opacity="1" stop-color="rgb(69.589233%, 13.294983%, 9.814453%)" offset="0.90625"/><stop stop-opacity="1" stop-color="rgb(69.828796%, 13.252258%, 9.751892%)" offset="0.9375"/><stop stop-opacity="1" stop-color="rgb(70.066833%, 13.21106%, 9.687805%)" offset="0.96875"/><stop stop-opacity="1" stop-color="rgb(70.304871%, 13.169861%, 9.625244%)" offset="1"/></linearGradient><clipPath id="id13"><path d="M 1818 1175 L 1945 1175 L 1945 1302 L 1818 1302 Z M 1818 1175 " clip-rule="nonzero"/></clipPath><clipPath id="id14"><path d="M 1944.265625 1238.941406 C 1944.265625 1236.878906 1944.164062 1234.824219 1943.960938 1232.769531 C 1943.761719 1230.71875 1943.457031 1228.679688 1943.054688 1226.660156 C 1942.652344 1224.636719 1942.152344 1222.640625 1941.554688 1220.667969 C 1940.957031 1218.695312 1940.261719 1216.753906 1939.472656 1214.851562 C 1938.683594 1212.945312 1937.804688 1211.082031 1936.832031 1209.265625 C 1935.859375 1207.445312 1934.800781 1205.679688 1933.65625 1203.964844 C 1932.511719 1202.25 1931.285156 1200.597656 1929.976562 1199.003906 C 1928.667969 1197.410156 1927.285156 1195.882812 1925.828125 1194.425781 C 1924.371094 1192.96875 1922.84375 1191.585938 1921.25 1190.277344 C 1919.65625 1188.96875 1918.003906 1187.742188 1916.289062 1186.597656 C 1914.574219 1185.453125 1912.808594 1184.394531 1910.992188 1183.421875 C 1909.171875 1182.449219 1907.3125 1181.570312 1905.40625 1180.78125 C 1903.503906 1179.992188 1901.5625 1179.296875 1899.589844 1178.699219 C 1897.617188 1178.101562 1895.621094 1177.601562 1893.597656 1177.199219 C 1891.578125 1176.796875 1889.539062 1176.492188 1887.488281 1176.292969 C 1885.4375 1176.089844 1883.378906 1175.988281 1881.316406 1175.988281 C 1879.257812 1175.988281 1877.199219 1176.089844 1875.148438 1176.292969 C 1873.097656 1176.492188 1871.058594 1176.796875 1869.035156 1177.199219 C 1867.015625 1177.601562 1865.019531 1178.101562 1863.042969 1178.699219 C 1861.070312 1179.296875 1859.132812 1179.992188 1857.226562 1180.78125 C 1855.324219 1181.570312 1853.460938 1182.449219 1851.644531 1183.421875 C 1849.824219 1184.394531 1848.058594 1185.453125 1846.34375 1186.597656 C 1844.632812 1187.742188 1842.976562 1188.96875 1841.382812 1190.277344 C 1839.789062 1191.585938 1838.265625 1192.96875 1836.804688 1194.425781 C 1835.347656 1195.882812 1833.964844 1197.410156 1832.65625 1199.003906 C 1831.351562 1200.597656 1830.125 1202.25 1828.976562 1203.964844 C 1827.832031 1205.679688 1826.773438 1207.445312 1825.800781 1209.265625 C 1824.832031 1211.082031 1823.949219 1212.945312 1823.160156 1214.851562 C 1822.371094 1216.753906 1821.679688 1218.695312 1821.078125 1220.667969 C 1820.480469 1222.640625 1819.980469 1224.636719 1819.578125 1226.660156 C 1819.175781 1228.679688 1818.875 1230.71875 1818.671875 1232.769531 C 1818.46875 1234.824219 1818.371094 1236.878906 1818.371094 1238.941406 C 1818.371094 1241.003906 1818.46875 1243.058594 1818.671875 1245.109375 C 1818.875 1247.164062 1819.175781 1249.199219 1819.578125 1251.222656 C 1819.980469 1253.246094 1820.480469 1255.242188 1821.078125 1257.214844 C 1821.679688 1259.1875 1822.371094 1261.128906 1823.160156 1263.03125 C 1823.949219 1264.9375 1824.832031 1266.796875 1825.800781 1268.617188 C 1826.773438 1270.433594 1827.832031 1272.203125 1828.976562 1273.914062 C 1830.125 1275.628906 1831.351562 1277.285156 1832.65625 1278.878906 C 1833.964844 1280.472656 1835.347656 1281.996094 1836.804688 1283.457031 C 1838.265625 1284.914062 1839.789062 1286.296875 1841.382812 1287.605469 C 1842.976562 1288.910156 1844.632812 1290.140625 1846.34375 1291.285156 C 1848.058594 1292.429688 1849.824219 1293.488281 1851.644531 1294.460938 C 1853.460938 1295.433594 1855.324219 1296.3125 1857.226562 1297.101562 C 1859.132812 1297.890625 1861.070312 1298.585938 1863.042969 1299.183594 C 1865.019531 1299.78125 1867.015625 1300.28125 1869.035156 1300.683594 C 1871.058594 1301.085938 1873.097656 1301.386719 1875.148438 1301.589844 C 1877.199219 1301.792969 1879.257812 1301.894531 1881.316406 1301.894531 C 1883.378906 1301.894531 1885.4375 1301.792969 1887.488281 1301.589844 C 1889.539062 1301.386719 1891.578125 1301.085938 1893.597656 1300.683594 C 1895.621094 1300.28125 1897.617188 1299.78125 1899.589844 1299.183594 C 1901.5625 1298.585938 1903.503906 1297.890625 1905.40625 1297.101562 C 1907.3125 1296.3125 1909.171875 1295.433594 1910.992188 1294.460938 C 1912.808594 1293.488281 1914.574219 1292.429688 1916.289062 1291.285156 C 1918.003906 1290.140625 1919.65625 1288.910156 1921.25 1287.605469 C 1922.84375 1286.296875 1924.371094 1284.914062 1925.828125 1283.457031 C 1927.285156 1281.996094 1928.667969 1280.472656 1929.976562 1278.878906 C 1931.285156 1277.285156 1932.511719 1275.628906 1933.65625 1273.914062 C 1934.800781 1272.203125 1935.859375 1270.433594 1936.832031 1268.617188 C 1937.804688 1266.796875 1938.683594 1264.9375 1939.472656 1263.03125 C 1940.261719 1261.128906 1940.957031 1259.1875 1941.554688 1257.214844 C 1942.152344 1255.242188 1942.652344 1253.246094 1943.054688 1251.222656 C 1943.457031 1249.199219 1943.761719 1247.164062 1943.960938 1245.109375 C 1944.164062 1243.058594 1944.265625 1241.003906 1944.265625 1238.941406 Z M 1944.265625 1238.941406 " clip-rule="nonzero"/></clipPath><linearGradient x1="4.799989" gradientTransform="matrix(8.623024, 0, 0, -8.623678, 1776.979137, 1831.387517)" y1="95.099998" x2="19.399991" gradientUnits="userSpaceOnUse" y2="95.099998" xlink:type="simple" xlink:actuate="onLoad" id="id15" xlink:show="other"><stop stop-opacity="1" stop-color="rgb(23.61908%, 21.316528%, 21.97113%)" offset="0"/><stop stop-opacity="1" stop-color="rgb(23.773193%, 21.289062%, 21.929932%)" offset="0.0625"/><stop stop-opacity="1" stop-color="rgb(24.081421%, 21.235657%, 21.847534%)" offset="0.125"/><stop stop-opacity="1" stop-color="rgb(24.388123%, 21.182251%, 21.766663%)" offset="0.1875"/><stop stop-opacity="1" stop-color="rgb(24.69635%, 21.127319%, 21.685791%)" offset="0.25"/><stop stop-opacity="1" stop-color="rgb(25.004578%, 21.073914%, 21.603394%)" offset="0.3125"/><stop stop-opacity="1" stop-color="rgb(25.312805%, 21.020508%, 21.522522%)" offset="0.375"/><stop stop-opacity="1" stop-color="rgb(25.621033%, 20.967102%, 21.44165%)" offset="0.4375"/><stop stop-opacity="1" stop-color="rgb(25.927734%, 20.913696%, 21.359253%)" offset="0.5"/><stop stop-opacity="1" stop-color="rgb(26.235962%, 20.858765%, 21.278381%)" offset="0.5625"/><stop stop-opacity="1" stop-color="rgb(26.544189%, 20.805359%, 21.19751%)" offset="0.625"/><stop stop-opacity="1" stop-color="rgb(26.852417%, 20.751953%, 21.115112%)" offset="0.6875"/><stop stop-opacity="1" stop-color="rgb(27.160645%, 20.698547%, 21.034241%)" offset="0.75"/><stop stop-opacity="1" stop-color="rgb(27.467346%, 20.643616%, 20.953369%)" offset="0.8125"/><stop stop-opacity="1" stop-color="rgb(27.775574%, 20.59021%, 20.870972%)" offset="0.875"/><stop stop-opacity="1" stop-color="rgb(28.083801%, 20.536804%, 20.7901%)" offset="0.9375"/><stop stop-opacity="1" stop-color="rgb(28.392029%, 20.483398%, 20.707703%)" offset="1"/></linearGradient></defs><g clip-path="url(#id4)"><g clip-path="url(#id5)"><path fill="url(#id6)" d="M 1776.980469 1770.160156 L 1776.980469 251.53125 L 3682.59375 251.53125 L 3682.59375 1770.160156 Z M 1776.980469 1770.160156 " fill-rule="nonzero"/></g></g><g clip-path="url(#id7)"><g clip-path="url(#id8)"><path fill="url(#id9)" d="M 2868.652344 416.242188 L 2868.652344 219.621094 L 3065.257812 219.621094 L 3065.257812 416.242188 Z M 2868.652344 416.242188 " fill-rule="nonzero"/></g></g><g clip-path="url(#id10)"><g clip-path="url(#id11)"><path fill="url(#id12)" d="M 2819.503906 1831.386719 L 2819.503906 1636.492188 L 3014.382812 1636.492188 L 3014.382812 1831.386719 Z M 2819.503906 1831.386719 " fill-rule="nonzero"/></g></g><g clip-path="url(#id13)"><g clip-path="url(#id14)"><path fill="url(#id15)" d="M 1818.371094 1301.894531 L 1818.371094 1175.988281 L 1944.265625 1175.988281 L 1944.265625 1301.894531 Z M 1818.371094 1301.894531 " fill-rule="nonzero"/></g></g><g fill="rgb(100%, 100%, 100%)" fill-opacity="1"><g transform="translate(2070.428307, 1459.838637)"><g><path d="M 895.640625 -460.140625 C 894.546875 -433.847656 884.132812 -412.484375 864.40625 -396.046875 C 844.6875 -379.617188 821.679688 -371.40625 795.390625 -371.40625 L 253.078125 -371.40625 C 266.222656 -306.757812 296.347656 -256.085938 343.453125 -219.390625 C 390.566406 -182.691406 443.707031 -164.34375 502.875 -164.34375 C 547.789062 -164.34375 582.847656 -168.445312 608.046875 -176.65625 C 633.242188 -184.875 653.238281 -193.640625 668.03125 -202.953125 C 682.820312 -212.265625 692.957031 -218.566406 698.4375 -221.859375 C 718.15625 -231.710938 736.78125 -236.640625 754.3125 -236.640625 C 777.3125 -236.640625 797.03125 -228.421875 813.46875 -211.984375 C 829.90625 -195.554688 838.125 -176.390625 838.125 -154.484375 C 838.125 -124.898438 822.785156 -98.054688 792.109375 -73.953125 C 761.429688 -48.753906 720.34375 -27.390625 668.84375 -9.859375 C 617.351562 7.671875 565.316406 16.4375 512.734375 16.4375 C 420.703125 16.4375 340.445312 -2.734375 271.96875 -41.078125 C 203.5 -79.429688 150.640625 -132.296875 113.390625 -199.671875 C 76.140625 -267.046875 57.515625 -342.914062 57.515625 -427.28125 C 57.515625 -521.5 77.234375 -604.210938 116.671875 -675.421875 C 156.117188 -746.640625 208.160156 -801.144531 272.796875 -838.9375 C 337.441406 -876.738281 406.460938 -895.640625 479.859375 -895.640625 C 552.171875 -895.640625 620.375 -875.914062 684.46875 -836.46875 C 748.5625 -797.03125 799.78125 -743.894531 838.125 -677.0625 C 876.46875 -610.238281 895.640625 -537.929688 895.640625 -460.140625 Z M 479.859375 -714.875 C 352.773438 -714.875 277.726562 -655.160156 254.71875 -535.734375 L 685.28125 -535.734375 L 685.28125 -547.25 C 680.90625 -593.257812 658.445312 -632.695312 617.90625 -665.5625 C 577.375 -698.4375 531.359375 -714.875 479.859375 -714.875 Z M 479.859375 -714.875 "/></g></g></g><g fill="rgb(97.648621%, 96.469116%, 91.369629%)" fill-opacity="1"><g transform="translate(1785.194586, 2042.139841)"><g><path d="M 39.984375 -116.953125 L 39.984375 -81.765625 L 83.171875 -81.765625 C 86.628906 -81.765625 89.523438 -80.664062 91.859375 -78.46875 C 94.191406 -76.269531 95.359375 -73.4375 95.359375 -69.96875 C 95.359375 -67.039062 94.191406 -64.441406 91.859375 -62.171875 C 89.523438 -59.910156 86.628906 -58.78125 83.171875 -58.78125 L 39.984375 -58.78125 L 39.984375 -12.1875 C 39.984375 -8.726562 38.75 -5.832031 36.28125 -3.5 C 33.820312 -1.164062 30.925781 0 27.59375 0 C 23.851562 0 20.816406 -1.128906 18.484375 -3.390625 C 16.160156 -5.660156 15 -8.59375 15 -12.1875 L 15 -127.75 C 15 -131.21875 16.160156 -134.113281 18.484375 -136.4375 C 20.816406 -138.769531 23.71875 -139.9375 27.1875 -139.9375 L 92.15625 -139.9375 C 95.625 -139.9375 98.523438 -138.835938 100.859375 -136.640625 C 103.191406 -134.441406 104.359375 -131.613281 104.359375 -128.15625 C 104.359375 -125.21875 103.191406 -122.613281 100.859375 -120.34375 C 98.523438 -118.082031 95.625 -116.953125 92.15625 -116.953125 Z M 39.984375 -116.953125 "/></g></g></g><g fill="rgb(97.648621%, 96.469116%, 91.369629%)" fill-opacity="1"><g transform="translate(1980.71625, 2042.139841)"><g><path d="M 143.75 -69.96875 C 143.75 -56.78125 140.816406 -44.6875 134.953125 -33.6875 C 129.085938 -22.6875 120.988281 -13.988281 110.65625 -7.59375 C 100.320312 -1.195312 88.691406 2 75.765625 2 C 62.835938 2 51.207031 -1.195312 40.875 -7.59375 C 30.550781 -13.988281 22.488281 -22.6875 16.6875 -33.6875 C 10.894531 -44.6875 8 -56.78125 8 -69.96875 C 8 -83.164062 10.894531 -95.257812 16.6875 -106.25 C 22.488281 -117.25 30.550781 -125.945312 40.875 -132.34375 C 51.207031 -138.738281 62.835938 -141.9375 75.765625 -141.9375 C 88.691406 -141.9375 100.320312 -138.738281 110.65625 -132.34375 C 120.988281 -125.945312 129.085938 -117.25 134.953125 -106.25 C 140.816406 -95.257812 143.75 -83.164062 143.75 -69.96875 Z M 117.75 -69.96875 C 117.75 -78.90625 115.945312 -87.003906 112.34375 -94.265625 C 108.75 -101.523438 103.753906 -107.285156 97.359375 -111.546875 C 90.960938 -115.816406 83.765625 -117.953125 75.765625 -117.953125 C 67.640625 -117.953125 60.410156 -115.851562 54.078125 -111.65625 C 47.742188 -107.457031 42.8125 -101.691406 39.28125 -94.359375 C 35.75 -87.035156 33.984375 -78.90625 33.984375 -69.96875 C 33.984375 -61.039062 35.75 -52.910156 39.28125 -45.578125 C 42.8125 -38.253906 47.742188 -32.488281 54.078125 -28.28125 C 60.410156 -24.082031 67.640625 -21.984375 75.765625 -21.984375 C 83.765625 -21.984375 90.960938 -24.113281 97.359375 -28.375 C 103.753906 -32.644531 108.75 -38.410156 112.34375 -45.671875 C 115.945312 -52.941406 117.75 -61.039062 117.75 -69.96875 Z M 117.75 -69.96875 "/></g></g></g><g fill="rgb(97.648621%, 96.469116%, 91.369629%)" fill-opacity="1"><g transform="translate(2215.621658, 2042.139841)"><g><path d="M 124.75 -19.59375 C 126.476562 -18.53125 127.84375 -17.128906 128.84375 -15.390625 C 129.84375 -13.660156 130.34375 -11.863281 130.34375 -10 C 130.34375 -7.59375 129.546875 -5.394531 127.953125 -3.40625 C 125.953125 -1 122.882812 0.203125 118.75 0.203125 C 115.550781 0.203125 112.617188 -0.53125 109.953125 -2 C 100.359375 -7.46875 95.5625 -18.597656 95.5625 -35.390625 C 95.5625 -40.179688 93.992188 -43.976562 90.859375 -46.78125 C 87.734375 -49.582031 83.238281 -50.984375 77.375 -50.984375 L 39.984375 -50.984375 L 39.984375 -12.1875 C 39.984375 -8.59375 39.015625 -5.660156 37.078125 -3.390625 C 35.148438 -1.128906 32.585938 0 29.390625 0 C 25.523438 0 22.160156 -1.164062 19.296875 -3.5 C 16.429688 -5.832031 15 -8.726562 15 -12.1875 L 15 -127.75 C 15 -131.21875 16.160156 -134.113281 18.484375 -136.4375 C 20.816406 -138.769531 23.71875 -139.9375 27.1875 -139.9375 L 84.765625 -139.9375 C 91.691406 -139.9375 98.222656 -138.070312 104.359375 -134.34375 C 110.492188 -130.613281 115.390625 -125.484375 119.046875 -118.953125 C 122.710938 -112.421875 124.546875 -105.09375 124.546875 -96.96875 C 124.546875 -90.300781 122.742188 -83.800781 119.140625 -77.46875 C 115.546875 -71.132812 110.882812 -66.101562 105.15625 -62.375 C 113.550781 -56.507812 118.148438 -48.644531 118.953125 -38.78125 C 119.347656 -36.65625 119.546875 -34.59375 119.546875 -32.59375 C 120.085938 -28.457031 120.625 -25.488281 121.15625 -23.6875 C 121.6875 -21.882812 122.882812 -20.519531 124.75 -19.59375 Z M 83.765625 -71.578125 C 86.160156 -71.578125 88.488281 -72.707031 90.75 -74.96875 C 93.019531 -77.238281 94.890625 -80.269531 96.359375 -84.0625 C 97.828125 -87.863281 98.5625 -91.960938 98.5625 -96.359375 C 98.5625 -100.085938 97.828125 -103.519531 96.359375 -106.65625 C 94.890625 -109.789062 93.019531 -112.289062 90.75 -114.15625 C 88.488281 -116.019531 86.160156 -116.953125 83.765625 -116.953125 L 39.984375 -116.953125 L 39.984375 -71.578125 Z M 83.765625 -71.578125 "/></g></g></g><g fill="rgb(97.648621%, 96.469116%, 91.369629%)" fill-opacity="1"><g transform="translate(2436.133025, 2042.139841)"><g><path d="M 136.34375 -140.140625 C 139.675781 -140.140625 142.570312 -138.972656 145.03125 -136.640625 C 147.5 -134.304688 148.734375 -131.410156 148.734375 -127.953125 L 148.734375 -12.1875 C 148.734375 -8.726562 147.597656 -5.832031 145.328125 -3.5 C 143.066406 -1.164062 140.070312 0 136.34375 0 C 132.613281 0 129.582031 -1.128906 127.25 -3.390625 C 124.914062 -5.660156 123.75 -8.59375 123.75 -12.1875 L 123.75 -92.765625 L 90.765625 -42.390625 C 89.429688 -40.785156 87.894531 -39.484375 86.15625 -38.484375 C 84.425781 -37.484375 82.628906 -37.050781 80.765625 -37.1875 C 79.035156 -37.050781 77.300781 -37.484375 75.5625 -38.484375 C 73.832031 -39.484375 72.300781 -40.785156 70.96875 -42.390625 L 37.984375 -94.5625 L 37.984375 -12.1875 C 37.984375 -8.59375 36.914062 -5.660156 34.78125 -3.390625 C 32.65625 -1.128906 29.859375 0 26.390625 0 C 23.054688 0 20.320312 -1.164062 18.1875 -3.5 C 16.0625 -5.832031 15 -8.726562 15 -12.1875 L 15 -127.953125 C 15 -131.285156 16.226562 -134.148438 18.6875 -136.546875 C 21.15625 -138.941406 24.125 -140.140625 27.59375 -140.140625 C 29.59375 -140.140625 31.585938 -139.640625 33.578125 -138.640625 C 35.578125 -137.640625 37.113281 -136.34375 38.1875 -134.75 L 81.765625 -67.78125 L 126.546875 -134.75 C 127.617188 -136.34375 129.050781 -137.640625 130.84375 -138.640625 C 132.644531 -139.640625 134.476562 -140.140625 136.34375 -140.140625 Z M 136.34375 -140.140625 "/></g></g></g><g fill="rgb(97.648621%, 96.469116%, 91.369629%)" fill-opacity="1"><g transform="translate(2683.03349, 2042.139841)"><g><path d="M 124.75 -15.59375 C 125.414062 -13.863281 125.75 -12.265625 125.75 -10.796875 C 125.75 -7.328125 124.613281 -4.492188 122.34375 -2.296875 C 120.082031 -0.0976562 117.488281 1 114.5625 1 C 112.15625 1 109.984375 0.265625 108.046875 -1.203125 C 106.117188 -2.671875 104.625 -4.671875 103.5625 -7.203125 L 93.15625 -31.390625 L 33.59375 -31.390625 L 23.1875 -7 C 22.257812 -4.46875 20.828125 -2.5 18.890625 -1.09375 C 16.960938 0.300781 14.863281 1 12.59375 1 C 9.125 1 6.488281 0.0664062 4.6875 -1.796875 C 2.894531 -3.660156 2 -6.191406 2 -9.390625 C 2 -10.597656 2.195312 -11.863281 2.59375 -13.1875 L 52.375 -132.75 C 53.445312 -135.414062 55.046875 -137.476562 57.171875 -138.9375 C 59.304688 -140.40625 61.707031 -141.007812 64.375 -140.75 C 66.769531 -140.75 69 -140.046875 71.0625 -138.640625 C 73.132812 -137.242188 74.640625 -135.28125 75.578125 -132.75 Z M 43.390625 -54.375 L 83.375 -54.375 L 63.171875 -101.15625 Z M 43.390625 -54.375 "/></g></g></g><g fill="rgb(97.648621%, 96.469116%, 91.369629%)" fill-opacity="1"><g transform="translate(2893.948845, 2042.139841)"><g><path d="M 92.15625 -23.390625 C 95.625 -23.390625 98.523438 -22.289062 100.859375 -20.09375 C 103.191406 -17.894531 104.359375 -15.0625 104.359375 -11.59375 C 104.359375 -8.257812 103.191406 -5.492188 100.859375 -3.296875 C 98.523438 -1.097656 95.625 0 92.15625 0 L 27.1875 0 C 23.71875 0 20.816406 -1.164062 18.484375 -3.5 C 16.160156 -5.832031 15 -8.726562 15 -12.1875 L 15 -127.75 C 15 -131.21875 16.195312 -134.113281 18.59375 -136.4375 C 20.988281 -138.769531 24.054688 -139.9375 27.796875 -139.9375 C 31.117188 -139.9375 33.976562 -138.769531 36.375 -136.4375 C 38.78125 -134.113281 39.984375 -131.21875 39.984375 -127.75 L 39.984375 -23.390625 Z M 92.15625 -23.390625 "/></g></g></g><g fill="rgb(97.648621%, 96.469116%, 91.369629%)" fill-opacity="1"><g transform="translate(3089.470509, 2042.139841)"><g><path d="M 39.984375 -12.1875 C 39.984375 -8.726562 38.71875 -5.832031 36.1875 -3.5 C 33.65625 -1.164062 30.722656 0 27.390625 0 C 23.785156 0 20.816406 -1.164062 18.484375 -3.5 C 16.160156 -5.832031 15 -8.726562 15 -12.1875 L 15 -127.75 C 15 -131.21875 16.195312 -134.113281 18.59375 -136.4375 C 20.988281 -138.769531 24.054688 -139.9375 27.796875 -139.9375 C 31.117188 -139.9375 33.976562 -138.769531 36.375 -136.4375 C 38.78125 -134.113281 39.984375 -131.21875 39.984375 -127.75 Z M 39.984375 -12.1875 "/></g></g></g><g fill="rgb(97.648621%, 96.469116%, 91.369629%)" fill-opacity="1"><g transform="translate(3227.615874, 2042.139841)"><g><path d="M 122.546875 -128.15625 C 122.546875 -125.613281 121.613281 -123.078125 119.75 -120.546875 L 43.78125 -22.984375 L 107.5625 -22.984375 C 111.15625 -22.984375 114.082031 -21.953125 116.34375 -19.890625 C 118.613281 -17.828125 119.75 -15.0625 119.75 -11.59375 C 119.75 -8.257812 118.582031 -5.492188 116.25 -3.296875 C 113.914062 -1.097656 111.019531 0 107.5625 0 L 19.796875 0 C 16.328125 0 13.328125 -1.195312 10.796875 -3.59375 C 8.265625 -6 7 -8.734375 7 -11.796875 C 7 -14.328125 7.929688 -16.859375 9.796875 -19.390625 L 85.5625 -116.953125 L 27.796875 -116.953125 C 24.191406 -116.953125 21.253906 -118.019531 18.984375 -120.15625 C 16.722656 -122.289062 15.59375 -125.085938 15.59375 -128.546875 C 15.59375 -131.878906 16.757812 -134.609375 19.09375 -136.734375 C 21.425781 -138.867188 24.328125 -139.9375 27.796875 -139.9375 L 109.5625 -139.9375 C 112.757812 -139.9375 115.722656 -138.800781 118.453125 -136.53125 C 121.179688 -134.269531 122.546875 -131.476562 122.546875 -128.15625 Z M 122.546875 -128.15625 "/></g></g></g><g fill="rgb(97.648621%, 96.469116%, 91.369629%)" fill-opacity="1"><g transform="translate(3440.33037, 2042.139841)"><g><path d="M 124.75 -15.59375 C 125.414062 -13.863281 125.75 -12.265625 125.75 -10.796875 C 125.75 -7.328125 124.613281 -4.492188 122.34375 -2.296875 C 120.082031 -0.0976562 117.488281 1 114.5625 1 C 112.15625 1 109.984375 0.265625 108.046875 -1.203125 C 106.117188 -2.671875 104.625 -4.671875 103.5625 -7.203125 L 93.15625 -31.390625 L 33.59375 -31.390625 L 23.1875 -7 C 22.257812 -4.46875 20.828125 -2.5 18.890625 -1.09375 C 16.960938 0.300781 14.863281 1 12.59375 1 C 9.125 1 6.488281 0.0664062 4.6875 -1.796875 C 2.894531 -3.660156 2 -6.191406 2 -9.390625 C 2 -10.597656 2.195312 -11.863281 2.59375 -13.1875 L 52.375 -132.75 C 53.445312 -135.414062 55.046875 -137.476562 57.171875 -138.9375 C 59.304688 -140.40625 61.707031 -141.007812 64.375 -140.75 C 66.769531 -140.75 69 -140.046875 71.0625 -138.640625 C 73.132812 -137.242188 74.640625 -135.28125 75.578125 -132.75 Z M 43.390625 -54.375 L 83.375 -54.375 L 63.171875 -101.15625 Z M 43.390625 -54.375 "/></g></g></g><g fill="rgb(97.648621%, 96.469116%, 91.369629%)" fill-opacity="1"><g transform="translate(2165.444941, 2309.659012)"><g><path d="M 47.078125 -11.5 C 48.804688 -11.5 50.253906 -10.914062 51.421875 -9.75 C 52.585938 -8.582031 53.171875 -7.234375 53.171875 -5.703125 C 53.171875 -4.035156 52.585938 -2.664062 51.421875 -1.59375 C 50.253906 -0.53125 48.804688 0 47.078125 0 L 13.59375 0 C 11.863281 0 10.414062 -0.582031 9.25 -1.75 C 8.082031 -2.914062 7.5 -4.363281 7.5 -6.09375 L 7.5 -63.875 C 7.5 -65.601562 8.082031 -67.050781 9.25 -68.21875 C 10.414062 -69.382812 11.863281 -69.96875 13.59375 -69.96875 L 47.078125 -69.96875 C 48.804688 -69.96875 50.253906 -69.414062 51.421875 -68.3125 C 52.585938 -67.21875 53.171875 -65.800781 53.171875 -64.0625 C 53.171875 -62.40625 52.601562 -61.054688 51.46875 -60.015625 C 50.34375 -58.984375 48.878906 -58.46875 47.078125 -58.46875 L 19.984375 -58.46875 L 19.984375 -41.484375 L 42.578125 -41.484375 C 44.304688 -41.484375 45.753906 -40.929688 46.921875 -39.828125 C 48.085938 -38.734375 48.671875 -37.316406 48.671875 -35.578125 C 48.671875 -33.910156 48.101562 -32.5625 46.96875 -31.53125 C 45.84375 -30.5 44.378906 -29.984375 42.578125 -29.984375 L 19.984375 -29.984375 L 19.984375 -11.5 Z M 47.078125 -11.5 "/></g></g></g><g fill="rgb(97.648621%, 96.469116%, 91.369629%)" fill-opacity="1"><g transform="translate(2243.612523, 2309.659012)"><g><path d="M 68.171875 -70.0625 C 69.835938 -70.0625 71.285156 -69.476562 72.515625 -68.3125 C 73.742188 -67.144531 74.359375 -65.695312 74.359375 -63.96875 L 74.359375 -6.09375 C 74.359375 -4.363281 73.789062 -2.914062 72.65625 -1.75 C 71.53125 -0.582031 70.035156 0 68.171875 0 C 66.304688 0 64.789062 -0.5625 63.625 -1.6875 C 62.457031 -2.820312 61.875 -4.289062 61.875 -6.09375 L 61.875 -46.375 L 45.375 -21.1875 C 44.707031 -20.382812 43.941406 -19.734375 43.078125 -19.234375 C 42.210938 -18.734375 41.3125 -18.519531 40.375 -18.59375 C 39.507812 -18.519531 38.644531 -18.734375 37.78125 -19.234375 C 36.914062 -19.734375 36.148438 -20.382812 35.484375 -21.1875 L 18.984375 -47.28125 L 18.984375 -6.09375 C 18.984375 -4.289062 18.453125 -2.820312 17.390625 -1.6875 C 16.328125 -0.5625 14.925781 0 13.1875 0 C 11.519531 0 10.15625 -0.582031 9.09375 -1.75 C 8.03125 -2.914062 7.5 -4.363281 7.5 -6.09375 L 7.5 -63.96875 C 7.5 -65.632812 8.113281 -67.066406 9.34375 -68.265625 C 10.570312 -69.460938 12.054688 -70.0625 13.796875 -70.0625 C 14.796875 -70.0625 15.796875 -69.8125 16.796875 -69.3125 C 17.796875 -68.8125 18.5625 -68.164062 19.09375 -67.375 L 40.875 -33.890625 L 63.265625 -67.375 C 63.796875 -68.164062 64.507812 -68.8125 65.40625 -69.3125 C 66.3125 -69.8125 67.234375 -70.0625 68.171875 -70.0625 Z M 68.171875 -70.0625 "/></g></g></g><g fill="rgb(97.648621%, 96.469116%, 91.369629%)" fill-opacity="1"><g transform="translate(2346.469629, 2309.659012)"><g><path d="M 36.390625 -69.96875 C 39.785156 -69.96875 43.015625 -68.953125 46.078125 -66.921875 C 49.140625 -64.890625 51.601562 -62.15625 53.46875 -58.71875 C 55.34375 -55.289062 56.28125 -51.546875 56.28125 -47.484375 C 56.28125 -43.484375 55.34375 -39.75 53.46875 -36.28125 C 51.601562 -32.8125 49.140625 -30.0625 46.078125 -28.03125 C 43.015625 -26 39.785156 -24.984375 36.390625 -24.984375 L 18.984375 -24.984375 L 18.984375 -6.09375 C 18.984375 -4.289062 18.453125 -2.820312 17.390625 -1.6875 C 16.328125 -0.5625 14.925781 0 13.1875 0 C 11.519531 0 10.15625 -0.582031 9.09375 -1.75 C 8.03125 -2.914062 7.5 -4.363281 7.5 -6.09375 L 7.5 -63.875 C 7.5 -65.601562 8.082031 -67.050781 9.25 -68.21875 C 10.414062 -69.382812 11.863281 -69.96875 13.59375 -69.96875 Z M 36.390625 -36.390625 C 37.648438 -36.390625 38.894531 -36.921875 40.125 -37.984375 C 41.363281 -39.046875 42.363281 -40.425781 43.125 -42.125 C 43.894531 -43.820312 44.28125 -45.609375 44.28125 -47.484375 C 44.28125 -49.347656 43.894531 -51.128906 43.125 -52.828125 C 42.363281 -54.523438 41.363281 -55.890625 40.125 -56.921875 C 38.894531 -57.953125 37.648438 -58.46875 36.390625 -58.46875 L 18.984375 -58.46875 L 18.984375 -36.390625 Z M 36.390625 -36.390625 "/></g></g></g><g fill="rgb(97.648621%, 96.469116%, 91.369629%)" fill-opacity="1"><g transform="translate(2427.735888, 2309.659012)"><g><path d="M 62.375 -9.796875 C 63.238281 -9.265625 63.921875 -8.5625 64.421875 -7.6875 C 64.921875 -6.820312 65.171875 -5.925781 65.171875 -5 C 65.171875 -3.800781 64.769531 -2.703125 63.96875 -1.703125 C 62.96875 -0.503906 61.4375 0.09375 59.375 0.09375 C 57.769531 0.09375 56.300781 -0.269531 54.96875 -1 C 50.175781 -3.726562 47.78125 -9.289062 47.78125 -17.6875 C 47.78125 -20.09375 46.992188 -21.992188 45.421875 -23.390625 C 43.859375 -24.785156 41.613281 -25.484375 38.6875 -25.484375 L 19.984375 -25.484375 L 19.984375 -6.09375 C 19.984375 -4.289062 19.5 -2.820312 18.53125 -1.6875 C 17.570312 -0.5625 16.289062 0 14.6875 0 C 12.757812 0 11.078125 -0.582031 9.640625 -1.75 C 8.210938 -2.914062 7.5 -4.363281 7.5 -6.09375 L 7.5 -63.875 C 7.5 -65.601562 8.082031 -67.050781 9.25 -68.21875 C 10.414062 -69.382812 11.863281 -69.96875 13.59375 -69.96875 L 42.375 -69.96875 C 45.84375 -69.96875 49.109375 -69.035156 52.171875 -67.171875 C 55.234375 -65.304688 57.679688 -62.738281 59.515625 -59.46875 C 61.347656 -56.207031 62.265625 -52.546875 62.265625 -48.484375 C 62.265625 -45.148438 61.363281 -41.898438 59.5625 -38.734375 C 57.769531 -35.566406 55.441406 -33.050781 52.578125 -31.1875 C 56.773438 -28.25 59.070312 -24.316406 59.46875 -19.390625 C 59.664062 -18.328125 59.765625 -17.296875 59.765625 -16.296875 C 60.035156 -14.222656 60.300781 -12.738281 60.5625 -11.84375 C 60.832031 -10.945312 61.4375 -10.265625 62.375 -9.796875 Z M 41.875 -35.78125 C 43.070312 -35.78125 44.238281 -36.347656 45.375 -37.484375 C 46.507812 -38.617188 47.441406 -40.132812 48.171875 -42.03125 C 48.910156 -43.925781 49.28125 -45.972656 49.28125 -48.171875 C 49.28125 -50.035156 48.910156 -51.75 48.171875 -53.3125 C 47.441406 -54.882812 46.507812 -56.132812 45.375 -57.0625 C 44.238281 -58 43.070312 -58.46875 41.875 -58.46875 L 19.984375 -58.46875 L 19.984375 -35.78125 Z M 41.875 -35.78125 "/></g></g></g><g fill="rgb(97.648621%, 96.469116%, 91.369629%)" fill-opacity="1"><g transform="translate(2517.398573, 2309.659012)"><g><path d="M 47.078125 -11.5 C 48.804688 -11.5 50.253906 -10.914062 51.421875 -9.75 C 52.585938 -8.582031 53.171875 -7.234375 53.171875 -5.703125 C 53.171875 -4.035156 52.585938 -2.664062 51.421875 -1.59375 C 50.253906 -0.53125 48.804688 0 47.078125 0 L 13.59375 0 C 11.863281 0 10.414062 -0.582031 9.25 -1.75 C 8.082031 -2.914062 7.5 -4.363281 7.5 -6.09375 L 7.5 -63.875 C 7.5 -65.601562 8.082031 -67.050781 9.25 -68.21875 C 10.414062 -69.382812 11.863281 -69.96875 13.59375 -69.96875 L 47.078125 -69.96875 C 48.804688 -69.96875 50.253906 -69.414062 51.421875 -68.3125 C 52.585938 -67.21875 53.171875 -65.800781 53.171875 -64.0625 C 53.171875 -62.40625 52.601562 -61.054688 51.46875 -60.015625 C 50.34375 -58.984375 48.878906 -58.46875 47.078125 -58.46875 L 19.984375 -58.46875 L 19.984375 -41.484375 L 42.578125 -41.484375 C 44.304688 -41.484375 45.753906 -40.929688 46.921875 -39.828125 C 48.085938 -38.734375 48.671875 -37.316406 48.671875 -35.578125 C 48.671875 -33.910156 48.101562 -32.5625 46.96875 -31.53125 C 45.84375 -30.5 44.378906 -29.984375 42.578125 -29.984375 L 19.984375 -29.984375 L 19.984375 -11.5 Z M 47.078125 -11.5 "/></g></g></g><g fill="rgb(97.648621%, 96.469116%, 91.369629%)" fill-opacity="1"><g transform="translate(2595.566167, 2309.659012)"><g><path d="M 47.078125 -11.5 C 48.804688 -11.5 50.253906 -10.914062 51.421875 -9.75 C 52.585938 -8.582031 53.171875 -7.234375 53.171875 -5.703125 C 53.171875 -4.035156 52.585938 -2.664062 51.421875 -1.59375 C 50.253906 -0.53125 48.804688 0 47.078125 0 L 13.59375 0 C 11.863281 0 10.414062 -0.582031 9.25 -1.75 C 8.082031 -2.914062 7.5 -4.363281 7.5 -6.09375 L 7.5 -63.875 C 7.5 -65.601562 8.082031 -67.050781 9.25 -68.21875 C 10.414062 -69.382812 11.863281 -69.96875 13.59375 -69.96875 L 47.078125 -69.96875 C 48.804688 -69.96875 50.253906 -69.414062 51.421875 -68.3125 C 52.585938 -67.21875 53.171875 -65.800781 53.171875 -64.0625 C 53.171875 -62.40625 52.601562 -61.054688 51.46875 -60.015625 C 50.34375 -58.984375 48.878906 -58.46875 47.078125 -58.46875 L 19.984375 -58.46875 L 19.984375 -41.484375 L 42.578125 -41.484375 C 44.304688 -41.484375 45.753906 -40.929688 46.921875 -39.828125 C 48.085938 -38.734375 48.671875 -37.316406 48.671875 -35.578125 C 48.671875 -33.910156 48.101562 -32.5625 46.96875 -31.53125 C 45.84375 -30.5 44.378906 -29.984375 42.578125 -29.984375 L 19.984375 -29.984375 L 19.984375 -11.5 Z M 47.078125 -11.5 "/></g></g></g><g fill="rgb(97.648621%, 96.469116%, 91.369629%)" fill-opacity="1"><g transform="translate(2673.733761, 2309.659012)"><g><path d="M 60.578125 -69.96875 C 62.171875 -69.96875 63.46875 -69.429688 64.46875 -68.359375 C 65.46875 -67.296875 65.96875 -65.96875 65.96875 -64.375 L 65.96875 -6.09375 C 65.96875 -4.363281 65.382812 -2.914062 64.21875 -1.75 C 63.050781 -0.582031 61.601562 0 59.875 0 C 58.9375 0 58.019531 -0.148438 57.125 -0.453125 C 56.226562 -0.753906 55.578125 -1.171875 55.171875 -1.703125 L 18.484375 -48.28125 L 18.484375 -5.59375 C 18.484375 -4 17.96875 -2.664062 16.9375 -1.59375 C 15.90625 -0.53125 14.554688 0 12.890625 0 C 11.296875 0 10 -0.53125 9 -1.59375 C 8 -2.664062 7.5 -4 7.5 -5.59375 L 7.5 -63.875 C 7.5 -65.601562 8.082031 -67.050781 9.25 -68.21875 C 10.414062 -69.382812 11.863281 -69.96875 13.59375 -69.96875 C 14.59375 -69.96875 15.570312 -69.765625 16.53125 -69.359375 C 17.5 -68.960938 18.21875 -68.429688 18.6875 -67.765625 L 55.078125 -21.390625 L 55.078125 -64.375 C 55.078125 -65.96875 55.59375 -67.296875 56.625 -68.359375 C 57.65625 -69.429688 58.972656 -69.96875 60.578125 -69.96875 Z M 60.578125 -69.96875 "/></g></g></g><g fill="rgb(97.648621%, 96.469116%, 91.369629%)" fill-opacity="1"><g transform="translate(2768.19443, 2309.659012)"><g><path d="M 37.484375 -69.96875 C 43.742188 -69.96875 49.125 -68.414062 53.625 -65.3125 C 58.125 -62.21875 61.554688 -58.019531 63.921875 -52.71875 C 66.285156 -47.425781 67.46875 -41.515625 67.46875 -34.984375 C 67.46875 -28.453125 66.285156 -22.535156 63.921875 -17.234375 C 61.554688 -11.941406 58.125 -7.742188 53.625 -4.640625 C 49.125 -1.546875 43.742188 0 37.484375 0 L 13.59375 0 C 11.863281 0 10.414062 -0.582031 9.25 -1.75 C 8.082031 -2.914062 7.5 -4.363281 7.5 -6.09375 L 7.5 -63.875 C 7.5 -65.601562 8.082031 -67.050781 9.25 -68.21875 C 10.414062 -69.382812 11.863281 -69.96875 13.59375 -69.96875 Z M 36.484375 -11.5 C 42.484375 -11.5 46.976562 -13.710938 49.96875 -18.140625 C 52.96875 -22.566406 54.46875 -28.179688 54.46875 -34.984375 C 54.46875 -41.773438 52.953125 -47.382812 49.921875 -51.8125 C 46.890625 -56.25 42.410156 -58.46875 36.484375 -58.46875 L 19.984375 -58.46875 L 19.984375 -11.5 Z M 36.484375 -11.5 "/></g></g></g><g fill="rgb(97.648621%, 96.469116%, 91.369629%)" fill-opacity="1"><g transform="translate(2860.655947, 2309.659012)"><g><path d="M 47.078125 -11.5 C 48.804688 -11.5 50.253906 -10.914062 51.421875 -9.75 C 52.585938 -8.582031 53.171875 -7.234375 53.171875 -5.703125 C 53.171875 -4.035156 52.585938 -2.664062 51.421875 -1.59375 C 50.253906 -0.53125 48.804688 0 47.078125 0 L 13.59375 0 C 11.863281 0 10.414062 -0.582031 9.25 -1.75 C 8.082031 -2.914062 7.5 -4.363281 7.5 -6.09375 L 7.5 -63.875 C 7.5 -65.601562 8.082031 -67.050781 9.25 -68.21875 C 10.414062 -69.382812 11.863281 -69.96875 13.59375 -69.96875 L 47.078125 -69.96875 C 48.804688 -69.96875 50.253906 -69.414062 51.421875 -68.3125 C 52.585938 -67.21875 53.171875 -65.800781 53.171875 -64.0625 C 53.171875 -62.40625 52.601562 -61.054688 51.46875 -60.015625 C 50.34375 -58.984375 48.878906 -58.46875 47.078125 -58.46875 L 19.984375 -58.46875 L 19.984375 -41.484375 L 42.578125 -41.484375 C 44.304688 -41.484375 45.753906 -40.929688 46.921875 -39.828125 C 48.085938 -38.734375 48.671875 -37.316406 48.671875 -35.578125 C 48.671875 -33.910156 48.101562 -32.5625 46.96875 -31.53125 C 45.84375 -30.5 44.378906 -29.984375 42.578125 -29.984375 L 19.984375 -29.984375 L 19.984375 -11.5 Z M 47.078125 -11.5 "/></g></g></g><g fill="rgb(97.648621%, 96.469116%, 91.369629%)" fill-opacity="1"><g transform="translate(2938.82354, 2309.659012)"><g><path d="M 37.484375 -69.96875 C 43.742188 -69.96875 49.125 -68.414062 53.625 -65.3125 C 58.125 -62.21875 61.554688 -58.019531 63.921875 -52.71875 C 66.285156 -47.425781 67.46875 -41.515625 67.46875 -34.984375 C 67.46875 -28.453125 66.285156 -22.535156 63.921875 -17.234375 C 61.554688 -11.941406 58.125 -7.742188 53.625 -4.640625 C 49.125 -1.546875 43.742188 0 37.484375 0 L 13.59375 0 C 11.863281 0 10.414062 -0.582031 9.25 -1.75 C 8.082031 -2.914062 7.5 -4.363281 7.5 -6.09375 L 7.5 -63.875 C 7.5 -65.601562 8.082031 -67.050781 9.25 -68.21875 C 10.414062 -69.382812 11.863281 -69.96875 13.59375 -69.96875 Z M 36.484375 -11.5 C 42.484375 -11.5 46.976562 -13.710938 49.96875 -18.140625 C 52.96875 -22.566406 54.46875 -28.179688 54.46875 -34.984375 C 54.46875 -41.773438 52.953125 -47.382812 49.921875 -51.8125 C 46.890625 -56.25 42.410156 -58.46875 36.484375 -58.46875 L 19.984375 -58.46875 L 19.984375 -11.5 Z M 36.484375 -11.5 "/></g></g></g><g fill="rgb(97.648621%, 96.469116%, 91.369629%)" fill-opacity="1"><g transform="translate(3031.285057, 2309.659012)"><g><path d="M 71.859375 -34.984375 C 71.859375 -28.390625 70.394531 -22.34375 67.46875 -16.84375 C 64.539062 -11.34375 60.492188 -6.992188 55.328125 -3.796875 C 50.160156 -0.597656 44.34375 1 37.875 1 C 31.414062 1 25.601562 -0.597656 20.4375 -3.796875 C 15.269531 -6.992188 11.238281 -11.34375 8.34375 -16.84375 C 5.445312 -22.34375 4 -28.390625 4 -34.984375 C 4 -41.578125 5.445312 -47.625 8.34375 -53.125 C 11.238281 -58.625 15.269531 -62.972656 20.4375 -66.171875 C 25.601562 -69.367188 31.414062 -70.96875 37.875 -70.96875 C 44.34375 -70.96875 50.160156 -69.367188 55.328125 -66.171875 C 60.492188 -62.972656 64.539062 -58.625 67.46875 -53.125 C 70.394531 -47.625 71.859375 -41.578125 71.859375 -34.984375 Z M 58.875 -34.984375 C 58.875 -39.453125 57.972656 -43.5 56.171875 -47.125 C 54.367188 -50.757812 51.867188 -53.640625 48.671875 -55.765625 C 45.472656 -57.898438 41.875 -58.96875 37.875 -58.96875 C 33.8125 -58.96875 30.195312 -57.914062 27.03125 -55.8125 C 23.875 -53.71875 21.410156 -50.835938 19.640625 -47.171875 C 17.867188 -43.515625 16.984375 -39.453125 16.984375 -34.984375 C 16.984375 -30.515625 17.867188 -26.445312 19.640625 -22.78125 C 21.410156 -19.125 23.875 -16.242188 27.03125 -14.140625 C 30.195312 -12.046875 33.8125 -11 37.875 -11 C 41.875 -11 45.472656 -12.0625 48.671875 -14.1875 C 51.867188 -16.320312 54.367188 -19.203125 56.171875 -22.828125 C 57.972656 -26.460938 58.875 -30.515625 58.875 -34.984375 Z M 58.875 -34.984375 "/></g></g></g><g fill="rgb(97.648621%, 96.469116%, 91.369629%)" fill-opacity="1"><g transform="translate(3128.144718, 2309.659012)"><g><path d="M 62.375 -9.796875 C 63.238281 -9.265625 63.921875 -8.5625 64.421875 -7.6875 C 64.921875 -6.820312 65.171875 -5.925781 65.171875 -5 C 65.171875 -3.800781 64.769531 -2.703125 63.96875 -1.703125 C 62.96875 -0.503906 61.4375 0.09375 59.375 0.09375 C 57.769531 0.09375 56.300781 -0.269531 54.96875 -1 C 50.175781 -3.726562 47.78125 -9.289062 47.78125 -17.6875 C 47.78125 -20.09375 46.992188 -21.992188 45.421875 -23.390625 C 43.859375 -24.785156 41.613281 -25.484375 38.6875 -25.484375 L 19.984375 -25.484375 L 19.984375 -6.09375 C 19.984375 -4.289062 19.5 -2.820312 18.53125 -1.6875 C 17.570312 -0.5625 16.289062 0 14.6875 0 C 12.757812 0 11.078125 -0.582031 9.640625 -1.75 C 8.210938 -2.914062 7.5 -4.363281 7.5 -6.09375 L 7.5 -63.875 C 7.5 -65.601562 8.082031 -67.050781 9.25 -68.21875 C 10.414062 -69.382812 11.863281 -69.96875 13.59375 -69.96875 L 42.375 -69.96875 C 45.84375 -69.96875 49.109375 -69.035156 52.171875 -67.171875 C 55.234375 -65.304688 57.679688 -62.738281 59.515625 -59.46875 C 61.347656 -56.207031 62.265625 -52.546875 62.265625 -48.484375 C 62.265625 -45.148438 61.363281 -41.898438 59.5625 -38.734375 C 57.769531 -35.566406 55.441406 -33.050781 52.578125 -31.1875 C 56.773438 -28.25 59.070312 -24.316406 59.46875 -19.390625 C 59.664062 -18.328125 59.765625 -17.296875 59.765625 -16.296875 C 60.035156 -14.222656 60.300781 -12.738281 60.5625 -11.84375 C 60.832031 -10.945312 61.4375 -10.265625 62.375 -9.796875 Z M 41.875 -35.78125 C 43.070312 -35.78125 44.238281 -36.347656 45.375 -37.484375 C 46.507812 -38.617188 47.441406 -40.132812 48.171875 -42.03125 C 48.910156 -43.925781 49.28125 -45.972656 49.28125 -48.171875 C 49.28125 -50.035156 48.910156 -51.75 48.171875 -53.3125 C 47.441406 -54.882812 46.507812 -56.132812 45.375 -57.0625 C 44.238281 -58 43.070312 -58.46875 41.875 -58.46875 L 19.984375 -58.46875 L 19.984375 -35.78125 Z M 41.875 -35.78125 "/></g></g></g></svg>