<svg xmlns="http://www.w3.org/2000/svg" xmlns:xlink="http://www.w3.org/1999/xlink" width="5184" viewBox="0 0 5184 2592" height="2592" version="1.0"><defs><clipPath id="a"><path d="M 1 0 L 5183 0 L 5183 2591 L 1 2591 Z M 1 0"/></clipPath><clipPath id="b"><path d="M 1776 251 L 3680 251 L 3680 1771 L 1776 1771 Z M 1776 251"/></clipPath><clipPath id="c"><path d="M 3162.832031 1576.972656 C 3080.042969 1579.558594 3001.566406 1563.175781 2930.851562 1532.128906 C 2871.34375 1506.253906 2801.492188 1527.816406 2767.859375 1583.871094 C 2698.867188 1695.125 2575.546875 1770.15625 2434.980469 1770.15625 C 2343.566406 1770.15625 2259.050781 1738.246094 2192.648438 1685.636719 C 2085.710938 1600.257812 2033.96875 1463.132812 2051.21875 1326.871094 L 2068.464844 1194.058594 C 2070.191406 1177.675781 2058.980469 1163.011719 2042.59375 1161.289062 C 1893.402344 1145.765625 1776.980469 1020.714844 1776.980469 867.203125 C 1776.980469 736.117188 1863.21875 624.003906 1981.363281 586.054688 C 1993.4375 582.605469 2002.925781 572.257812 2005.511719 560.183594 C 2048.628906 382.527344 2208.171875 251.4375 2398.757812 251.4375 C 2543.640625 251.4375 2670.410156 327.332031 2741.988281 442.03125 C 2792.007812 522.238281 2888.59375 560.183594 2978.28125 530.859375 C 3030.023438 513.613281 3086.078125 504.988281 3143.859375 504.988281 C 3437.070312 504.988281 3675.089844 740.429688 3679.398438 1031.925781 C 3685.4375 1323.421875 3453.457031 1567.488281 3162.832031 1576.972656 Z M 3162.832031 1576.972656"/></clipPath><clipPath id="e"><path d="M 2868 219 L 3066 219 L 3066 417 L 2868 417 Z M 2868 219"/></clipPath><clipPath id="f"><path d="M 3065.382812 317.84375 C 3065.382812 316.234375 3065.34375 314.628906 3065.265625 313.019531 C 3065.183594 311.414062 3065.066406 309.808594 3064.910156 308.207031 C 3064.75 306.605469 3064.554688 305.011719 3064.316406 303.417969 C 3064.082031 301.828125 3063.808594 300.242188 3063.492188 298.664062 C 3063.179688 297.085938 3062.828125 295.515625 3062.4375 293.957031 C 3062.042969 292.394531 3061.617188 290.84375 3061.148438 289.304688 C 3060.683594 287.765625 3060.175781 286.238281 3059.636719 284.722656 C 3059.09375 283.207031 3058.515625 281.707031 3057.898438 280.21875 C 3057.28125 278.734375 3056.632812 277.261719 3055.941406 275.808594 C 3055.253906 274.355469 3054.53125 272.917969 3053.773438 271.5 C 3053.015625 270.078125 3052.222656 268.679688 3051.394531 267.300781 C 3050.566406 265.921875 3049.707031 264.5625 3048.8125 263.222656 C 3047.917969 261.886719 3046.992188 260.570312 3046.035156 259.277344 C 3045.078125 257.984375 3044.085938 256.71875 3043.066406 255.472656 C 3042.046875 254.230469 3040.996094 253.011719 3039.914062 251.820312 C 3038.835938 250.628906 3037.726562 249.460938 3036.585938 248.324219 C 3035.449219 247.1875 3034.285156 246.078125 3033.09375 244.996094 C 3031.898438 243.917969 3030.683594 242.867188 3029.4375 241.84375 C 3028.195312 240.824219 3026.925781 239.835938 3025.632812 238.875 C 3024.34375 237.917969 3023.027344 236.992188 3021.6875 236.097656 C 3020.351562 235.203125 3018.992188 234.34375 3017.613281 233.515625 C 3016.234375 232.6875 3014.832031 231.894531 3013.414062 231.136719 C 3011.996094 230.378906 3010.558594 229.65625 3009.105469 228.96875 C 3007.648438 228.28125 3006.179688 227.628906 3004.691406 227.011719 C 3003.207031 226.398438 3001.707031 225.816406 3000.191406 225.277344 C 2998.675781 224.734375 2997.148438 224.230469 2995.609375 223.761719 C 2994.070312 223.292969 2992.519531 222.867188 2990.957031 222.476562 C 2989.398438 222.082031 2987.828125 221.730469 2986.25 221.417969 C 2984.671875 221.105469 2983.085938 220.828125 2981.496094 220.59375 C 2979.902344 220.355469 2978.308594 220.160156 2976.707031 220 C 2975.105469 219.84375 2973.5 219.726562 2971.894531 219.648438 C 2970.289062 219.566406 2968.679688 219.527344 2967.070312 219.527344 C 2965.460938 219.527344 2963.851562 219.566406 2962.246094 219.648438 C 2960.640625 219.726562 2959.035156 219.84375 2957.433594 220 C 2955.832031 220.160156 2954.238281 220.355469 2952.644531 220.59375 C 2951.054688 220.828125 2949.46875 221.105469 2947.890625 221.417969 C 2946.3125 221.730469 2944.742188 222.085938 2943.183594 222.476562 C 2941.621094 222.867188 2940.070312 223.292969 2938.53125 223.761719 C 2936.992188 224.230469 2935.464844 224.734375 2933.949219 225.277344 C 2932.433594 225.816406 2930.933594 226.398438 2929.449219 227.011719 C 2927.960938 227.628906 2926.492188 228.28125 2925.035156 228.96875 C 2923.582031 229.65625 2922.144531 230.378906 2920.726562 231.136719 C 2919.308594 231.894531 2917.90625 232.6875 2916.527344 233.515625 C 2915.148438 234.34375 2913.789062 235.203125 2912.449219 236.097656 C 2911.113281 236.992188 2909.796875 237.917969 2908.507812 238.875 C 2907.214844 239.835938 2905.945312 240.824219 2904.703125 241.84375 C 2903.457031 242.867188 2902.238281 243.917969 2901.046875 244.996094 C 2899.855469 246.078125 2898.691406 247.1875 2897.554688 248.324219 C 2896.414062 249.460938 2895.304688 250.628906 2894.226562 251.820312 C 2893.144531 253.011719 2892.09375 254.230469 2891.074219 255.472656 C 2890.054688 256.71875 2889.0625 257.984375 2888.105469 259.277344 C 2887.148438 260.570312 2886.222656 261.886719 2885.328125 263.222656 C 2884.433594 264.5625 2883.574219 265.921875 2882.746094 267.300781 C 2881.917969 268.679688 2881.125 270.078125 2880.367188 271.5 C 2879.609375 272.917969 2878.886719 274.355469 2878.195312 275.808594 C 2877.507812 277.261719 2876.859375 278.734375 2876.242188 280.21875 C 2875.625 281.707031 2875.046875 283.207031 2874.503906 284.722656 C 2873.964844 286.238281 2873.457031 287.765625 2872.992188 289.304688 C 2872.523438 290.84375 2872.09375 292.394531 2871.703125 293.957031 C 2871.3125 295.515625 2870.960938 297.085938 2870.648438 298.664062 C 2870.332031 300.242188 2870.058594 301.828125 2869.824219 303.417969 C 2869.585938 305.011719 2869.390625 306.605469 2869.230469 308.207031 C 2869.074219 309.808594 2868.957031 311.414062 2868.875 313.019531 C 2868.796875 314.628906 2868.757812 316.234375 2868.757812 317.84375 C 2868.757812 319.453125 2868.796875 321.0625 2868.875 322.667969 C 2868.957031 324.277344 2869.074219 325.878906 2869.230469 327.480469 C 2869.390625 329.082031 2869.585938 330.679688 2869.824219 332.269531 C 2870.058594 333.863281 2870.332031 335.445312 2870.648438 337.023438 C 2870.960938 338.601562 2871.3125 340.171875 2871.703125 341.734375 C 2872.09375 343.292969 2872.523438 344.84375 2872.992188 346.382812 C 2873.457031 347.921875 2873.964844 349.449219 2874.503906 350.964844 C 2875.046875 352.480469 2875.625 353.980469 2876.242188 355.46875 C 2876.859375 356.953125 2877.507812 358.425781 2878.195312 359.878906 C 2878.886719 361.335938 2879.609375 362.769531 2880.367188 364.191406 C 2881.125 365.609375 2881.917969 367.007812 2882.746094 368.386719 C 2883.574219 369.769531 2884.433594 371.128906 2885.328125 372.464844 C 2886.21875 373.804688 2887.148438 375.117188 2888.105469 376.410156 C 2889.0625 377.703125 2890.054688 378.972656 2891.074219 380.214844 C 2892.09375 381.457031 2893.144531 382.675781 2894.226562 383.867188 C 2895.304688 385.0625 2896.414062 386.226562 2897.554688 387.363281 C 2898.691406 388.5 2899.855469 389.609375 2901.046875 390.691406 C 2902.238281 391.773438 2903.457031 392.824219 2904.703125 393.84375 C 2905.945312 394.863281 2907.214844 395.855469 2908.507812 396.8125 C 2909.796875 397.769531 2911.113281 398.695312 2912.449219 399.589844 C 2913.789062 400.484375 2915.148438 401.34375 2916.527344 402.171875 C 2917.90625 403 2919.308594 403.792969 2920.726562 404.550781 C 2922.144531 405.308594 2923.582031 406.03125 2925.035156 406.71875 C 2926.492188 407.410156 2927.960938 408.058594 2929.449219 408.675781 C 2930.933594 409.292969 2932.433594 409.871094 2933.949219 410.414062 C 2935.464844 410.953125 2936.992188 411.460938 2938.53125 411.925781 C 2940.070312 412.394531 2941.621094 412.824219 2943.183594 413.214844 C 2944.742188 413.605469 2946.3125 413.957031 2947.890625 414.269531 C 2949.46875 414.585938 2951.054688 414.859375 2952.644531 415.09375 C 2954.238281 415.332031 2955.832031 415.527344 2957.433594 415.6875 C 2959.035156 415.84375 2960.640625 415.960938 2962.246094 416.042969 C 2963.851562 416.121094 2965.460938 416.160156 2967.070312 416.160156 C 2968.679688 416.160156 2970.289062 416.121094 2971.894531 416.042969 C 2973.5 415.960938 2975.105469 415.84375 2976.707031 415.6875 C 2978.308594 415.527344 2979.902344 415.332031 2981.496094 415.09375 C 2983.085938 414.859375 2984.671875 414.585938 2986.25 414.269531 C 2987.828125 413.957031 2989.398438 413.605469 2990.957031 413.214844 C 2992.519531 412.824219 2994.070312 412.394531 2995.609375 411.925781 C 2997.148438 411.460938 2998.675781 410.953125 3000.191406 410.414062 C 3001.707031 409.871094 3003.207031 409.292969 3004.691406 408.675781 C 3006.179688 408.058594 3007.648438 407.410156 3009.105469 406.71875 C 3010.558594 406.03125 3011.996094 405.308594 3013.414062 404.550781 C 3014.832031 403.792969 3016.234375 403 3017.613281 402.171875 C 3018.992188 401.34375 3020.351562 400.484375 3021.6875 399.589844 C 3023.027344 398.695312 3024.34375 397.769531 3025.632812 396.8125 C 3026.925781 395.855469 3028.195312 394.863281 3029.4375 393.84375 C 3030.683594 392.824219 3031.898438 391.773438 3033.09375 390.691406 C 3034.285156 389.609375 3035.449219 388.5 3036.585938 387.363281 C 3037.726562 386.226562 3038.835938 385.0625 3039.914062 383.867188 C 3040.996094 382.675781 3042.046875 381.457031 3043.066406 380.214844 C 3044.085938 378.972656 3045.078125 377.703125 3046.035156 376.410156 C 3046.992188 375.117188 3047.917969 373.804688 3048.8125 372.464844 C 3049.707031 371.128906 3050.566406 369.769531 3051.394531 368.386719 C 3052.222656 367.007812 3053.015625 365.609375 3053.773438 364.191406 C 3054.53125 362.769531 3055.253906 361.335938 3055.941406 359.878906 C 3056.632812 358.425781 3057.28125 356.953125 3057.898438 355.46875 C 3058.515625 353.980469 3059.09375 352.480469 3059.636719 350.964844 C 3060.175781 349.449219 3060.683594 347.921875 3061.148438 346.382812 C 3061.617188 344.84375 3062.042969 343.292969 3062.4375 341.734375 C 3062.828125 340.171875 3063.179688 338.601562 3063.492188 337.023438 C 3063.808594 335.445312 3064.082031 333.863281 3064.316406 332.269531 C 3064.554688 330.679688 3064.75 329.082031 3064.910156 327.480469 C 3065.066406 325.878906 3065.183594 324.277344 3065.265625 322.667969 C 3065.34375 321.0625 3065.382812 319.453125 3065.382812 317.84375 Z M 3065.382812 317.84375"/></clipPath><clipPath id="h"><path d="M 2819 1636 L 3015 1636 L 3015 1831.386719 L 2819 1831.386719 Z M 2819 1636"/></clipPath><clipPath id="i"><path d="M 3014.5 1733.933594 C 3014.5 1732.339844 3014.460938 1730.742188 3014.382812 1729.152344 C 3014.304688 1727.558594 3014.1875 1725.96875 3014.03125 1724.378906 C 3013.875 1722.792969 3013.679688 1721.210938 3013.445312 1719.632812 C 3013.210938 1718.054688 3012.941406 1716.484375 3012.628906 1714.921875 C 3012.316406 1713.355469 3011.96875 1711.800781 3011.582031 1710.253906 C 3011.195312 1708.707031 3010.769531 1707.171875 3010.304688 1705.644531 C 3009.84375 1704.117188 3009.34375 1702.605469 3008.804688 1701.101562 C 3008.265625 1699.601562 3007.695312 1698.113281 3007.082031 1696.640625 C 3006.472656 1695.164062 3005.828125 1693.707031 3005.144531 1692.265625 C 3004.464844 1690.824219 3003.746094 1689.398438 3002.996094 1687.992188 C 3002.242188 1686.585938 3001.457031 1685.199219 3000.636719 1683.832031 C 2999.816406 1682.464844 2998.964844 1681.117188 2998.078125 1679.789062 C 2997.191406 1678.464844 2996.273438 1677.160156 2995.324219 1675.878906 C 2994.375 1674.597656 2993.394531 1673.34375 2992.382812 1672.109375 C 2991.371094 1670.875 2990.328125 1669.667969 2989.257812 1668.488281 C 2988.1875 1667.304688 2987.085938 1666.152344 2985.960938 1665.023438 C 2984.832031 1663.894531 2983.675781 1662.796875 2982.496094 1661.726562 C 2981.3125 1660.652344 2980.105469 1659.613281 2978.875 1658.601562 C 2977.640625 1657.589844 2976.382812 1656.609375 2975.101562 1655.65625 C 2973.820312 1654.707031 2972.519531 1653.789062 2971.191406 1652.902344 C 2969.867188 1652.015625 2968.519531 1651.164062 2967.152344 1650.34375 C 2965.78125 1649.523438 2964.394531 1648.738281 2962.988281 1647.988281 C 2961.582031 1647.234375 2960.160156 1646.519531 2958.714844 1645.835938 C 2957.273438 1645.15625 2955.816406 1644.507812 2954.34375 1643.898438 C 2952.871094 1643.289062 2951.382812 1642.714844 2949.882812 1642.175781 C 2948.378906 1641.640625 2946.867188 1641.140625 2945.339844 1640.675781 C 2943.8125 1640.214844 2942.277344 1639.789062 2940.730469 1639.398438 C 2939.183594 1639.011719 2937.628906 1638.664062 2936.0625 1638.351562 C 2934.5 1638.042969 2932.929688 1637.769531 2931.351562 1637.535156 C 2929.773438 1637.300781 2928.191406 1637.105469 2926.605469 1636.949219 C 2925.015625 1636.792969 2923.425781 1636.675781 2921.832031 1636.597656 C 2920.242188 1636.519531 2918.648438 1636.480469 2917.050781 1636.480469 C 2915.457031 1636.480469 2913.863281 1636.519531 2912.269531 1636.597656 C 2910.675781 1636.675781 2909.085938 1636.792969 2907.5 1636.949219 C 2905.914062 1637.105469 2904.332031 1637.300781 2902.753906 1637.535156 C 2901.175781 1637.769531 2899.605469 1638.042969 2898.039062 1638.351562 C 2896.476562 1638.664062 2894.921875 1639.011719 2893.375 1639.398438 C 2891.828125 1639.789062 2890.289062 1640.214844 2888.765625 1640.675781 C 2887.238281 1641.140625 2885.722656 1641.640625 2884.222656 1642.175781 C 2882.71875 1642.714844 2881.234375 1643.289062 2879.757812 1643.898438 C 2878.285156 1644.507812 2876.828125 1645.15625 2875.386719 1645.835938 C 2873.945312 1646.519531 2872.519531 1647.234375 2871.113281 1647.988281 C 2869.707031 1648.738281 2868.320312 1649.523438 2866.953125 1650.34375 C 2865.585938 1651.164062 2864.238281 1652.015625 2862.910156 1652.902344 C 2861.585938 1653.789062 2860.28125 1654.707031 2859 1655.65625 C 2857.71875 1656.609375 2856.464844 1657.589844 2855.230469 1658.601562 C 2853.996094 1659.613281 2852.789062 1660.652344 2851.609375 1661.726562 C 2850.425781 1662.796875 2849.273438 1663.894531 2848.144531 1665.023438 C 2847.015625 1666.152344 2845.917969 1667.304688 2844.847656 1668.488281 C 2843.777344 1669.667969 2842.734375 1670.875 2841.722656 1672.109375 C 2840.710938 1673.34375 2839.730469 1674.597656 2838.78125 1675.878906 C 2837.828125 1677.160156 2836.910156 1678.464844 2836.027344 1679.789062 C 2835.140625 1681.117188 2834.285156 1682.464844 2833.464844 1683.832031 C 2832.648438 1685.199219 2831.859375 1686.585938 2831.109375 1687.992188 C 2830.355469 1689.398438 2829.640625 1690.824219 2828.957031 1692.265625 C 2828.277344 1693.707031 2827.628906 1695.164062 2827.019531 1696.640625 C 2826.410156 1698.113281 2825.835938 1699.601562 2825.300781 1701.101562 C 2824.761719 1702.605469 2824.261719 1704.117188 2823.796875 1705.644531 C 2823.335938 1707.171875 2822.910156 1708.707031 2822.523438 1710.253906 C 2822.136719 1711.800781 2821.785156 1713.355469 2821.476562 1714.921875 C 2821.164062 1716.484375 2820.890625 1718.054688 2820.65625 1719.632812 C 2820.421875 1721.210938 2820.226562 1722.792969 2820.070312 1724.378906 C 2819.914062 1725.96875 2819.796875 1727.558594 2819.71875 1729.152344 C 2819.640625 1730.742188 2819.601562 1732.339844 2819.601562 1733.933594 C 2819.601562 1735.527344 2819.640625 1737.121094 2819.71875 1738.714844 C 2819.796875 1740.308594 2819.914062 1741.898438 2820.070312 1743.484375 C 2820.226562 1745.070312 2820.421875 1746.65625 2820.65625 1748.230469 C 2820.890625 1749.808594 2821.164062 1751.378906 2821.476562 1752.945312 C 2821.785156 1754.507812 2822.136719 1756.066406 2822.523438 1757.613281 C 2822.910156 1759.160156 2823.335938 1760.695312 2823.796875 1762.222656 C 2824.261719 1763.75 2824.761719 1765.261719 2825.296875 1766.765625 C 2825.835938 1768.265625 2826.410156 1769.753906 2827.019531 1771.226562 C 2827.628906 1772.699219 2828.277344 1774.15625 2828.957031 1775.597656 C 2829.640625 1777.042969 2830.355469 1778.464844 2831.109375 1779.871094 C 2831.859375 1781.277344 2832.648438 1782.664062 2833.464844 1784.035156 C 2834.285156 1785.402344 2835.140625 1786.75 2836.027344 1788.074219 C 2836.910156 1789.402344 2837.828125 1790.703125 2838.78125 1791.984375 C 2839.730469 1793.265625 2840.710938 1794.523438 2841.722656 1795.757812 C 2842.734375 1796.988281 2843.777344 1798.195312 2844.847656 1799.378906 C 2845.917969 1800.558594 2847.015625 1801.714844 2848.144531 1802.84375 C 2849.273438 1803.96875 2850.425781 1805.070312 2851.609375 1806.140625 C 2852.789062 1807.210938 2853.996094 1808.253906 2855.230469 1809.265625 C 2856.464844 1810.277344 2857.71875 1811.257812 2859 1812.207031 C 2860.28125 1813.15625 2861.585938 1814.074219 2862.910156 1814.960938 C 2864.238281 1815.847656 2865.585938 1816.703125 2866.953125 1817.519531 C 2868.320312 1818.339844 2869.707031 1819.128906 2871.113281 1819.878906 C 2872.519531 1820.628906 2873.945312 1821.347656 2875.386719 1822.03125 C 2876.828125 1822.710938 2878.285156 1823.359375 2879.757812 1823.96875 C 2881.234375 1824.578125 2882.71875 1825.152344 2884.222656 1825.6875 C 2885.722656 1826.226562 2887.238281 1826.726562 2888.765625 1827.191406 C 2890.289062 1827.652344 2891.828125 1828.078125 2893.375 1828.464844 C 2894.921875 1828.851562 2896.476562 1829.203125 2898.039062 1829.511719 C 2899.605469 1829.824219 2901.175781 1830.097656 2902.753906 1830.332031 C 2904.332031 1830.566406 2905.914062 1830.761719 2907.5 1830.917969 C 2909.085938 1831.074219 2910.675781 1831.191406 2912.269531 1831.269531 C 2913.863281 1831.347656 2915.457031 1831.386719 2917.050781 1831.386719 C 2918.648438 1831.386719 2920.242188 1831.347656 2921.832031 1831.269531 C 2923.425781 1831.191406 2925.015625 1831.074219 2926.605469 1830.917969 C 2928.191406 1830.761719 2929.773438 1830.566406 2931.351562 1830.332031 C 2932.929688 1830.097656 2934.5 1829.824219 2936.0625 1829.511719 C 2937.628906 1829.203125 2939.183594 1828.851562 2940.730469 1828.464844 C 2942.277344 1828.078125 2943.8125 1827.652344 2945.339844 1827.191406 C 2946.867188 1826.726562 2948.378906 1826.226562 2949.882812 1825.6875 C 2951.382812 1825.152344 2952.871094 1824.578125 2954.34375 1823.96875 C 2955.816406 1823.359375 2957.273438 1822.710938 2958.714844 1822.03125 C 2960.160156 1821.347656 2961.582031 1820.628906 2962.988281 1819.878906 C 2964.394531 1819.128906 2965.78125 1818.339844 2967.152344 1817.519531 C 2968.519531 1816.703125 2969.867188 1815.847656 2971.191406 1814.960938 C 2972.519531 1814.074219 2973.820312 1813.15625 2975.101562 1812.207031 C 2976.382812 1811.257812 2977.640625 1810.277344 2978.875 1809.265625 C 2980.105469 1808.253906 2981.3125 1807.210938 2982.496094 1806.140625 C 2983.675781 1805.070312 2984.832031 1803.96875 2985.960938 1802.84375 C 2987.085938 1801.714844 2988.1875 1800.558594 2989.257812 1799.378906 C 2990.328125 1798.195312 2991.371094 1796.988281 2992.382812 1795.757812 C 2993.394531 1794.523438 2994.375 1793.265625 2995.324219 1791.984375 C 2996.273438 1790.703125 2997.191406 1789.402344 2998.078125 1788.074219 C 2998.964844 1786.75 2999.816406 1785.402344 3000.636719 1784.035156 C 3001.457031 1782.664062 3002.242188 1781.277344 3002.996094 1779.871094 C 3003.746094 1778.464844 3004.464844 1777.042969 3005.144531 1775.597656 C 3005.828125 1774.15625 3006.472656 1772.699219 3007.082031 1771.226562 C 3007.695312 1769.753906 3008.265625 1768.265625 3008.804688 1766.765625 C 3009.34375 1765.261719 3009.84375 1763.75 3010.304688 1762.222656 C 3010.769531 1760.695312 3011.195312 1759.160156 3011.582031 1757.613281 C 3011.96875 1756.066406 3012.316406 1754.507812 3012.628906 1752.945312 C 3012.941406 1751.378906 3013.210938 1749.808594 3013.445312 1748.230469 C 3013.679688 1746.65625 3013.875 1745.070312 3014.03125 1743.484375 C 3014.1875 1741.898438 3014.304688 1740.308594 3014.382812 1738.714844 C 3014.460938 1737.121094 3014.5 1735.527344 3014.5 1733.933594 Z M 3014.5 1733.933594"/></clipPath><clipPath id="k"><path d="M 1818 1175 L 1945 1175 L 1945 1302 L 1818 1302 Z M 1818 1175"/></clipPath><clipPath id="l"><path d="M 1944.28125 1238.90625 C 1944.28125 1236.84375 1944.179688 1234.785156 1943.980469 1232.734375 C 1943.777344 1230.683594 1943.472656 1228.644531 1943.070312 1226.625 C 1942.667969 1224.601562 1942.167969 1222.601562 1941.570312 1220.628906 C 1940.972656 1218.65625 1940.277344 1216.71875 1939.488281 1214.8125 C 1938.699219 1212.910156 1937.820312 1211.046875 1936.847656 1209.226562 C 1935.875 1207.410156 1934.816406 1205.644531 1933.671875 1203.929688 C 1932.527344 1202.214844 1931.300781 1200.558594 1929.992188 1198.964844 C 1928.683594 1197.371094 1927.300781 1195.847656 1925.84375 1194.386719 C 1924.386719 1192.929688 1922.859375 1191.546875 1921.265625 1190.238281 C 1919.671875 1188.929688 1918.015625 1187.703125 1916.304688 1186.558594 C 1914.589844 1185.414062 1912.824219 1184.355469 1911.003906 1183.382812 C 1909.1875 1182.410156 1907.324219 1181.53125 1905.417969 1180.742188 C 1903.515625 1179.953125 1901.574219 1179.257812 1899.601562 1178.660156 C 1897.628906 1178.0625 1895.632812 1177.5625 1893.609375 1177.160156 C 1891.585938 1176.757812 1889.550781 1176.453125 1887.5 1176.253906 C 1885.445312 1176.050781 1883.390625 1175.949219 1881.328125 1175.949219 C 1879.265625 1175.949219 1877.207031 1176.050781 1875.15625 1176.253906 C 1873.105469 1176.453125 1871.066406 1176.757812 1869.046875 1177.160156 C 1867.023438 1177.5625 1865.027344 1178.0625 1863.054688 1178.660156 C 1861.078125 1179.257812 1859.140625 1179.953125 1857.234375 1180.742188 C 1855.332031 1181.53125 1853.46875 1182.410156 1851.652344 1183.382812 C 1849.832031 1184.355469 1848.066406 1185.414062 1846.351562 1186.558594 C 1844.636719 1187.703125 1842.984375 1188.929688 1841.390625 1190.238281 C 1839.796875 1191.546875 1838.269531 1192.929688 1836.8125 1194.386719 C 1835.355469 1195.847656 1833.972656 1197.371094 1832.664062 1198.964844 C 1831.355469 1200.558594 1830.128906 1202.214844 1828.984375 1203.929688 C 1827.835938 1205.644531 1826.777344 1207.410156 1825.808594 1209.226562 C 1824.835938 1211.046875 1823.953125 1212.910156 1823.164062 1214.8125 C 1822.375 1216.71875 1821.683594 1218.65625 1821.085938 1220.628906 C 1820.484375 1222.601562 1819.984375 1224.601562 1819.582031 1226.625 C 1819.179688 1228.644531 1818.878906 1230.683594 1818.675781 1232.734375 C 1818.472656 1234.785156 1818.375 1236.84375 1818.375 1238.90625 C 1818.375 1240.96875 1818.472656 1243.023438 1818.675781 1245.078125 C 1818.878906 1247.128906 1819.179688 1249.164062 1819.582031 1251.1875 C 1819.984375 1253.210938 1820.484375 1255.207031 1821.085938 1257.179688 C 1821.683594 1259.152344 1822.375 1261.09375 1823.164062 1262.996094 C 1823.953125 1264.902344 1824.835938 1266.765625 1825.808594 1268.582031 C 1826.777344 1270.402344 1827.835938 1272.167969 1828.984375 1273.882812 C 1830.128906 1275.597656 1831.355469 1277.25 1832.664062 1278.84375 C 1833.972656 1280.4375 1835.355469 1281.964844 1836.8125 1283.421875 C 1838.269531 1284.878906 1839.796875 1286.261719 1841.390625 1287.570312 C 1842.984375 1288.878906 1844.636719 1290.105469 1846.351562 1291.25 C 1848.066406 1292.398438 1849.832031 1293.457031 1851.652344 1294.429688 C 1853.46875 1295.398438 1855.332031 1296.28125 1857.234375 1297.070312 C 1859.140625 1297.859375 1861.078125 1298.550781 1863.054688 1299.152344 C 1865.027344 1299.75 1867.023438 1300.25 1869.046875 1300.652344 C 1871.066406 1301.054688 1873.105469 1301.355469 1875.15625 1301.558594 C 1877.207031 1301.761719 1879.265625 1301.863281 1881.328125 1301.863281 C 1883.390625 1301.863281 1885.445312 1301.761719 1887.5 1301.558594 C 1889.550781 1301.355469 1891.585938 1301.054688 1893.609375 1300.652344 C 1895.632812 1300.25 1897.628906 1299.75 1899.601562 1299.152344 C 1901.574219 1298.550781 1903.515625 1297.859375 1905.417969 1297.070312 C 1907.324219 1296.28125 1909.1875 1295.398438 1911.003906 1294.429688 C 1912.824219 1293.457031 1914.589844 1292.398438 1916.304688 1291.25 C 1918.015625 1290.105469 1919.671875 1288.878906 1921.265625 1287.570312 C 1922.859375 1286.261719 1924.386719 1284.878906 1925.84375 1283.421875 C 1927.300781 1281.964844 1928.683594 1280.4375 1929.992188 1278.84375 C 1931.300781 1277.25 1932.527344 1275.597656 1933.671875 1273.882812 C 1934.816406 1272.167969 1935.875 1270.402344 1936.847656 1268.582031 C 1937.820312 1266.765625 1938.699219 1264.902344 1939.488281 1262.996094 C 1940.277344 1261.09375 1940.972656 1259.152344 1941.570312 1257.179688 C 1942.167969 1255.207031 1942.667969 1253.210938 1943.070312 1251.1875 C 1943.472656 1249.164062 1943.777344 1247.128906 1943.980469 1245.078125 C 1944.179688 1243.023438 1944.28125 1240.96875 1944.28125 1238.90625 Z M 1944.28125 1238.90625"/></clipPath><linearGradient x1="0" gradientTransform="matrix(8.62385 0 0 -8.62417 1776.98 1831.386)" y1="95.1" x2="220.991" gradientUnits="userSpaceOnUse" y2="95.1" xlink:type="simple" xlink:actuate="onLoad" id="d" xlink:show="other"><stop stop-color="#8964BF" offset="0"/><stop stop-color="#8964BE" offset=".004"/><stop stop-color="#8A64BE" offset=".008"/><stop stop-color="#8A64BD" offset=".012"/><stop stop-color="#8A64BD" offset=".016"/><stop stop-color="#8B64BC" offset=".02"/><stop stop-color="#8B64BB" offset=".023"/><stop stop-color="#8C64BB" offset=".027"/><stop stop-color="#8C64BA" offset=".031"/><stop stop-color="#8C64BA" offset=".035"/><stop stop-color="#8D64B9" offset=".039"/><stop stop-color="#8D65B8" offset=".043"/><stop stop-color="#8E65B8" offset=".047"/><stop stop-color="#8E65B7" offset=".051"/><stop stop-color="#8E65B7" offset=".055"/><stop stop-color="#8F65B6" offset=".059"/><stop stop-color="#8F65B5" offset=".063"/><stop stop-color="#8F65B5" offset=".066"/><stop stop-color="#9065B4" offset=".07"/><stop stop-color="#9065B4" offset=".074"/><stop stop-color="#9165B3" offset=".078"/><stop stop-color="#9165B3" offset=".082"/><stop stop-color="#9165B2" offset=".086"/><stop stop-color="#9265B1" offset=".09"/><stop stop-color="#9265B1" offset=".094"/><stop stop-color="#9365B0" offset=".098"/><stop stop-color="#9365B0" offset=".102"/><stop stop-color="#9365AF" offset=".105"/><stop stop-color="#9465AE" offset=".109"/><stop stop-color="#9465AE" offset=".113"/><stop stop-color="#9465AD" offset=".117"/><stop stop-color="#9566AD" offset=".121"/><stop stop-color="#9566AC" offset=".125"/><stop stop-color="#9666AB" offset=".129"/><stop stop-color="#9666AB" offset=".133"/><stop stop-color="#9666AA" offset=".137"/><stop stop-color="#9766AA" offset=".141"/><stop stop-color="#9766A9" offset=".145"/><stop stop-color="#9866A8" offset=".148"/><stop stop-color="#9866A8" offset=".152"/><stop stop-color="#9866A7" offset=".156"/><stop stop-color="#9966A7" offset=".16"/><stop stop-color="#9966A6" offset=".164"/><stop stop-color="#9966A5" offset=".168"/><stop stop-color="#9A66A5" offset=".172"/><stop stop-color="#9A66A4" offset=".176"/><stop stop-color="#9B66A4" offset=".18"/><stop stop-color="#9B66A3" offset=".184"/><stop stop-color="#9B66A2" offset=".188"/><stop stop-color="#9C66A2" offset=".191"/><stop stop-color="#9C67A1" offset=".195"/><stop stop-color="#9D67A1" offset=".199"/><stop stop-color="#9D67A0" offset=".203"/><stop stop-color="#9D679F" offset=".207"/><stop stop-color="#9E679F" offset=".211"/><stop stop-color="#9E679E" offset=".215"/><stop stop-color="#9E679E" offset=".219"/><stop stop-color="#9F679D" offset=".223"/><stop stop-color="#9F679D" offset=".227"/><stop stop-color="#A0679C" offset=".23"/><stop stop-color="#A0679B" offset=".234"/><stop stop-color="#A0679B" offset=".238"/><stop stop-color="#A1679A" offset=".242"/><stop stop-color="#A1679A" offset=".246"/><stop stop-color="#A16799" offset=".25"/><stop stop-color="#A26798" offset=".254"/><stop stop-color="#A26798" offset=".258"/><stop stop-color="#A36797" offset=".262"/><stop stop-color="#A36797" offset=".266"/><stop stop-color="#A36796" offset=".27"/><stop stop-color="#A46895" offset=".273"/><stop stop-color="#A46895" offset=".277"/><stop stop-color="#A56894" offset=".281"/><stop stop-color="#A56894" offset=".285"/><stop stop-color="#A56893" offset=".289"/><stop stop-color="#A66892" offset=".293"/><stop stop-color="#A66892" offset=".297"/><stop stop-color="#A66891" offset=".301"/><stop stop-color="#A76891" offset=".305"/><stop stop-color="#A76890" offset=".309"/><stop stop-color="#A8688F" offset=".313"/><stop stop-color="#A8688F" offset=".316"/><stop stop-color="#A8688E" offset=".32"/><stop stop-color="#A9688E" offset=".324"/><stop stop-color="#A9688D" offset=".328"/><stop stop-color="#AA688C" offset=".332"/><stop stop-color="#AA688C" offset=".336"/><stop stop-color="#AA688B" offset=".34"/><stop stop-color="#AB688B" offset=".344"/><stop stop-color="#AB688A" offset=".348"/><stop stop-color="#AB698A" offset=".352"/><stop stop-color="#AC6989" offset=".355"/><stop stop-color="#AC6988" offset=".359"/><stop stop-color="#AD6988" offset=".363"/><stop stop-color="#AD6987" offset=".367"/><stop stop-color="#AD6987" offset=".371"/><stop stop-color="#AE6986" offset=".375"/><stop stop-color="#AE6985" offset=".379"/><stop stop-color="#AF6985" offset=".383"/><stop stop-color="#AF6984" offset=".387"/><stop stop-color="#AF6984" offset=".391"/><stop stop-color="#B06983" offset=".395"/><stop stop-color="#B06982" offset=".398"/><stop stop-color="#B06982" offset=".402"/><stop stop-color="#B16981" offset=".406"/><stop stop-color="#B16981" offset=".41"/><stop stop-color="#B26980" offset=".414"/><stop stop-color="#B2697F" offset=".418"/><stop stop-color="#B2697F" offset=".422"/><stop stop-color="#B36A7E" offset=".426"/><stop stop-color="#B36A7E" offset=".43"/><stop stop-color="#B46A7D" offset=".434"/><stop stop-color="#B46A7C" offset=".438"/><stop stop-color="#B46A7C" offset=".441"/><stop stop-color="#B56A7B" offset=".445"/><stop stop-color="#B56A7B" offset=".449"/><stop stop-color="#B56A7A" offset=".453"/><stop stop-color="#B66A79" offset=".457"/><stop stop-color="#B66A79" offset=".461"/><stop stop-color="#B76A78" offset=".465"/><stop stop-color="#B76A78" offset=".469"/><stop stop-color="#B76A77" offset=".473"/><stop stop-color="#B86A76" offset=".477"/><stop stop-color="#B86A76" offset=".48"/><stop stop-color="#B96A75" offset=".484"/><stop stop-color="#B96A75" offset=".488"/><stop stop-color="#B96A74" offset=".492"/><stop stop-color="#BA6A74" offset=".496"/><stop stop-color="#BA6A73" offset=".5"/><stop stop-color="#BA6B72" offset=".504"/><stop stop-color="#BB6B72" offset=".508"/><stop stop-color="#BB6B71" offset=".512"/><stop stop-color="#BC6B71" offset=".516"/><stop stop-color="#BC6B70" offset=".52"/><stop stop-color="#BC6B6F" offset=".523"/><stop stop-color="#BD6B6F" offset=".527"/><stop stop-color="#BD6B6E" offset=".531"/><stop stop-color="#BE6B6E" offset=".535"/><stop stop-color="#BE6B6D" offset=".539"/><stop stop-color="#BE6B6C" offset=".543"/><stop stop-color="#BF6B6C" offset=".547"/><stop stop-color="#BF6B6B" offset=".551"/><stop stop-color="#BF6B6B" offset=".555"/><stop stop-color="#C06B6A" offset=".559"/><stop stop-color="#C06B69" offset=".563"/><stop stop-color="#C16B69" offset=".566"/><stop stop-color="#C16B68" offset=".57"/><stop stop-color="#C16B68" offset=".574"/><stop stop-color="#C26B67" offset=".578"/><stop stop-color="#C26C66" offset=".582"/><stop stop-color="#C36C66" offset=".586"/><stop stop-color="#C36C65" offset=".59"/><stop stop-color="#C36C65" offset=".594"/><stop stop-color="#C46C64" offset=".598"/><stop stop-color="#C46C63" offset=".602"/><stop stop-color="#C46C63" offset=".605"/><stop stop-color="#C56C62" offset=".609"/><stop stop-color="#C56C62" offset=".613"/><stop stop-color="#C66C61" offset=".617"/><stop stop-color="#C66C61" offset=".621"/><stop stop-color="#C66C60" offset=".625"/><stop stop-color="#C76C5F" offset=".629"/><stop stop-color="#C76C5F" offset=".633"/><stop stop-color="#C86C5E" offset=".637"/><stop stop-color="#C86C5E" offset=".641"/><stop stop-color="#C86C5D" offset=".645"/><stop stop-color="#C96C5C" offset=".648"/><stop stop-color="#C96C5C" offset=".652"/><stop stop-color="#C96D5B" offset=".656"/><stop stop-color="#CA6D5B" offset=".66"/><stop stop-color="#CA6D5A" offset=".664"/><stop stop-color="#CB6D59" offset=".668"/><stop stop-color="#CB6D59" offset=".672"/><stop stop-color="#CB6D58" offset=".676"/><stop stop-color="#CC6D58" offset=".68"/><stop stop-color="#CC6D57" offset=".684"/><stop stop-color="#CC6D56" offset=".688"/><stop stop-color="#CD6D56" offset=".691"/><stop stop-color="#CD6D55" offset=".695"/><stop stop-color="#CE6D55" offset=".699"/><stop stop-color="#CE6D54" offset=".703"/><stop stop-color="#CE6D53" offset=".707"/><stop stop-color="#CF6D53" offset=".711"/><stop stop-color="#CF6D52" offset=".715"/><stop stop-color="#D06D52" offset=".719"/><stop stop-color="#D06D51" offset=".723"/><stop stop-color="#D06D50" offset=".727"/><stop stop-color="#D16D50" offset=".73"/><stop stop-color="#D16E4F" offset=".734"/><stop stop-color="#D16E4F" offset=".738"/><stop stop-color="#D26E4E" offset=".742"/><stop stop-color="#D26E4D" offset=".746"/><stop stop-color="#D36E4D" offset=".75"/><stop stop-color="#D36E4C" offset=".754"/><stop stop-color="#D36E4C" offset=".758"/><stop stop-color="#D46E4B" offset=".762"/><stop stop-color="#D46E4B" offset=".766"/><stop stop-color="#D56E4A" offset=".77"/><stop stop-color="#D56E49" offset=".773"/><stop stop-color="#D56E49" offset=".777"/><stop stop-color="#D66E48" offset=".781"/><stop stop-color="#D66E48" offset=".785"/><stop stop-color="#D66E47" offset=".789"/><stop stop-color="#D76E46" offset=".793"/><stop stop-color="#D76E46" offset=".797"/><stop stop-color="#D86E45" offset=".801"/><stop stop-color="#D86E45" offset=".805"/><stop stop-color="#D86E44" offset=".809"/><stop stop-color="#D96F43" offset=".813"/><stop stop-color="#D96F43" offset=".816"/><stop stop-color="#DA6F42" offset=".82"/><stop stop-color="#DA6F42" offset=".824"/><stop stop-color="#DA6F41" offset=".828"/><stop stop-color="#DB6F40" offset=".832"/><stop stop-color="#DB6F40" offset=".836"/><stop stop-color="#DB6F3F" offset=".84"/><stop stop-color="#DC6F3F" offset=".844"/><stop stop-color="#DC6F3E" offset=".848"/><stop stop-color="#DD6F3D" offset=".852"/><stop stop-color="#DD6F3D" offset=".855"/><stop stop-color="#DD6F3C" offset=".859"/><stop stop-color="#DE6F3C" offset=".863"/><stop stop-color="#DE6F3B" offset=".867"/><stop stop-color="#DF6F3A" offset=".871"/><stop stop-color="#DF6F3A" offset=".875"/><stop stop-color="#DF6F39" offset=".879"/><stop stop-color="#E06F39" offset=".883"/><stop stop-color="#E07038" offset=".887"/><stop stop-color="#E07038" offset=".891"/><stop stop-color="#E17037" offset=".895"/><stop stop-color="#E17036" offset=".898"/><stop stop-color="#E27036" offset=".902"/><stop stop-color="#E27035" offset=".906"/><stop stop-color="#E27035" offset=".91"/><stop stop-color="#E37034" offset=".914"/><stop stop-color="#E37033" offset=".918"/><stop stop-color="#E47033" offset=".922"/><stop stop-color="#E47032" offset=".926"/><stop stop-color="#E47032" offset=".93"/><stop stop-color="#E57031" offset=".934"/><stop stop-color="#E57030" offset=".938"/><stop stop-color="#E57030" offset=".941"/><stop stop-color="#E6702F" offset=".945"/><stop stop-color="#E6702F" offset=".949"/><stop stop-color="#E7702E" offset=".953"/><stop stop-color="#E7702D" offset=".957"/><stop stop-color="#E7702D" offset=".961"/><stop stop-color="#E8712C" offset=".965"/><stop stop-color="#E8712C" offset=".969"/><stop stop-color="#E9712B" offset=".973"/><stop stop-color="#E9712A" offset=".977"/><stop stop-color="#E9712A" offset=".98"/><stop stop-color="#EA7129" offset=".984"/><stop stop-color="#EA7129" offset=".988"/><stop stop-color="#EA7128" offset=".992"/><stop stop-color="#EB7128" offset=".996"/><stop stop-color="#EB7127" offset="1"/></linearGradient><linearGradient x1="126.6" gradientTransform="matrix(8.62385 0 0 -8.62417 1776.98 1831.386)" y1="95.1" x2="149.4" gradientUnits="userSpaceOnUse" y2="95.1" xlink:type="simple" xlink:actuate="onLoad" id="g" xlink:show="other"><stop stop-color="#C16B68" offset="0"/><stop stop-color="#C26B67" offset=".063"/><stop stop-color="#C26C66" offset=".125"/><stop stop-color="#C36C65" offset=".188"/><stop stop-color="#C36C64" offset=".25"/><stop stop-color="#C46C63" offset=".313"/><stop stop-color="#C56C62" offset=".375"/><stop stop-color="#C56C61" offset=".438"/><stop stop-color="#C66C60" offset=".5"/><stop stop-color="#C76C60" offset=".563"/><stop stop-color="#C76C5F" offset=".625"/><stop stop-color="#C86C5E" offset=".688"/><stop stop-color="#C96C5D" offset=".75"/><stop stop-color="#C96C5C" offset=".813"/><stop stop-color="#CA6D5B" offset=".875"/><stop stop-color="#CA6D5A" offset=".938"/><stop stop-color="#CB6D59" offset="1"/></linearGradient><linearGradient x1="120.9" gradientTransform="matrix(8.62385 0 0 -8.62417 1776.98 1831.386)" y1="95.1" x2="143.5" gradientUnits="userSpaceOnUse" y2="95.1" xlink:type="simple" xlink:actuate="onLoad" id="j" xlink:show="other"><stop stop-color="#BF6B6C" offset="0"/><stop stop-color="#BF6B6B" offset=".063"/><stop stop-color="#C06B6A" offset=".125"/><stop stop-color="#C06B69" offset=".188"/><stop stop-color="#C16B68" offset=".25"/><stop stop-color="#C26B67" offset=".313"/><stop stop-color="#C26C66" offset=".375"/><stop stop-color="#C36C65" offset=".438"/><stop stop-color="#C36C64" offset=".5"/><stop stop-color="#C46C64" offset=".563"/><stop stop-color="#C56C63" offset=".625"/><stop stop-color="#C56C62" offset=".688"/><stop stop-color="#C66C61" offset=".75"/><stop stop-color="#C76C60" offset=".813"/><stop stop-color="#C76C5F" offset=".875"/><stop stop-color="#C86C5E" offset=".938"/><stop stop-color="#C86C5D" offset="1"/></linearGradient><linearGradient x1="4.8" gradientTransform="matrix(8.62385 0 0 -8.62417 1776.98 1831.386)" y1="95.1" x2="19.4" gradientUnits="userSpaceOnUse" y2="95.1" xlink:type="simple" xlink:actuate="onLoad" id="m" xlink:show="other"><stop stop-color="#8B64BC" offset="0"/><stop stop-color="#8B64BB" offset=".063"/><stop stop-color="#8C64BB" offset=".125"/><stop stop-color="#8C64BA" offset=".188"/><stop stop-color="#8C64B9" offset=".25"/><stop stop-color="#8D64B9" offset=".313"/><stop stop-color="#8D65B8" offset=".375"/><stop stop-color="#8E65B8" offset=".438"/><stop stop-color="#8E65B7" offset=".5"/><stop stop-color="#8F65B6" offset=".563"/><stop stop-color="#8F65B6" offset=".625"/><stop stop-color="#8F65B5" offset=".688"/><stop stop-color="#9065B4" offset=".75"/><stop stop-color="#9065B4" offset=".813"/><stop stop-color="#9165B3" offset=".875"/><stop stop-color="#9165B3" offset=".938"/><stop stop-color="#9165B2" offset="1"/></linearGradient></defs><g clip-path="url(#a)"><path fill="#FFF" d="M 1 0 L 5183 0 L 5183 2598.496094 L 1 2598.496094 Z M 1 0"/></g><path fill="#FFF" d="M 1 0 L 5183 0 L 5183 2591 L 1 2591 Z M 1 0"/><path fill="#FFF" d="M 1 0 L 5183 0 L 5183 2591 L 1 2591 Z M 1 0"/><g fill="#F9F6E9"><g><g><path d="M 51.796875 -151.484375 L 51.796875 -105.90625 L 107.71875 -105.90625 C 112.207031 -105.90625 115.960938 -104.476562 118.984375 -101.625 C 122.003906 -98.78125 123.515625 -95.117188 123.515625 -90.640625 C 123.515625 -86.835938 122.003906 -83.46875 118.984375 -80.53125 C 115.960938 -77.59375 112.207031 -76.125 107.71875 -76.125 L 51.796875 -76.125 L 51.796875 -15.796875 C 51.796875 -11.304688 50.195312 -7.550781 47 -4.53125 C 43.800781 -1.507812 40.046875 0 35.734375 0 C 30.898438 0 26.972656 -1.460938 23.953125 -4.390625 C 20.929688 -7.328125 19.421875 -11.128906 19.421875 -15.796875 L 19.421875 -165.46875 C 19.421875 -169.957031 20.929688 -173.710938 23.953125 -176.734375 C 26.972656 -179.753906 30.726562 -181.265625 35.21875 -181.265625 L 119.375 -181.265625 C 123.863281 -181.265625 127.617188 -179.835938 130.640625 -176.984375 C 133.660156 -174.140625 135.171875 -170.472656 135.171875 -165.984375 C 135.171875 -162.191406 133.660156 -158.828125 130.640625 -155.890625 C 127.617188 -152.953125 123.863281 -151.484375 119.375 -151.484375 Z M 51.796875 -151.484375" transform="translate(1437.291 2205.035)"/></g></g></g><g fill="#F9F6E9"><g><g><path d="M 186.1875 -90.640625 C 186.1875 -73.546875 182.390625 -57.875 174.796875 -43.625 C 167.203125 -29.382812 156.710938 -18.117188 143.328125 -9.828125 C 129.953125 -1.546875 114.890625 2.59375 98.140625 2.59375 C 81.398438 2.59375 66.335938 -1.546875 52.953125 -9.828125 C 39.578125 -18.117188 29.132812 -29.382812 21.625 -43.625 C 14.113281 -57.875 10.359375 -73.546875 10.359375 -90.640625 C 10.359375 -107.722656 14.113281 -123.382812 21.625 -137.625 C 29.132812 -151.875 39.578125 -163.140625 52.953125 -171.421875 C 66.335938 -179.710938 81.398438 -183.859375 98.140625 -183.859375 C 114.890625 -183.859375 129.953125 -179.710938 143.328125 -171.421875 C 156.710938 -163.140625 167.203125 -151.875 174.796875 -137.625 C 182.390625 -123.382812 186.1875 -107.722656 186.1875 -90.640625 Z M 152.515625 -90.640625 C 152.515625 -102.203125 150.1875 -112.6875 145.53125 -122.09375 C 140.875 -131.5 134.398438 -138.960938 126.109375 -144.484375 C 117.828125 -150.015625 108.503906 -152.78125 98.140625 -152.78125 C 87.609375 -152.78125 78.242188 -150.0625 70.046875 -144.625 C 61.847656 -139.1875 55.457031 -131.71875 50.875 -122.21875 C 46.300781 -112.726562 44.015625 -102.203125 44.015625 -90.640625 C 44.015625 -79.066406 46.300781 -68.53125 50.875 -59.03125 C 55.457031 -49.539062 61.847656 -42.078125 70.046875 -36.640625 C 78.242188 -31.203125 87.609375 -28.484375 98.140625 -28.484375 C 108.503906 -28.484375 117.828125 -31.242188 126.109375 -36.765625 C 134.398438 -42.296875 140.875 -49.765625 145.53125 -59.171875 C 150.1875 -68.578125 152.515625 -79.066406 152.515625 -90.640625 Z M 152.515625 -90.640625" transform="translate(1690.555 2205.035)"/></g></g></g><g fill="#F9F6E9"><g><g><path d="M 161.59375 -25.375 C 163.832031 -24 165.597656 -22.1875 166.890625 -19.9375 C 168.191406 -17.695312 168.84375 -15.367188 168.84375 -12.953125 C 168.84375 -9.835938 167.804688 -6.988281 165.734375 -4.40625 C 163.140625 -1.289062 159.164062 0.265625 153.8125 0.265625 C 149.675781 0.265625 145.878906 -0.6875 142.421875 -2.59375 C 129.992188 -9.664062 123.78125 -24.078125 123.78125 -45.828125 C 123.78125 -52.046875 121.75 -56.96875 117.6875 -60.59375 C 113.632812 -64.21875 107.8125 -66.03125 100.21875 -66.03125 L 51.796875 -66.03125 L 51.796875 -15.796875 C 51.796875 -11.128906 50.539062 -7.328125 48.03125 -4.390625 C 45.53125 -1.460938 42.207031 0 38.0625 0 C 33.0625 0 28.703125 -1.507812 24.984375 -4.53125 C 21.273438 -7.550781 19.421875 -11.304688 19.421875 -15.796875 L 19.421875 -165.46875 C 19.421875 -169.957031 20.929688 -173.710938 23.953125 -176.734375 C 26.972656 -179.753906 30.726562 -181.265625 35.21875 -181.265625 L 109.796875 -181.265625 C 118.773438 -181.265625 127.234375 -178.847656 135.171875 -174.015625 C 143.109375 -169.179688 149.453125 -162.535156 154.203125 -154.078125 C 158.953125 -145.617188 161.328125 -136.125 161.328125 -125.59375 C 161.328125 -116.957031 158.992188 -108.539062 154.328125 -100.34375 C 149.671875 -92.144531 143.628906 -85.628906 136.203125 -80.796875 C 147.078125 -73.203125 153.035156 -63.015625 154.078125 -50.234375 C 154.597656 -47.472656 154.859375 -44.796875 154.859375 -42.203125 C 155.546875 -36.859375 156.234375 -33.019531 156.921875 -30.6875 C 157.617188 -28.351562 159.175781 -26.582031 161.59375 -25.375 Z M 108.5 -92.703125 C 111.601562 -92.703125 114.625 -94.171875 117.5625 -97.109375 C 120.5 -100.046875 122.914062 -103.972656 124.8125 -108.890625 C 126.707031 -113.804688 127.65625 -119.113281 127.65625 -124.8125 C 127.65625 -129.644531 126.707031 -134.085938 124.8125 -138.140625 C 122.914062 -142.203125 120.5 -145.441406 117.5625 -147.859375 C 114.625 -150.273438 111.601562 -151.484375 108.5 -151.484375 L 51.796875 -151.484375 L 51.796875 -92.703125 Z M 108.5 -92.703125" transform="translate(1994.834 2205.035)"/></g></g></g><g fill="#F9F6E9"><g><g><path d="M 176.609375 -181.53125 C 180.921875 -181.53125 184.671875 -180.019531 187.859375 -177 C 191.054688 -173.976562 192.65625 -170.222656 192.65625 -165.734375 L 192.65625 -15.796875 C 192.65625 -11.304688 191.1875 -7.550781 188.25 -4.53125 C 185.320312 -1.507812 181.441406 0 176.609375 0 C 171.773438 0 167.847656 -1.460938 164.828125 -4.390625 C 161.804688 -7.328125 160.296875 -11.128906 160.296875 -15.796875 L 160.296875 -120.15625 L 117.5625 -54.890625 C 115.832031 -52.828125 113.847656 -51.144531 111.609375 -49.84375 C 109.367188 -48.550781 107.035156 -47.992188 104.609375 -48.171875 C 102.367188 -47.992188 100.125 -48.550781 97.875 -49.84375 C 95.632812 -51.144531 93.648438 -52.828125 91.921875 -54.890625 L 49.203125 -122.484375 L 49.203125 -15.796875 C 49.203125 -11.128906 47.820312 -7.328125 45.0625 -4.390625 C 42.300781 -1.460938 38.675781 0 34.1875 0 C 29.863281 0 26.320312 -1.507812 23.5625 -4.53125 C 20.800781 -7.550781 19.421875 -11.304688 19.421875 -15.796875 L 19.421875 -165.734375 C 19.421875 -170.046875 21.015625 -173.753906 24.203125 -176.859375 C 27.398438 -179.972656 31.242188 -181.53125 35.734375 -181.53125 C 38.328125 -181.53125 40.914062 -180.878906 43.5 -179.578125 C 46.09375 -178.285156 48.078125 -176.601562 49.453125 -174.53125 L 105.90625 -87.78125 L 163.921875 -174.53125 C 165.296875 -176.601562 167.148438 -178.285156 169.484375 -179.578125 C 171.816406 -180.878906 174.191406 -181.53125 176.609375 -181.53125 Z M 176.609375 -181.53125" transform="translate(2280.468 2205.035)"/></g></g></g><g fill="#F9F6E9"><g><g><path d="M 161.59375 -20.203125 C 162.445312 -17.953125 162.875 -15.878906 162.875 -13.984375 C 162.875 -9.492188 161.40625 -5.820312 158.46875 -2.96875 C 155.539062 -0.125 152.175781 1.296875 148.375 1.296875 C 145.269531 1.296875 142.460938 0.347656 139.953125 -1.546875 C 137.453125 -3.453125 135.515625 -6.046875 134.140625 -9.328125 L 120.671875 -40.65625 L 43.5 -40.65625 L 30.03125 -9.0625 C 28.820312 -5.78125 26.96875 -3.234375 24.46875 -1.421875 C 21.96875 0.390625 19.25 1.296875 16.3125 1.296875 C 11.820312 1.296875 8.410156 0.0859375 6.078125 -2.328125 C 3.753906 -4.742188 2.59375 -8.023438 2.59375 -12.171875 C 2.59375 -13.722656 2.847656 -15.363281 3.359375 -17.09375 L 67.84375 -171.9375 C 69.226562 -175.394531 71.300781 -178.070312 74.0625 -179.96875 C 76.820312 -181.875 79.929688 -182.648438 83.390625 -182.296875 C 86.492188 -182.296875 89.382812 -181.390625 92.0625 -179.578125 C 94.738281 -177.765625 96.679688 -175.21875 97.890625 -171.9375 Z M 56.1875 -70.4375 L 107.984375 -70.4375 L 81.828125 -131.03125 Z M 56.1875 -70.4375" transform="translate(2600.285 2205.035)"/></g></g></g><g fill="#F9F6E9"><g><g><path d="M 119.375 -30.296875 C 123.863281 -30.296875 127.617188 -28.867188 130.640625 -26.015625 C 133.660156 -23.171875 135.171875 -19.503906 135.171875 -15.015625 C 135.171875 -10.703125 133.660156 -7.117188 130.640625 -4.265625 C 127.617188 -1.421875 123.863281 0 119.375 0 L 35.21875 0 C 30.726562 0 26.972656 -1.507812 23.953125 -4.53125 C 20.929688 -7.550781 19.421875 -11.304688 19.421875 -15.796875 L 19.421875 -165.46875 C 19.421875 -169.957031 20.972656 -173.710938 24.078125 -176.734375 C 27.191406 -179.753906 31.164062 -181.265625 36 -181.265625 C 40.3125 -181.265625 44.019531 -179.753906 47.125 -176.734375 C 50.238281 -173.710938 51.796875 -169.957031 51.796875 -165.46875 L 51.796875 -30.296875 Z M 119.375 -30.296875" transform="translate(2873.488 2205.035)"/></g></g></g><g fill="#F9F6E9"><g><g><path d="M 51.796875 -15.796875 C 51.796875 -11.304688 50.15625 -7.550781 46.875 -4.53125 C 43.59375 -1.507812 39.796875 0 35.484375 0 C 30.816406 0 26.972656 -1.507812 23.953125 -4.53125 C 20.929688 -7.550781 19.421875 -11.304688 19.421875 -15.796875 L 19.421875 -165.46875 C 19.421875 -169.957031 20.972656 -173.710938 24.078125 -176.734375 C 27.191406 -179.753906 31.164062 -181.265625 36 -181.265625 C 40.3125 -181.265625 44.019531 -179.753906 47.125 -176.734375 C 50.238281 -173.710938 51.796875 -169.957031 51.796875 -165.46875 Z M 51.796875 -15.796875" transform="translate(3126.752 2205.035)"/></g></g></g><g fill="#F9F6E9"><g><g><path d="M 158.734375 -165.984375 C 158.734375 -162.703125 157.523438 -159.425781 155.109375 -156.15625 L 56.703125 -29.78125 L 139.3125 -29.78125 C 143.976562 -29.78125 147.773438 -28.441406 150.703125 -25.765625 C 153.640625 -23.085938 155.109375 -19.503906 155.109375 -15.015625 C 155.109375 -10.703125 153.597656 -7.117188 150.578125 -4.265625 C 147.554688 -1.421875 143.800781 0 139.3125 0 L 25.640625 0 C 21.148438 0 17.265625 -1.550781 13.984375 -4.65625 C 10.703125 -7.769531 9.0625 -11.3125 9.0625 -15.28125 C 9.0625 -18.5625 10.269531 -21.84375 12.6875 -25.125 L 110.828125 -151.484375 L 36 -151.484375 C 31.332031 -151.484375 27.53125 -152.863281 24.59375 -155.625 C 21.664062 -158.394531 20.203125 -162.019531 20.203125 -166.5 C 20.203125 -170.820312 21.710938 -174.363281 24.734375 -177.125 C 27.753906 -179.882812 31.507812 -181.265625 36 -181.265625 L 141.90625 -181.265625 C 146.050781 -181.265625 149.890625 -179.796875 153.421875 -176.859375 C 156.960938 -173.929688 158.734375 -170.304688 158.734375 -165.984375 Z M 158.734375 -165.984375" transform="translate(3305.694 2205.035)"/></g></g></g><g fill="#F9F6E9"><g><g><path d="M 60.65625 -14.8125 C 62.882812 -14.8125 64.75 -14.054688 66.25 -12.546875 C 67.757812 -11.046875 68.515625 -9.3125 68.515625 -7.34375 C 68.515625 -5.195312 67.757812 -3.4375 66.25 -2.0625 C 64.75 -0.6875 62.882812 0 60.65625 0 L 17.515625 0 C 15.285156 0 13.414062 -0.75 11.90625 -2.25 C 10.40625 -3.75 9.65625 -5.617188 9.65625 -7.859375 L 9.65625 -82.296875 C 9.65625 -84.523438 10.40625 -86.390625 11.90625 -87.890625 C 13.414062 -89.390625 15.285156 -90.140625 17.515625 -90.140625 L 60.65625 -90.140625 C 62.882812 -90.140625 64.75 -89.429688 66.25 -88.015625 C 67.757812 -86.597656 68.515625 -84.773438 68.515625 -82.546875 C 68.515625 -80.398438 67.785156 -78.660156 66.328125 -77.328125 C 64.867188 -76.003906 62.976562 -75.34375 60.65625 -75.34375 L 25.75 -75.34375 L 25.75 -53.4375 L 54.859375 -53.4375 C 57.085938 -53.4375 58.953125 -52.726562 60.453125 -51.3125 C 61.960938 -49.894531 62.71875 -48.070312 62.71875 -45.84375 C 62.71875 -43.695312 61.988281 -41.957031 60.53125 -40.625 C 59.070312 -39.300781 57.179688 -38.640625 54.859375 -38.640625 L 25.75 -38.640625 L 25.75 -14.8125 Z M 60.65625 -14.8125" transform="translate(1927.63 2387.994)"/></g></g></g><g fill="#F9F6E9"><g><g><path d="M 87.828125 -90.28125 C 89.972656 -90.28125 91.835938 -89.523438 93.421875 -88.015625 C 95.015625 -86.515625 95.8125 -84.648438 95.8125 -82.421875 L 95.8125 -7.859375 C 95.8125 -5.617188 95.082031 -3.75 93.625 -2.25 C 92.164062 -0.75 90.234375 0 87.828125 0 C 85.421875 0 83.46875 -0.726562 81.96875 -2.1875 C 80.46875 -3.644531 79.71875 -5.535156 79.71875 -7.859375 L 79.71875 -59.75 L 58.46875 -27.296875 C 57.601562 -26.265625 56.613281 -25.425781 55.5 -24.78125 C 54.382812 -24.144531 53.226562 -23.867188 52.03125 -23.953125 C 50.914062 -23.867188 49.796875 -24.144531 48.671875 -24.78125 C 47.554688 -25.425781 46.570312 -26.265625 45.71875 -27.296875 L 24.46875 -60.90625 L 24.46875 -7.859375 C 24.46875 -5.535156 23.78125 -3.644531 22.40625 -2.1875 C 21.03125 -0.726562 19.226562 0 17 0 C 14.851562 0 13.09375 -0.75 11.71875 -2.25 C 10.34375 -3.75 9.65625 -5.617188 9.65625 -7.859375 L 9.65625 -82.421875 C 9.65625 -84.566406 10.445312 -86.410156 12.03125 -87.953125 C 13.625 -89.503906 15.535156 -90.28125 17.765625 -90.28125 C 19.054688 -90.28125 20.34375 -89.957031 21.625 -89.3125 C 22.914062 -88.664062 23.90625 -87.828125 24.59375 -86.796875 L 52.671875 -43.65625 L 81.515625 -86.796875 C 82.203125 -87.828125 83.125 -88.664062 84.28125 -89.3125 C 85.445312 -89.957031 86.628906 -90.28125 87.828125 -90.28125 Z M 87.828125 -90.28125" transform="translate(2028.335 2387.994)"/></g></g></g><g fill="#F9F6E9"><g><g><path d="M 46.875 -90.140625 C 51.25 -90.140625 55.410156 -88.832031 59.359375 -86.21875 C 63.316406 -83.601562 66.492188 -80.082031 68.890625 -75.65625 C 71.296875 -71.238281 72.5 -66.410156 72.5 -61.171875 C 72.5 -56.015625 71.296875 -51.203125 68.890625 -46.734375 C 66.492188 -42.273438 63.316406 -38.738281 59.359375 -36.125 C 55.410156 -33.507812 51.25 -32.203125 46.875 -32.203125 L 24.46875 -32.203125 L 24.46875 -7.859375 C 24.46875 -5.535156 23.78125 -3.644531 22.40625 -2.1875 C 21.03125 -0.726562 19.226562 0 17 0 C 14.851562 0 13.09375 -0.75 11.71875 -2.25 C 10.34375 -3.75 9.65625 -5.617188 9.65625 -7.859375 L 9.65625 -82.296875 C 9.65625 -84.523438 10.40625 -86.390625 11.90625 -87.890625 C 13.414062 -89.390625 15.285156 -90.140625 17.515625 -90.140625 Z M 46.875 -46.875 C 48.507812 -46.875 50.117188 -47.5625 51.703125 -48.9375 C 53.296875 -50.3125 54.582031 -52.09375 55.5625 -54.28125 C 56.550781 -56.46875 57.046875 -58.765625 57.046875 -61.171875 C 57.046875 -63.578125 56.550781 -65.875 55.5625 -68.0625 C 54.582031 -70.25 53.296875 -72.007812 51.703125 -73.34375 C 50.117188 -74.675781 48.507812 -75.34375 46.875 -75.34375 L 24.46875 -75.34375 L 24.46875 -46.875 Z M 46.875 -46.875" transform="translate(2160.848 2387.994)"/></g></g></g><g fill="#F9F6E9"><g><g><path d="M 80.359375 -12.625 C 81.472656 -11.9375 82.351562 -11.03125 83 -9.90625 C 83.644531 -8.789062 83.96875 -7.632812 83.96875 -6.4375 C 83.96875 -4.894531 83.453125 -3.476562 82.421875 -2.1875 C 81.128906 -0.644531 79.15625 0.125 76.5 0.125 C 74.4375 0.125 72.546875 -0.34375 70.828125 -1.28125 C 64.648438 -4.800781 61.5625 -11.972656 61.5625 -22.796875 C 61.5625 -25.890625 60.550781 -28.335938 58.53125 -30.140625 C 56.507812 -31.941406 53.613281 -32.84375 49.84375 -32.84375 L 25.75 -32.84375 L 25.75 -7.859375 C 25.75 -5.535156 25.125 -3.644531 23.875 -2.1875 C 22.632812 -0.726562 20.988281 0 18.9375 0 C 16.445312 0 14.273438 -0.75 12.421875 -2.25 C 10.578125 -3.75 9.65625 -5.617188 9.65625 -7.859375 L 9.65625 -82.296875 C 9.65625 -84.523438 10.40625 -86.390625 11.90625 -87.890625 C 13.414062 -89.390625 15.285156 -90.140625 17.515625 -90.140625 L 54.609375 -90.140625 C 59.066406 -90.140625 63.269531 -88.9375 67.21875 -86.53125 C 71.164062 -84.132812 74.320312 -80.832031 76.6875 -76.625 C 79.050781 -72.414062 80.234375 -67.691406 80.234375 -62.453125 C 80.234375 -58.160156 79.070312 -53.972656 76.75 -49.890625 C 74.4375 -45.816406 71.429688 -42.582031 67.734375 -40.1875 C 73.148438 -36.40625 76.113281 -31.335938 76.625 -24.984375 C 76.882812 -23.609375 77.015625 -22.273438 77.015625 -20.984375 C 77.359375 -18.328125 77.703125 -16.414062 78.046875 -15.25 C 78.390625 -14.09375 79.160156 -13.21875 80.359375 -12.625 Z M 53.953125 -46.109375 C 55.503906 -46.109375 57.007812 -46.835938 58.46875 -48.296875 C 59.925781 -49.753906 61.125 -51.707031 62.0625 -54.15625 C 63.007812 -56.601562 63.484375 -59.242188 63.484375 -62.078125 C 63.484375 -64.472656 63.007812 -66.679688 62.0625 -68.703125 C 61.125 -70.722656 59.925781 -72.332031 58.46875 -73.53125 C 57.007812 -74.738281 55.503906 -75.34375 53.953125 -75.34375 L 25.75 -75.34375 L 25.75 -46.109375 Z M 53.953125 -46.109375" transform="translate(2265.545 2387.994)"/></g></g></g><g fill="#F9F6E9"><g><g><path d="M 78.046875 -90.140625 C 80.097656 -90.140625 81.769531 -89.453125 83.0625 -88.078125 C 84.351562 -86.710938 85 -85 85 -82.9375 L 85 -7.859375 C 85 -5.617188 84.242188 -3.75 82.734375 -2.25 C 81.234375 -0.75 79.367188 0 77.140625 0 C 75.941406 0 74.757812 -0.191406 73.59375 -0.578125 C 72.4375 -0.960938 71.601562 -1.5 71.09375 -2.1875 L 23.828125 -62.203125 L 23.828125 -7.21875 C 23.828125 -5.15625 23.160156 -3.4375 21.828125 -2.0625 C 20.492188 -0.6875 18.753906 0 16.609375 0 C 14.546875 0 12.867188 -0.6875 11.578125 -2.0625 C 10.296875 -3.4375 9.65625 -5.15625 9.65625 -7.21875 L 9.65625 -82.296875 C 9.65625 -84.523438 10.40625 -86.390625 11.90625 -87.890625 C 13.414062 -89.390625 15.285156 -90.140625 17.515625 -90.140625 C 18.804688 -90.140625 20.070312 -89.878906 21.3125 -89.359375 C 22.5625 -88.847656 23.484375 -88.164062 24.078125 -87.3125 L 70.953125 -27.5625 L 70.953125 -82.9375 C 70.953125 -85 71.617188 -86.710938 72.953125 -88.078125 C 74.285156 -89.453125 75.984375 -90.140625 78.046875 -90.140625 Z M 78.046875 -90.140625" transform="translate(2582.47 2387.994)"/></g></g></g><g fill="#F9F6E9"><g><g><path d="M 48.296875 -90.140625 C 56.367188 -90.140625 63.300781 -88.144531 69.09375 -84.15625 C 74.882812 -80.164062 79.300781 -74.753906 82.34375 -67.921875 C 85.394531 -61.097656 86.921875 -53.484375 86.921875 -45.078125 C 86.921875 -36.660156 85.394531 -29.039062 82.34375 -22.21875 C 79.300781 -15.394531 74.882812 -9.984375 69.09375 -5.984375 C 63.300781 -1.992188 56.367188 0 48.296875 0 L 17.515625 0 C 15.285156 0 13.414062 -0.75 11.90625 -2.25 C 10.40625 -3.75 9.65625 -5.617188 9.65625 -7.859375 L 9.65625 -82.296875 C 9.65625 -84.523438 10.40625 -86.390625 11.90625 -87.890625 C 13.414062 -89.390625 15.285156 -90.140625 17.515625 -90.140625 Z M 47 -14.8125 C 54.726562 -14.8125 60.523438 -17.664062 64.390625 -23.375 C 68.253906 -29.082031 70.1875 -36.316406 70.1875 -45.078125 C 70.1875 -53.828125 68.234375 -61.054688 64.328125 -66.765625 C 60.421875 -72.484375 54.644531 -75.34375 47 -75.34375 L 25.75 -75.34375 L 25.75 -14.8125 Z M 47 -14.8125" transform="translate(2704.166 2387.994)"/></g></g></g><g fill="#F9F6E9"><g><g><path d="M 92.59375 -45.078125 C 92.59375 -36.578125 90.703125 -28.785156 86.921875 -21.703125 C 83.148438 -14.617188 77.9375 -9.015625 71.28125 -4.890625 C 64.625 -0.773438 57.132812 1.28125 48.8125 1.28125 C 40.476562 1.28125 32.984375 -0.773438 26.328125 -4.890625 C 19.679688 -9.015625 14.488281 -14.617188 10.75 -21.703125 C 7.019531 -28.785156 5.15625 -36.578125 5.15625 -45.078125 C 5.15625 -53.578125 7.019531 -61.367188 10.75 -68.453125 C 14.488281 -75.535156 19.679688 -81.132812 26.328125 -85.25 C 32.984375 -89.375 40.476562 -91.4375 48.8125 -91.4375 C 57.132812 -91.4375 64.625 -89.375 71.28125 -85.25 C 77.9375 -81.132812 83.148438 -75.535156 86.921875 -68.453125 C 90.703125 -61.367188 92.59375 -53.578125 92.59375 -45.078125 Z M 75.859375 -45.078125 C 75.859375 -50.828125 74.695312 -56.039062 72.375 -60.71875 C 70.050781 -65.394531 66.828125 -69.109375 62.703125 -71.859375 C 58.585938 -74.609375 53.957031 -75.984375 48.8125 -75.984375 C 43.570312 -75.984375 38.910156 -74.628906 34.828125 -71.921875 C 30.753906 -69.222656 27.578125 -65.507812 25.296875 -60.78125 C 23.023438 -56.0625 21.890625 -50.828125 21.890625 -45.078125 C 21.890625 -39.316406 23.023438 -34.078125 25.296875 -29.359375 C 27.578125 -24.640625 30.753906 -20.925781 34.828125 -18.21875 C 38.910156 -15.519531 43.570312 -14.171875 48.8125 -14.171875 C 53.957031 -14.171875 58.585938 -15.539062 62.703125 -18.28125 C 66.828125 -21.03125 70.050781 -24.742188 72.375 -29.421875 C 74.695312 -34.097656 75.859375 -39.316406 75.859375 -45.078125 Z M 75.859375 -45.078125" transform="translate(3043.111 2387.994)"/></g></g></g><g clip-path="url(#b)"><g clip-path="url(#c)"><path fill="url(#d)" d="M 1776.980469 1770.15625 L 1776.980469 251.4375 L 3682.777344 251.4375 L 3682.777344 1770.15625 Z M 1776.980469 1770.15625"/></g></g><g clip-path="url(#e)"><g clip-path="url(#f)"><path fill="url(#g)" d="M 2868.757812 416.160156 L 2868.757812 219.527344 L 3065.382812 219.527344 L 3065.382812 416.160156 Z M 2868.757812 416.160156"/></g></g><g clip-path="url(#h)"><g clip-path="url(#i)"><path fill="url(#j)" d="M 2819.601562 1831.386719 L 2819.601562 1636.480469 L 3014.5 1636.480469 L 3014.5 1831.386719 Z M 2819.601562 1831.386719"/></g></g><g clip-path="url(#k)"><g clip-path="url(#l)"><path fill="url(#m)" d="M 1818.375 1301.863281 L 1818.375 1175.949219 L 1944.28125 1175.949219 L 1944.28125 1301.863281 Z M 1818.375 1301.863281"/></g></g><g fill="#FFF"><g><g><path d="M 1018.984375 -523.515625 C 1017.742188 -493.597656 1005.90625 -469.289062 983.46875 -450.59375 C 961.03125 -431.894531 934.851562 -422.546875 904.9375 -422.546875 L 287.9375 -422.546875 C 302.894531 -349.003906 337.171875 -291.351562 390.765625 -249.59375 C 444.367188 -207.84375 504.820312 -186.96875 572.125 -186.96875 C 623.226562 -186.96875 663.113281 -191.640625 691.78125 -200.984375 C 720.457031 -210.335938 743.207031 -220.3125 760.03125 -230.90625 C 776.863281 -241.5 788.394531 -248.664062 794.625 -252.40625 C 817.0625 -263.625 838.25 -269.234375 858.1875 -269.234375 C 884.363281 -269.234375 906.800781 -259.882812 925.5 -241.1875 C 944.195312 -222.488281 953.546875 -200.675781 953.546875 -175.75 C 953.546875 -142.09375 936.097656 -111.554688 901.203125 -84.140625 C 866.296875 -55.472656 819.550781 -31.164062 760.96875 -11.21875 C 702.382812 8.726562 643.175781 18.703125 583.34375 18.703125 C 478.644531 18.703125 387.34375 -3.109375 309.4375 -46.734375 C 231.53125 -90.367188 171.382812 -150.515625 129 -227.171875 C 86.625 -303.828125 65.4375 -390.144531 65.4375 -486.125 C 65.4375 -593.320312 87.875 -687.429688 132.75 -768.453125 C 177.625 -849.472656 236.832031 -911.484375 310.375 -954.484375 C 383.914062 -997.484375 462.441406 -1018.984375 545.953125 -1018.984375 C 628.222656 -1018.984375 705.816406 -996.546875 778.734375 -951.671875 C 851.648438 -906.804688 909.921875 -846.351562 953.546875 -770.3125 C 997.171875 -694.28125 1018.984375 -612.015625 1018.984375 -523.515625 Z M 545.953125 -813.328125 C 401.359375 -813.328125 315.972656 -745.390625 289.796875 -609.515625 L 779.671875 -609.515625 L 779.671875 -622.609375 C 774.679688 -674.960938 749.125 -719.835938 703 -757.234375 C 656.882812 -794.628906 604.535156 -813.328125 545.953125 -813.328125 Z M 545.953125 -813.328125" transform="translate(2049.773 1529.82)"/></g></g></g></svg>