<svg xmlns="http://www.w3.org/2000/svg" xmlns:xlink="http://www.w3.org/1999/xlink" width="6912" zoomAndPan="magnify" viewBox="0 0 5184 2592.000001" height="3456" preserveAspectRatio="xMidYMid meet" version="1.0"><defs><g><g id="id1"/></g><clipPath id="id2"><path d="M 1776 251 L 3680 251 L 3680 1771 L 1776 1771 Z M 1776 251 " clip-rule="nonzero"/></clipPath><clipPath id="id3"><path d="M 3162.699219 1576.988281 C 3079.917969 1579.574219 3001.449219 1563.191406 2930.738281 1532.144531 C 2871.242188 1506.273438 2801.394531 1527.835938 2767.765625 1583.886719 C 2698.78125 1695.132812 2575.472656 1770.160156 2434.914062 1770.160156 C 2343.511719 1770.160156 2259.007812 1738.25 2192.609375 1685.648438 C 2085.683594 1600.273438 2033.945312 1463.15625 2051.191406 1326.902344 L 2068.4375 1194.097656 C 2070.160156 1177.710938 2058.953125 1163.050781 2042.566406 1161.328125 C 1893.390625 1145.804688 1776.980469 1020.761719 1776.980469 867.261719 C 1776.980469 736.179688 1863.210938 624.074219 1981.34375 586.128906 C 1993.417969 582.679688 2002.902344 572.332031 2005.488281 560.257812 C 2048.605469 382.609375 2208.128906 251.53125 2398.699219 251.53125 C 2543.566406 251.53125 2670.324219 327.417969 2741.894531 442.113281 C 2791.910156 522.3125 2888.488281 560.257812 2978.167969 530.9375 C 3029.90625 513.691406 3085.953125 505.066406 3143.726562 505.066406 C 3436.910156 505.066406 3674.90625 740.492188 3679.21875 1031.972656 C 3685.253906 1323.453125 3453.292969 1567.503906 3162.699219 1576.988281 Z M 3162.699219 1576.988281 " clip-rule="nonzero"/></clipPath><linearGradient x1="-0.00000708536" gradientTransform="matrix(8.623024, 0, 0, -8.623678, 1776.979137, 1831.387517)" y1="95.099998" x2="220.991358" gradientUnits="userSpaceOnUse" y2="95.099998" xlink:type="simple" xlink:actuate="onLoad" id="id4" xlink:show="other"><stop stop-opacity="1" stop-color="rgb(53.69873%, 39.199829%, 74.899292%)" offset="0"/><stop stop-opacity="1" stop-color="rgb(53.849792%, 39.219666%, 74.665833%)" offset="0.00390625"/><stop stop-opacity="1" stop-color="rgb(54.000854%, 39.239502%, 74.433899%)" offset="0.0078125"/><stop stop-opacity="1" stop-color="rgb(54.150391%, 39.259338%, 74.200439%)" offset="0.0117188"/><stop stop-opacity="1" stop-color="rgb(54.301453%, 39.279175%, 73.96698%)" offset="0.015625"/><stop stop-opacity="1" stop-color="rgb(54.450989%, 39.299011%, 73.733521%)" offset="0.0195313"/><stop stop-opacity="1" stop-color="rgb(54.602051%, 39.318848%, 73.501587%)" offset="0.0234375"/><stop stop-opacity="1" stop-color="rgb(54.753113%, 39.338684%, 73.268127%)" offset="0.0273438"/><stop stop-opacity="1" stop-color="rgb(54.904175%, 39.358521%, 73.034668%)" offset="0.03125"/><stop stop-opacity="1" stop-color="rgb(55.053711%, 39.378357%, 72.801208%)" offset="0.0351563"/><stop stop-opacity="1" stop-color="rgb(55.204773%, 39.398193%, 72.569275%)" offset="0.0390625"/><stop stop-opacity="1" stop-color="rgb(55.354309%, 39.41803%, 72.335815%)" offset="0.0429688"/><stop stop-opacity="1" stop-color="rgb(55.505371%, 39.437866%, 72.102356%)" offset="0.046875"/><stop stop-opacity="1" stop-color="rgb(55.656433%, 39.457703%, 71.868896%)" offset="0.0507813"/><stop stop-opacity="1" stop-color="rgb(55.807495%, 39.479065%, 71.636963%)" offset="0.0546875"/><stop stop-opacity="1" stop-color="rgb(55.957031%, 39.498901%, 71.403503%)" offset="0.0585938"/><stop stop-opacity="1" stop-color="rgb(56.108093%, 39.518738%, 71.170044%)" offset="0.0625"/><stop stop-opacity="1" stop-color="rgb(56.257629%, 39.538574%, 70.936584%)" offset="0.0664062"/><stop stop-opacity="1" stop-color="rgb(56.408691%, 39.558411%, 70.704651%)" offset="0.0703125"/><stop stop-opacity="1" stop-color="rgb(56.559753%, 39.578247%, 70.471191%)" offset="0.0742188"/><stop stop-opacity="1" stop-color="rgb(56.710815%, 39.598083%, 70.237732%)" offset="0.078125"/><stop stop-opacity="1" stop-color="rgb(56.860352%, 39.61792%, 70.004272%)" offset="0.0820313"/><stop stop-opacity="1" stop-color="rgb(57.011414%, 39.637756%, 69.772339%)" offset="0.0859375"/><stop stop-opacity="1" stop-color="rgb(57.16095%, 39.657593%, 69.538879%)" offset="0.0898438"/><stop stop-opacity="1" stop-color="rgb(57.312012%, 39.677429%, 69.30542%)" offset="0.09375"/><stop stop-opacity="1" stop-color="rgb(57.461548%, 39.697266%, 69.07196%)" offset="0.0976563"/><stop stop-opacity="1" stop-color="rgb(57.61261%, 39.717102%, 68.840027%)" offset="0.101563"/><stop stop-opacity="1" stop-color="rgb(57.763672%, 39.736938%, 68.606567%)" offset="0.105469"/><stop stop-opacity="1" stop-color="rgb(57.914734%, 39.758301%, 68.374634%)" offset="0.109375"/><stop stop-opacity="1" stop-color="rgb(58.06427%, 39.778137%, 68.141174%)" offset="0.113281"/><stop stop-opacity="1" stop-color="rgb(58.215332%, 39.797974%, 67.907715%)" offset="0.117188"/><stop stop-opacity="1" stop-color="rgb(58.364868%, 39.81781%, 67.674255%)" offset="0.121094"/><stop stop-opacity="1" stop-color="rgb(58.51593%, 39.837646%, 67.442322%)" offset="0.125"/><stop stop-opacity="1" stop-color="rgb(58.666992%, 39.857483%, 67.208862%)" offset="0.128906"/><stop stop-opacity="1" stop-color="rgb(58.818054%, 39.877319%, 66.975403%)" offset="0.132813"/><stop stop-opacity="1" stop-color="rgb(58.96759%, 39.897156%, 66.741943%)" offset="0.136719"/><stop stop-opacity="1" stop-color="rgb(59.118652%, 39.916992%, 66.51001%)" offset="0.140625"/><stop stop-opacity="1" stop-color="rgb(59.268188%, 39.936829%, 66.27655%)" offset="0.144531"/><stop stop-opacity="1" stop-color="rgb(59.41925%, 39.956665%, 66.043091%)" offset="0.148438"/><stop stop-opacity="1" stop-color="rgb(59.570312%, 39.976501%, 65.809631%)" offset="0.152344"/><stop stop-opacity="1" stop-color="rgb(59.721375%, 39.996338%, 65.577698%)" offset="0.15625"/><stop stop-opacity="1" stop-color="rgb(59.870911%, 40.016174%, 65.344238%)" offset="0.160156"/><stop stop-opacity="1" stop-color="rgb(60.021973%, 40.037537%, 65.110779%)" offset="0.164063"/><stop stop-opacity="1" stop-color="rgb(60.171509%, 40.057373%, 64.877319%)" offset="0.167969"/><stop stop-opacity="1" stop-color="rgb(60.322571%, 40.077209%, 64.645386%)" offset="0.171875"/><stop stop-opacity="1" stop-color="rgb(60.473633%, 40.097046%, 64.411926%)" offset="0.175781"/><stop stop-opacity="1" stop-color="rgb(60.624695%, 40.116882%, 64.178467%)" offset="0.179688"/><stop stop-opacity="1" stop-color="rgb(60.774231%, 40.136719%, 63.945007%)" offset="0.183594"/><stop stop-opacity="1" stop-color="rgb(60.925293%, 40.156555%, 63.713074%)" offset="0.1875"/><stop stop-opacity="1" stop-color="rgb(61.074829%, 40.176392%, 63.479614%)" offset="0.191406"/><stop stop-opacity="1" stop-color="rgb(61.225891%, 40.196228%, 63.247681%)" offset="0.195313"/><stop stop-opacity="1" stop-color="rgb(61.376953%, 40.216064%, 63.014221%)" offset="0.199219"/><stop stop-opacity="1" stop-color="rgb(61.528015%, 40.235901%, 62.780762%)" offset="0.203125"/><stop stop-opacity="1" stop-color="rgb(61.677551%, 40.255737%, 62.547302%)" offset="0.207031"/><stop stop-opacity="1" stop-color="rgb(61.828613%, 40.275574%, 62.315369%)" offset="0.210938"/><stop stop-opacity="1" stop-color="rgb(61.978149%, 40.29541%, 62.081909%)" offset="0.214844"/><stop stop-opacity="1" stop-color="rgb(62.129211%, 40.315247%, 61.84845%)" offset="0.21875"/><stop stop-opacity="1" stop-color="rgb(62.280273%, 40.335083%, 61.61499%)" offset="0.222656"/><stop stop-opacity="1" stop-color="rgb(62.431335%, 40.356445%, 61.383057%)" offset="0.226563"/><stop stop-opacity="1" stop-color="rgb(62.580872%, 40.376282%, 61.149597%)" offset="0.230469"/><stop stop-opacity="1" stop-color="rgb(62.731934%, 40.396118%, 60.916138%)" offset="0.234375"/><stop stop-opacity="1" stop-color="rgb(62.88147%, 40.415955%, 60.682678%)" offset="0.238281"/><stop stop-opacity="1" stop-color="rgb(63.032532%, 40.435791%, 60.450745%)" offset="0.242188"/><stop stop-opacity="1" stop-color="rgb(63.182068%, 40.455627%, 60.217285%)" offset="0.246094"/><stop stop-opacity="1" stop-color="rgb(63.33313%, 40.475464%, 59.983826%)" offset="0.25"/><stop stop-opacity="1" stop-color="rgb(63.484192%, 40.4953%, 59.750366%)" offset="0.253906"/><stop stop-opacity="1" stop-color="rgb(63.635254%, 40.515137%, 59.518433%)" offset="0.257812"/><stop stop-opacity="1" stop-color="rgb(63.78479%, 40.534973%, 59.284973%)" offset="0.261719"/><stop stop-opacity="1" stop-color="rgb(63.935852%, 40.55481%, 59.051514%)" offset="0.265625"/><stop stop-opacity="1" stop-color="rgb(64.085388%, 40.574646%, 58.818054%)" offset="0.269531"/><stop stop-opacity="1" stop-color="rgb(64.23645%, 40.594482%, 58.586121%)" offset="0.273438"/><stop stop-opacity="1" stop-color="rgb(64.387512%, 40.614319%, 58.352661%)" offset="0.277344"/><stop stop-opacity="1" stop-color="rgb(64.538574%, 40.635681%, 58.119202%)" offset="0.28125"/><stop stop-opacity="1" stop-color="rgb(64.68811%, 40.655518%, 57.885742%)" offset="0.285156"/><stop stop-opacity="1" stop-color="rgb(64.839172%, 40.675354%, 57.653809%)" offset="0.289062"/><stop stop-opacity="1" stop-color="rgb(64.988708%, 40.69519%, 57.420349%)" offset="0.292969"/><stop stop-opacity="1" stop-color="rgb(65.139771%, 40.715027%, 57.188416%)" offset="0.296875"/><stop stop-opacity="1" stop-color="rgb(65.290833%, 40.734863%, 56.954956%)" offset="0.300781"/><stop stop-opacity="1" stop-color="rgb(65.441895%, 40.7547%, 56.721497%)" offset="0.304688"/><stop stop-opacity="1" stop-color="rgb(65.591431%, 40.774536%, 56.488037%)" offset="0.308594"/><stop stop-opacity="1" stop-color="rgb(65.742493%, 40.794373%, 56.256104%)" offset="0.3125"/><stop stop-opacity="1" stop-color="rgb(65.892029%, 40.814209%, 56.022644%)" offset="0.316406"/><stop stop-opacity="1" stop-color="rgb(66.043091%, 40.834045%, 55.789185%)" offset="0.320312"/><stop stop-opacity="1" stop-color="rgb(66.194153%, 40.853882%, 55.555725%)" offset="0.324219"/><stop stop-opacity="1" stop-color="rgb(66.345215%, 40.873718%, 55.323792%)" offset="0.328125"/><stop stop-opacity="1" stop-color="rgb(66.494751%, 40.893555%, 55.090332%)" offset="0.332031"/><stop stop-opacity="1" stop-color="rgb(66.645813%, 40.914917%, 54.856873%)" offset="0.335938"/><stop stop-opacity="1" stop-color="rgb(66.795349%, 40.934753%, 54.623413%)" offset="0.339844"/><stop stop-opacity="1" stop-color="rgb(66.946411%, 40.95459%, 54.391479%)" offset="0.34375"/><stop stop-opacity="1" stop-color="rgb(67.097473%, 40.974426%, 54.15802%)" offset="0.347656"/><stop stop-opacity="1" stop-color="rgb(67.248535%, 40.994263%, 53.924561%)" offset="0.351562"/><stop stop-opacity="1" stop-color="rgb(67.398071%, 41.014099%, 53.691101%)" offset="0.355469"/><stop stop-opacity="1" stop-color="rgb(67.549133%, 41.033936%, 53.459167%)" offset="0.359375"/><stop stop-opacity="1" stop-color="rgb(67.698669%, 41.053772%, 53.225708%)" offset="0.363281"/><stop stop-opacity="1" stop-color="rgb(67.849731%, 41.073608%, 52.992249%)" offset="0.367188"/><stop stop-opacity="1" stop-color="rgb(68.000793%, 41.093445%, 52.758789%)" offset="0.371094"/><stop stop-opacity="1" stop-color="rgb(68.151855%, 41.113281%, 52.526855%)" offset="0.375"/><stop stop-opacity="1" stop-color="rgb(68.301392%, 41.133118%, 52.293396%)" offset="0.378906"/><stop stop-opacity="1" stop-color="rgb(68.452454%, 41.152954%, 52.061462%)" offset="0.382812"/><stop stop-opacity="1" stop-color="rgb(68.60199%, 41.172791%, 51.828003%)" offset="0.386719"/><stop stop-opacity="1" stop-color="rgb(68.753052%, 41.194153%, 51.594543%)" offset="0.390625"/><stop stop-opacity="1" stop-color="rgb(68.904114%, 41.213989%, 51.361084%)" offset="0.394531"/><stop stop-opacity="1" stop-color="rgb(69.055176%, 41.233826%, 51.12915%)" offset="0.398438"/><stop stop-opacity="1" stop-color="rgb(69.204712%, 41.253662%, 50.895691%)" offset="0.402344"/><stop stop-opacity="1" stop-color="rgb(69.355774%, 41.273499%, 50.662231%)" offset="0.40625"/><stop stop-opacity="1" stop-color="rgb(69.50531%, 41.293335%, 50.428772%)" offset="0.410156"/><stop stop-opacity="1" stop-color="rgb(69.656372%, 41.313171%, 50.196838%)" offset="0.414062"/><stop stop-opacity="1" stop-color="rgb(69.805908%, 41.333008%, 49.963379%)" offset="0.417969"/><stop stop-opacity="1" stop-color="rgb(69.95697%, 41.352844%, 49.729919%)" offset="0.421875"/><stop stop-opacity="1" stop-color="rgb(70.108032%, 41.372681%, 49.49646%)" offset="0.425781"/><stop stop-opacity="1" stop-color="rgb(70.259094%, 41.392517%, 49.264526%)" offset="0.429688"/><stop stop-opacity="1" stop-color="rgb(70.40863%, 41.412354%, 49.031067%)" offset="0.433594"/><stop stop-opacity="1" stop-color="rgb(70.559692%, 41.43219%, 48.797607%)" offset="0.4375"/><stop stop-opacity="1" stop-color="rgb(70.709229%, 41.452026%, 48.564148%)" offset="0.441406"/><stop stop-opacity="1" stop-color="rgb(70.860291%, 41.471863%, 48.332214%)" offset="0.445312"/><stop stop-opacity="1" stop-color="rgb(71.011353%, 41.491699%, 48.098755%)" offset="0.449219"/><stop stop-opacity="1" stop-color="rgb(71.162415%, 41.513062%, 47.865295%)" offset="0.453125"/><stop stop-opacity="1" stop-color="rgb(71.311951%, 41.532898%, 47.631836%)" offset="0.457031"/><stop stop-opacity="1" stop-color="rgb(71.463013%, 41.552734%, 47.399902%)" offset="0.460938"/><stop stop-opacity="1" stop-color="rgb(71.612549%, 41.572571%, 47.166443%)" offset="0.464844"/><stop stop-opacity="1" stop-color="rgb(71.763611%, 41.592407%, 46.932983%)" offset="0.46875"/><stop stop-opacity="1" stop-color="rgb(71.914673%, 41.612244%, 46.699524%)" offset="0.472656"/><stop stop-opacity="1" stop-color="rgb(72.065735%, 41.63208%, 46.46759%)" offset="0.476562"/><stop stop-opacity="1" stop-color="rgb(72.215271%, 41.651917%, 46.234131%)" offset="0.480469"/><stop stop-opacity="1" stop-color="rgb(72.366333%, 41.671753%, 46.002197%)" offset="0.484375"/><stop stop-opacity="1" stop-color="rgb(72.515869%, 41.691589%, 45.768738%)" offset="0.488281"/><stop stop-opacity="1" stop-color="rgb(72.666931%, 41.711426%, 45.535278%)" offset="0.492188"/><stop stop-opacity="1" stop-color="rgb(72.817993%, 41.731262%, 45.301819%)" offset="0.496094"/><stop stop-opacity="1" stop-color="rgb(72.969055%, 41.751099%, 45.069885%)" offset="0.5"/><stop stop-opacity="1" stop-color="rgb(73.118591%, 41.770935%, 44.836426%)" offset="0.503906"/><stop stop-opacity="1" stop-color="rgb(73.269653%, 41.792297%, 44.602966%)" offset="0.507812"/><stop stop-opacity="1" stop-color="rgb(73.419189%, 41.812134%, 44.369507%)" offset="0.511719"/><stop stop-opacity="1" stop-color="rgb(73.570251%, 41.83197%, 44.137573%)" offset="0.515625"/><stop stop-opacity="1" stop-color="rgb(73.721313%, 41.851807%, 43.904114%)" offset="0.519531"/><stop stop-opacity="1" stop-color="rgb(73.872375%, 41.871643%, 43.670654%)" offset="0.523437"/><stop stop-opacity="1" stop-color="rgb(74.021912%, 41.891479%, 43.437195%)" offset="0.527344"/><stop stop-opacity="1" stop-color="rgb(74.172974%, 41.911316%, 43.205261%)" offset="0.53125"/><stop stop-opacity="1" stop-color="rgb(74.32251%, 41.931152%, 42.971802%)" offset="0.535156"/><stop stop-opacity="1" stop-color="rgb(74.473572%, 41.950989%, 42.738342%)" offset="0.539063"/><stop stop-opacity="1" stop-color="rgb(74.624634%, 41.970825%, 42.504883%)" offset="0.542969"/><stop stop-opacity="1" stop-color="rgb(74.775696%, 41.990662%, 42.272949%)" offset="0.546875"/><stop stop-opacity="1" stop-color="rgb(74.925232%, 42.010498%, 42.03949%)" offset="0.550781"/><stop stop-opacity="1" stop-color="rgb(75.076294%, 42.030334%, 41.80603%)" offset="0.554688"/><stop stop-opacity="1" stop-color="rgb(75.22583%, 42.050171%, 41.572571%)" offset="0.558594"/><stop stop-opacity="1" stop-color="rgb(75.376892%, 42.071533%, 41.340637%)" offset="0.5625"/><stop stop-opacity="1" stop-color="rgb(75.527954%, 42.09137%, 41.107178%)" offset="0.566406"/><stop stop-opacity="1" stop-color="rgb(75.679016%, 42.111206%, 40.875244%)" offset="0.570312"/><stop stop-opacity="1" stop-color="rgb(75.828552%, 42.131042%, 40.641785%)" offset="0.574219"/><stop stop-opacity="1" stop-color="rgb(75.979614%, 42.150879%, 40.408325%)" offset="0.578125"/><stop stop-opacity="1" stop-color="rgb(76.12915%, 42.170715%, 40.174866%)" offset="0.582031"/><stop stop-opacity="1" stop-color="rgb(76.280212%, 42.190552%, 39.942932%)" offset="0.585937"/><stop stop-opacity="1" stop-color="rgb(76.429749%, 42.210388%, 39.709473%)" offset="0.589844"/><stop stop-opacity="1" stop-color="rgb(76.580811%, 42.230225%, 39.476013%)" offset="0.59375"/><stop stop-opacity="1" stop-color="rgb(76.731873%, 42.250061%, 39.242554%)" offset="0.597656"/><stop stop-opacity="1" stop-color="rgb(76.882935%, 42.269897%, 39.01062%)" offset="0.601563"/><stop stop-opacity="1" stop-color="rgb(77.032471%, 42.289734%, 38.777161%)" offset="0.605469"/><stop stop-opacity="1" stop-color="rgb(77.183533%, 42.30957%, 38.543701%)" offset="0.609375"/><stop stop-opacity="1" stop-color="rgb(77.333069%, 42.329407%, 38.310242%)" offset="0.613281"/><stop stop-opacity="1" stop-color="rgb(77.484131%, 42.350769%, 38.078308%)" offset="0.617188"/><stop stop-opacity="1" stop-color="rgb(77.635193%, 42.370605%, 37.844849%)" offset="0.621094"/><stop stop-opacity="1" stop-color="rgb(77.786255%, 42.390442%, 37.611389%)" offset="0.625"/><stop stop-opacity="1" stop-color="rgb(77.935791%, 42.410278%, 37.37793%)" offset="0.628906"/><stop stop-opacity="1" stop-color="rgb(78.086853%, 42.430115%, 37.145996%)" offset="0.632812"/><stop stop-opacity="1" stop-color="rgb(78.236389%, 42.449951%, 36.912537%)" offset="0.636719"/><stop stop-opacity="1" stop-color="rgb(78.387451%, 42.469788%, 36.679077%)" offset="0.640625"/><stop stop-opacity="1" stop-color="rgb(78.538513%, 42.489624%, 36.445618%)" offset="0.644531"/><stop stop-opacity="1" stop-color="rgb(78.689575%, 42.50946%, 36.213684%)" offset="0.648437"/><stop stop-opacity="1" stop-color="rgb(78.839111%, 42.529297%, 35.980225%)" offset="0.652344"/><stop stop-opacity="1" stop-color="rgb(78.990173%, 42.549133%, 35.746765%)" offset="0.65625"/><stop stop-opacity="1" stop-color="rgb(79.139709%, 42.56897%, 35.513306%)" offset="0.660156"/><stop stop-opacity="1" stop-color="rgb(79.290771%, 42.588806%, 35.281372%)" offset="0.664063"/><stop stop-opacity="1" stop-color="rgb(79.441833%, 42.608643%, 35.047913%)" offset="0.667969"/><stop stop-opacity="1" stop-color="rgb(79.592896%, 42.628479%, 34.815979%)" offset="0.671875"/><stop stop-opacity="1" stop-color="rgb(79.742432%, 42.648315%, 34.58252%)" offset="0.675781"/><stop stop-opacity="1" stop-color="rgb(79.893494%, 42.669678%, 34.34906%)" offset="0.679688"/><stop stop-opacity="1" stop-color="rgb(80.04303%, 42.689514%, 34.115601%)" offset="0.683594"/><stop stop-opacity="1" stop-color="rgb(80.194092%, 42.709351%, 33.883667%)" offset="0.6875"/><stop stop-opacity="1" stop-color="rgb(80.345154%, 42.729187%, 33.650208%)" offset="0.691406"/><stop stop-opacity="1" stop-color="rgb(80.496216%, 42.749023%, 33.416748%)" offset="0.695312"/><stop stop-opacity="1" stop-color="rgb(80.645752%, 42.76886%, 33.183289%)" offset="0.699219"/><stop stop-opacity="1" stop-color="rgb(80.796814%, 42.788696%, 32.951355%)" offset="0.703125"/><stop stop-opacity="1" stop-color="rgb(80.94635%, 42.808533%, 32.717896%)" offset="0.707031"/><stop stop-opacity="1" stop-color="rgb(81.097412%, 42.828369%, 32.484436%)" offset="0.710937"/><stop stop-opacity="1" stop-color="rgb(81.248474%, 42.848206%, 32.250977%)" offset="0.714844"/><stop stop-opacity="1" stop-color="rgb(81.399536%, 42.868042%, 32.019043%)" offset="0.71875"/><stop stop-opacity="1" stop-color="rgb(81.549072%, 42.887878%, 31.785583%)" offset="0.722656"/><stop stop-opacity="1" stop-color="rgb(81.700134%, 42.907715%, 31.552124%)" offset="0.726563"/><stop stop-opacity="1" stop-color="rgb(81.84967%, 42.927551%, 31.318665%)" offset="0.730469"/><stop stop-opacity="1" stop-color="rgb(82.000732%, 42.948914%, 31.086731%)" offset="0.734375"/><stop stop-opacity="1" stop-color="rgb(82.151794%, 42.96875%, 30.853271%)" offset="0.738281"/><stop stop-opacity="1" stop-color="rgb(82.302856%, 42.988586%, 30.619812%)" offset="0.742188"/><stop stop-opacity="1" stop-color="rgb(82.452393%, 43.008423%, 30.386353%)" offset="0.746094"/><stop stop-opacity="1" stop-color="rgb(82.603455%, 43.028259%, 30.154419%)" offset="0.75"/><stop stop-opacity="1" stop-color="rgb(82.752991%, 43.048096%, 29.920959%)" offset="0.753906"/><stop stop-opacity="1" stop-color="rgb(82.904053%, 43.067932%, 29.689026%)" offset="0.757812"/><stop stop-opacity="1" stop-color="rgb(83.053589%, 43.087769%, 29.455566%)" offset="0.761719"/><stop stop-opacity="1" stop-color="rgb(83.204651%, 43.107605%, 29.222107%)" offset="0.765625"/><stop stop-opacity="1" stop-color="rgb(83.355713%, 43.127441%, 28.988647%)" offset="0.769531"/><stop stop-opacity="1" stop-color="rgb(83.506775%, 43.147278%, 28.756714%)" offset="0.773437"/><stop stop-opacity="1" stop-color="rgb(83.656311%, 43.167114%, 28.523254%)" offset="0.777344"/><stop stop-opacity="1" stop-color="rgb(83.807373%, 43.186951%, 28.289795%)" offset="0.78125"/><stop stop-opacity="1" stop-color="rgb(83.956909%, 43.206787%, 28.056335%)" offset="0.785156"/><stop stop-opacity="1" stop-color="rgb(84.107971%, 43.228149%, 27.824402%)" offset="0.789063"/><stop stop-opacity="1" stop-color="rgb(84.259033%, 43.247986%, 27.590942%)" offset="0.792969"/><stop stop-opacity="1" stop-color="rgb(84.410095%, 43.267822%, 27.357483%)" offset="0.796875"/><stop stop-opacity="1" stop-color="rgb(84.559631%, 43.287659%, 27.124023%)" offset="0.800781"/><stop stop-opacity="1" stop-color="rgb(84.710693%, 43.307495%, 26.89209%)" offset="0.804688"/><stop stop-opacity="1" stop-color="rgb(84.860229%, 43.327332%, 26.65863%)" offset="0.808594"/><stop stop-opacity="1" stop-color="rgb(85.011292%, 43.347168%, 26.425171%)" offset="0.8125"/><stop stop-opacity="1" stop-color="rgb(85.162354%, 43.367004%, 26.191711%)" offset="0.816406"/><stop stop-opacity="1" stop-color="rgb(85.313416%, 43.386841%, 25.959778%)" offset="0.820312"/><stop stop-opacity="1" stop-color="rgb(85.462952%, 43.406677%, 25.726318%)" offset="0.824219"/><stop stop-opacity="1" stop-color="rgb(85.614014%, 43.426514%, 25.492859%)" offset="0.828125"/><stop stop-opacity="1" stop-color="rgb(85.76355%, 43.44635%, 25.259399%)" offset="0.832031"/><stop stop-opacity="1" stop-color="rgb(85.914612%, 43.466187%, 25.027466%)" offset="0.835937"/><stop stop-opacity="1" stop-color="rgb(86.065674%, 43.486023%, 24.794006%)" offset="0.839844"/><stop stop-opacity="1" stop-color="rgb(86.216736%, 43.507385%, 24.562073%)" offset="0.84375"/><stop stop-opacity="1" stop-color="rgb(86.366272%, 43.527222%, 24.328613%)" offset="0.847656"/><stop stop-opacity="1" stop-color="rgb(86.517334%, 43.547058%, 24.095154%)" offset="0.851563"/><stop stop-opacity="1" stop-color="rgb(86.66687%, 43.566895%, 23.861694%)" offset="0.855469"/><stop stop-opacity="1" stop-color="rgb(86.817932%, 43.586731%, 23.629761%)" offset="0.859375"/><stop stop-opacity="1" stop-color="rgb(86.968994%, 43.606567%, 23.396301%)" offset="0.863281"/><stop stop-opacity="1" stop-color="rgb(87.120056%, 43.626404%, 23.162842%)" offset="0.867188"/><stop stop-opacity="1" stop-color="rgb(87.269592%, 43.64624%, 22.929382%)" offset="0.871094"/><stop stop-opacity="1" stop-color="rgb(87.420654%, 43.666077%, 22.697449%)" offset="0.875"/><stop stop-opacity="1" stop-color="rgb(87.57019%, 43.685913%, 22.463989%)" offset="0.878906"/><stop stop-opacity="1" stop-color="rgb(87.721252%, 43.70575%, 22.23053%)" offset="0.882812"/><stop stop-opacity="1" stop-color="rgb(87.872314%, 43.725586%, 21.99707%)" offset="0.886719"/><stop stop-opacity="1" stop-color="rgb(88.023376%, 43.745422%, 21.765137%)" offset="0.890625"/><stop stop-opacity="1" stop-color="rgb(88.172913%, 43.765259%, 21.531677%)" offset="0.894531"/><stop stop-opacity="1" stop-color="rgb(88.323975%, 43.786621%, 21.298218%)" offset="0.898437"/><stop stop-opacity="1" stop-color="rgb(88.473511%, 43.806458%, 21.064758%)" offset="0.902344"/><stop stop-opacity="1" stop-color="rgb(88.624573%, 43.826294%, 20.832825%)" offset="0.90625"/><stop stop-opacity="1" stop-color="rgb(88.774109%, 43.84613%, 20.599365%)" offset="0.910156"/><stop stop-opacity="1" stop-color="rgb(88.925171%, 43.865967%, 20.365906%)" offset="0.914063"/><stop stop-opacity="1" stop-color="rgb(89.076233%, 43.885803%, 20.132446%)" offset="0.917969"/><stop stop-opacity="1" stop-color="rgb(89.227295%, 43.90564%, 19.900513%)" offset="0.921875"/><stop stop-opacity="1" stop-color="rgb(89.376831%, 43.925476%, 19.667053%)" offset="0.925781"/><stop stop-opacity="1" stop-color="rgb(89.527893%, 43.945312%, 19.433594%)" offset="0.929688"/><stop stop-opacity="1" stop-color="rgb(89.677429%, 43.965149%, 19.200134%)" offset="0.933594"/><stop stop-opacity="1" stop-color="rgb(89.828491%, 43.984985%, 18.968201%)" offset="0.9375"/><stop stop-opacity="1" stop-color="rgb(89.979553%, 44.004822%, 18.734741%)" offset="0.941406"/><stop stop-opacity="1" stop-color="rgb(90.130615%, 44.024658%, 18.502808%)" offset="0.945312"/><stop stop-opacity="1" stop-color="rgb(90.280151%, 44.044495%, 18.269348%)" offset="0.949219"/><stop stop-opacity="1" stop-color="rgb(90.431213%, 44.064331%, 18.035889%)" offset="0.953125"/><stop stop-opacity="1" stop-color="rgb(90.58075%, 44.084167%, 17.802429%)" offset="0.957031"/><stop stop-opacity="1" stop-color="rgb(90.731812%, 44.10553%, 17.570496%)" offset="0.960937"/><stop stop-opacity="1" stop-color="rgb(90.882874%, 44.125366%, 17.337036%)" offset="0.964844"/><stop stop-opacity="1" stop-color="rgb(91.033936%, 44.145203%, 17.103577%)" offset="0.96875"/><stop stop-opacity="1" stop-color="rgb(91.183472%, 44.165039%, 16.870117%)" offset="0.972656"/><stop stop-opacity="1" stop-color="rgb(91.334534%, 44.184875%, 16.638184%)" offset="0.976563"/><stop stop-opacity="1" stop-color="rgb(91.48407%, 44.204712%, 16.404724%)" offset="0.980469"/><stop stop-opacity="1" stop-color="rgb(91.635132%, 44.224548%, 16.171265%)" offset="0.984375"/><stop stop-opacity="1" stop-color="rgb(91.786194%, 44.244385%, 15.937805%)" offset="0.988281"/><stop stop-opacity="1" stop-color="rgb(91.937256%, 44.264221%, 15.705872%)" offset="0.992188"/><stop stop-opacity="1" stop-color="rgb(92.068481%, 44.281006%, 15.50293%)" offset="0.996094"/><stop stop-opacity="1" stop-color="rgb(92.199707%, 44.299316%, 15.299988%)" offset="1"/></linearGradient><clipPath id="id5"><path d="M 2868 219 L 3066 219 L 3066 417 L 2868 417 Z M 2868 219 " clip-rule="nonzero"/></clipPath><clipPath id="id6"><path d="M 3065.257812 317.933594 C 3065.257812 316.324219 3065.21875 314.714844 3065.140625 313.109375 C 3065.0625 311.5 3064.941406 309.898438 3064.785156 308.296875 C 3064.628906 306.695312 3064.429688 305.097656 3064.195312 303.507812 C 3063.957031 301.914062 3063.683594 300.332031 3063.371094 298.753906 C 3063.054688 297.175781 3062.703125 295.605469 3062.3125 294.042969 C 3061.921875 292.484375 3061.492188 290.933594 3061.027344 289.394531 C 3060.558594 287.855469 3060.054688 286.328125 3059.511719 284.8125 C 3058.96875 283.296875 3058.390625 281.796875 3057.777344 280.3125 C 3057.160156 278.824219 3056.507812 277.355469 3055.820312 275.898438 C 3055.132812 274.445312 3054.410156 273.007812 3053.652344 271.589844 C 3052.894531 270.171875 3052.101562 268.769531 3051.273438 267.390625 C 3050.445312 266.011719 3049.585938 264.652344 3048.691406 263.3125 C 3047.796875 261.976562 3046.871094 260.660156 3045.914062 259.367188 C 3044.953125 258.078125 3043.964844 256.808594 3042.945312 255.566406 C 3041.925781 254.320312 3040.875 253.101562 3039.792969 251.910156 C 3038.714844 250.71875 3037.605469 249.554688 3036.464844 248.417969 C 3035.328125 247.277344 3034.164062 246.167969 3032.972656 245.089844 C 3031.78125 244.007812 3030.5625 242.957031 3029.320312 241.9375 C 3028.074219 240.917969 3026.808594 239.925781 3025.515625 238.96875 C 3024.222656 238.011719 3022.90625 237.085938 3021.570312 236.191406 C 3020.230469 235.296875 3018.875 234.4375 3017.492188 233.609375 C 3016.113281 232.78125 3014.714844 231.988281 3013.296875 231.230469 C 3011.875 230.472656 3010.441406 229.75 3008.984375 229.0625 C 3007.53125 228.375 3006.0625 227.722656 3004.574219 227.105469 C 3003.089844 226.488281 3001.589844 225.910156 3000.074219 225.367188 C 2998.558594 224.828125 2997.03125 224.324219 2995.492188 223.855469 C 2993.953125 223.386719 2992.402344 222.960938 2990.839844 222.566406 C 2989.28125 222.175781 2987.710938 221.824219 2986.132812 221.511719 C 2984.554688 221.199219 2982.972656 220.921875 2981.378906 220.6875 C 2979.789062 220.449219 2978.191406 220.253906 2976.589844 220.09375 C 2974.992188 219.9375 2973.386719 219.820312 2971.78125 219.742188 C 2970.171875 219.660156 2968.566406 219.621094 2966.957031 219.621094 C 2965.347656 219.621094 2963.738281 219.660156 2962.132812 219.742188 C 2960.527344 219.820312 2958.921875 219.9375 2957.320312 220.09375 C 2955.71875 220.253906 2954.125 220.449219 2952.53125 220.6875 C 2950.941406 220.921875 2949.355469 221.199219 2947.777344 221.511719 C 2946.199219 221.824219 2944.632812 222.175781 2943.070312 222.570312 C 2941.511719 222.960938 2939.960938 223.386719 2938.421875 223.855469 C 2936.882812 224.324219 2935.355469 224.828125 2933.839844 225.367188 C 2932.324219 225.910156 2930.824219 226.488281 2929.335938 227.105469 C 2927.851562 227.722656 2926.378906 228.375 2924.925781 229.0625 C 2923.472656 229.75 2922.035156 230.472656 2920.617188 231.230469 C 2919.199219 231.988281 2917.796875 232.78125 2916.417969 233.609375 C 2915.039062 234.4375 2913.679688 235.296875 2912.34375 236.191406 C 2911.003906 237.085938 2909.691406 238.011719 2908.398438 238.96875 C 2907.105469 239.925781 2905.835938 240.917969 2904.59375 241.9375 C 2903.351562 242.957031 2902.132812 244.007812 2900.941406 245.089844 C 2899.75 246.167969 2898.582031 247.277344 2897.445312 248.417969 C 2896.308594 249.554688 2895.199219 250.71875 2894.117188 251.910156 C 2893.039062 253.101562 2891.988281 254.320312 2890.96875 255.566406 C 2889.945312 256.808594 2888.957031 258.078125 2888 259.367188 C 2887.039062 260.660156 2886.113281 261.976562 2885.21875 263.3125 C 2884.328125 264.652344 2883.464844 266.011719 2882.640625 267.390625 C 2881.8125 268.769531 2881.019531 270.171875 2880.261719 271.589844 C 2879.503906 273.007812 2878.78125 274.445312 2878.089844 275.898438 C 2877.402344 277.355469 2876.753906 278.824219 2876.136719 280.3125 C 2875.519531 281.796875 2874.941406 283.296875 2874.398438 284.8125 C 2873.859375 286.328125 2873.355469 287.855469 2872.886719 289.394531 C 2872.417969 290.933594 2871.992188 292.484375 2871.601562 294.042969 C 2871.207031 295.605469 2870.855469 297.175781 2870.542969 298.753906 C 2870.230469 300.332031 2869.953125 301.914062 2869.71875 303.507812 C 2869.480469 305.097656 2869.285156 306.695312 2869.128906 308.296875 C 2868.96875 309.898438 2868.851562 311.5 2868.773438 313.109375 C 2868.691406 314.714844 2868.652344 316.324219 2868.652344 317.933594 C 2868.652344 319.539062 2868.691406 321.148438 2868.773438 322.757812 C 2868.851562 324.363281 2868.96875 325.96875 2869.128906 327.566406 C 2869.285156 329.167969 2869.480469 330.765625 2869.71875 332.355469 C 2869.953125 333.949219 2870.230469 335.535156 2870.542969 337.113281 C 2870.855469 338.691406 2871.207031 340.257812 2871.601562 341.820312 C 2871.992188 343.378906 2872.417969 344.929688 2872.886719 346.46875 C 2873.355469 348.007812 2873.859375 349.535156 2874.398438 351.050781 C 2874.941406 352.566406 2875.519531 354.066406 2876.136719 355.554688 C 2876.753906 357.039062 2877.402344 358.511719 2878.089844 359.964844 C 2878.78125 361.417969 2879.503906 362.855469 2880.261719 364.273438 C 2881.019531 365.695312 2881.8125 367.09375 2882.640625 368.472656 C 2883.464844 369.855469 2884.328125 371.210938 2885.21875 372.550781 C 2886.113281 373.886719 2887.039062 375.203125 2888 376.496094 C 2888.957031 377.789062 2889.945312 379.054688 2890.96875 380.300781 C 2891.988281 381.542969 2893.039062 382.761719 2894.117188 383.953125 C 2895.199219 385.144531 2896.308594 386.308594 2897.445312 387.449219 C 2898.582031 388.585938 2899.75 389.695312 2900.941406 390.773438 C 2902.132812 391.855469 2903.351562 392.90625 2904.59375 393.925781 C 2905.835938 394.949219 2907.105469 395.9375 2908.398438 396.894531 C 2909.691406 397.855469 2911.003906 398.78125 2912.34375 399.675781 C 2913.679688 400.566406 2915.039062 401.429688 2916.417969 402.253906 C 2917.796875 403.082031 2919.199219 403.875 2920.617188 404.632812 C 2922.035156 405.390625 2923.472656 406.117188 2924.925781 406.804688 C 2926.378906 407.492188 2927.851562 408.144531 2929.335938 408.757812 C 2930.824219 409.375 2932.324219 409.953125 2933.839844 410.496094 C 2935.355469 411.039062 2936.882812 411.542969 2938.421875 412.007812 C 2939.960938 412.476562 2941.511719 412.90625 2943.070312 413.296875 C 2944.632812 413.6875 2946.199219 414.039062 2947.777344 414.351562 C 2949.355469 414.667969 2950.941406 414.941406 2952.53125 415.179688 C 2954.125 415.414062 2955.71875 415.609375 2957.320312 415.769531 C 2958.921875 415.925781 2960.527344 416.042969 2962.132812 416.125 C 2963.738281 416.203125 2965.347656 416.242188 2966.957031 416.242188 C 2968.566406 416.242188 2970.171875 416.203125 2971.78125 416.125 C 2973.386719 416.042969 2974.992188 415.925781 2976.589844 415.769531 C 2978.191406 415.609375 2979.789062 415.414062 2981.378906 415.179688 C 2982.972656 414.941406 2984.554688 414.667969 2986.132812 414.351562 C 2987.710938 414.039062 2989.28125 413.6875 2990.839844 413.296875 C 2992.402344 412.90625 2993.953125 412.476562 2995.492188 412.007812 C 2997.03125 411.542969 2998.558594 411.039062 3000.074219 410.496094 C 3001.589844 409.953125 3003.089844 409.375 3004.574219 408.757812 C 3006.0625 408.144531 3007.53125 407.492188 3008.984375 406.804688 C 3010.441406 406.117188 3011.875 405.390625 3013.296875 404.632812 C 3014.714844 403.875 3016.113281 403.082031 3017.492188 402.253906 C 3018.875 401.429688 3020.230469 400.566406 3021.570312 399.675781 C 3022.90625 398.78125 3024.222656 397.855469 3025.515625 396.894531 C 3026.808594 395.9375 3028.074219 394.949219 3029.320312 393.925781 C 3030.5625 392.90625 3031.78125 391.855469 3032.972656 390.773438 C 3034.164062 389.695312 3035.328125 388.585938 3036.464844 387.449219 C 3037.605469 386.308594 3038.714844 385.144531 3039.792969 383.953125 C 3040.875 382.761719 3041.925781 381.542969 3042.945312 380.300781 C 3043.964844 379.054688 3044.953125 377.789062 3045.914062 376.496094 C 3046.871094 375.203125 3047.796875 373.886719 3048.691406 372.550781 C 3049.585938 371.210938 3050.445312 369.855469 3051.273438 368.472656 C 3052.101562 367.09375 3052.894531 365.695312 3053.652344 364.273438 C 3054.410156 362.855469 3055.132812 361.417969 3055.820312 359.964844 C 3056.507812 358.511719 3057.160156 357.039062 3057.777344 355.554688 C 3058.390625 354.066406 3058.96875 352.566406 3059.511719 351.050781 C 3060.054688 349.535156 3060.558594 348.007812 3061.027344 346.46875 C 3061.492188 344.929688 3061.921875 343.378906 3062.3125 341.820312 C 3062.703125 340.257812 3063.054688 338.691406 3063.371094 337.113281 C 3063.683594 335.535156 3063.957031 333.949219 3064.195312 332.355469 C 3064.429688 330.765625 3064.628906 329.167969 3064.785156 327.566406 C 3064.941406 325.96875 3065.0625 324.363281 3065.140625 322.757812 C 3065.21875 321.148438 3065.257812 319.539062 3065.257812 317.933594 Z M 3065.257812 317.933594 " clip-rule="nonzero"/></clipPath><linearGradient x1="126.599976" gradientTransform="matrix(8.623024, 0, 0, -8.623678, 1776.979137, 1831.387517)" y1="95.099998" x2="149.399978" gradientUnits="userSpaceOnUse" y2="95.099998" xlink:type="simple" xlink:actuate="onLoad" id="id7" xlink:show="other"><stop stop-opacity="1" stop-color="rgb(75.776672%, 42.123413%, 40.72113%)" offset="0"/><stop stop-opacity="1" stop-color="rgb(75.900269%, 42.140198%, 40.52887%)" offset="0.0625"/><stop stop-opacity="1" stop-color="rgb(76.148987%, 42.172241%, 40.144348%)" offset="0.125"/><stop stop-opacity="1" stop-color="rgb(76.397705%, 42.205811%, 39.759827%)" offset="0.1875"/><stop stop-opacity="1" stop-color="rgb(76.646423%, 42.23938%, 39.375305%)" offset="0.25"/><stop stop-opacity="1" stop-color="rgb(76.895142%, 42.271423%, 38.990784%)" offset="0.3125"/><stop stop-opacity="1" stop-color="rgb(77.142334%, 42.304993%, 38.606262%)" offset="0.375"/><stop stop-opacity="1" stop-color="rgb(77.391052%, 42.337036%, 38.221741%)" offset="0.4375"/><stop stop-opacity="1" stop-color="rgb(77.639771%, 42.370605%, 37.835693%)" offset="0.5"/><stop stop-opacity="1" stop-color="rgb(77.888489%, 42.402649%, 37.451172%)" offset="0.5625"/><stop stop-opacity="1" stop-color="rgb(78.137207%, 42.436218%, 37.06665%)" offset="0.625"/><stop stop-opacity="1" stop-color="rgb(78.385925%, 42.469788%, 36.682129%)" offset="0.6875"/><stop stop-opacity="1" stop-color="rgb(78.634644%, 42.501831%, 36.297607%)" offset="0.75"/><stop stop-opacity="1" stop-color="rgb(78.883362%, 42.5354%, 35.913086%)" offset="0.8125"/><stop stop-opacity="1" stop-color="rgb(79.130554%, 42.567444%, 35.528564%)" offset="0.875"/><stop stop-opacity="1" stop-color="rgb(79.379272%, 42.601013%, 35.144043%)" offset="0.9375"/><stop stop-opacity="1" stop-color="rgb(79.627991%, 42.633057%, 34.759521%)" offset="1"/></linearGradient><clipPath id="id8"><path d="M 2819 1636 L 3015 1636 L 3015 1831.386719 L 2819 1831.386719 Z M 2819 1636 " clip-rule="nonzero"/></clipPath><clipPath id="id9"><path d="M 3014.382812 1733.941406 C 3014.382812 1732.34375 3014.34375 1730.75 3014.265625 1729.160156 C 3014.1875 1727.566406 3014.070312 1725.976562 3013.914062 1724.386719 C 3013.757812 1722.800781 3013.5625 1721.21875 3013.328125 1719.640625 C 3013.09375 1718.0625 3012.820312 1716.492188 3012.511719 1714.929688 C 3012.199219 1713.363281 3011.851562 1711.808594 3011.460938 1710.261719 C 3011.074219 1708.714844 3010.648438 1707.179688 3010.1875 1705.652344 C 3009.722656 1704.125 3009.222656 1702.613281 3008.6875 1701.109375 C 3008.148438 1699.609375 3007.574219 1698.121094 3006.964844 1696.648438 C 3006.355469 1695.175781 3005.710938 1693.71875 3005.027344 1692.277344 C 3004.34375 1690.835938 3003.628906 1689.410156 3002.878906 1688.003906 C 3002.125 1686.597656 3001.339844 1685.210938 3000.519531 1683.84375 C 2999.699219 1682.472656 2998.847656 1681.128906 2997.960938 1679.800781 C 2997.074219 1678.476562 2996.15625 1677.171875 2995.207031 1675.890625 C 2994.257812 1674.609375 2993.277344 1673.351562 2992.265625 1672.121094 C 2991.253906 1670.886719 2990.210938 1669.679688 2989.140625 1668.5 C 2988.070312 1667.316406 2986.972656 1666.160156 2985.84375 1665.035156 C 2984.714844 1663.90625 2983.5625 1662.808594 2982.378906 1661.734375 C 2981.199219 1660.664062 2979.992188 1659.625 2978.757812 1658.613281 C 2977.523438 1657.601562 2976.269531 1656.621094 2974.988281 1655.667969 C 2973.707031 1654.71875 2972.402344 1653.800781 2971.078125 1652.914062 C 2969.75 1652.027344 2968.40625 1651.175781 2967.035156 1650.355469 C 2965.667969 1649.535156 2964.28125 1648.75 2962.875 1648 C 2961.46875 1647.246094 2960.046875 1646.53125 2958.601562 1645.847656 C 2957.160156 1645.167969 2955.703125 1644.519531 2954.230469 1643.910156 C 2952.757812 1643.300781 2951.269531 1642.726562 2949.769531 1642.1875 C 2948.269531 1641.652344 2946.753906 1641.152344 2945.226562 1640.6875 C 2943.703125 1640.226562 2942.164062 1639.800781 2940.617188 1639.414062 C 2939.070312 1639.023438 2937.515625 1638.675781 2935.953125 1638.363281 C 2934.386719 1638.054688 2932.816406 1637.78125 2931.238281 1637.546875 C 2929.664062 1637.3125 2928.082031 1637.117188 2926.492188 1636.960938 C 2924.90625 1636.804688 2923.316406 1636.6875 2921.722656 1636.609375 C 2920.132812 1636.53125 2918.539062 1636.492188 2916.941406 1636.492188 C 2915.347656 1636.492188 2913.753906 1636.53125 2912.160156 1636.609375 C 2910.570312 1636.6875 2908.980469 1636.804688 2907.390625 1636.960938 C 2905.804688 1637.117188 2904.222656 1637.3125 2902.644531 1637.546875 C 2901.066406 1637.78125 2899.496094 1638.054688 2897.933594 1638.363281 C 2896.367188 1638.675781 2894.8125 1639.023438 2893.265625 1639.414062 C 2891.71875 1639.800781 2890.183594 1640.226562 2888.65625 1640.6875 C 2887.132812 1641.152344 2885.617188 1641.652344 2884.117188 1642.1875 C 2882.613281 1642.726562 2881.128906 1643.300781 2879.652344 1643.910156 C 2878.179688 1644.519531 2876.722656 1645.167969 2875.28125 1645.847656 C 2873.839844 1646.53125 2872.414062 1647.246094 2871.007812 1648 C 2869.601562 1648.75 2868.214844 1649.535156 2866.847656 1650.355469 C 2865.480469 1651.175781 2864.132812 1652.027344 2862.808594 1652.914062 C 2861.480469 1653.800781 2860.179688 1654.71875 2858.898438 1655.667969 C 2857.617188 1656.621094 2856.359375 1657.601562 2855.128906 1658.613281 C 2853.894531 1659.625 2852.6875 1660.664062 2851.503906 1661.734375 C 2850.324219 1662.808594 2849.167969 1663.90625 2848.042969 1665.035156 C 2846.914062 1666.160156 2845.816406 1667.316406 2844.746094 1668.5 C 2843.671875 1669.679688 2842.632812 1670.886719 2841.621094 1672.121094 C 2840.609375 1673.351562 2839.628906 1674.609375 2838.679688 1675.890625 C 2837.726562 1677.171875 2836.808594 1678.476562 2835.925781 1679.800781 C 2835.039062 1681.128906 2834.183594 1682.472656 2833.367188 1683.84375 C 2832.546875 1685.210938 2831.757812 1686.597656 2831.007812 1688.003906 C 2830.257812 1689.410156 2829.539062 1690.835938 2828.859375 1692.277344 C 2828.175781 1693.71875 2827.53125 1695.175781 2826.917969 1696.648438 C 2826.308594 1698.121094 2825.734375 1699.609375 2825.199219 1701.109375 C 2824.660156 1702.613281 2824.160156 1704.125 2823.699219 1705.652344 C 2823.234375 1707.179688 2822.808594 1708.714844 2822.421875 1710.261719 C 2822.035156 1711.808594 2821.6875 1713.363281 2821.375 1714.929688 C 2821.0625 1716.492188 2820.792969 1718.0625 2820.558594 1719.640625 C 2820.324219 1721.21875 2820.128906 1722.800781 2819.972656 1724.386719 C 2819.816406 1725.976562 2819.699219 1727.566406 2819.621094 1729.160156 C 2819.542969 1730.75 2819.503906 1732.34375 2819.503906 1733.941406 C 2819.503906 1735.535156 2819.542969 1737.128906 2819.621094 1738.722656 C 2819.699219 1740.3125 2819.816406 1741.90625 2819.972656 1743.492188 C 2820.128906 1745.078125 2820.324219 1746.660156 2820.558594 1748.238281 C 2820.792969 1749.816406 2821.0625 1751.386719 2821.375 1752.949219 C 2821.6875 1754.515625 2822.035156 1756.070312 2822.421875 1757.617188 C 2822.808594 1759.164062 2823.234375 1760.703125 2823.699219 1762.226562 C 2824.160156 1763.753906 2824.660156 1765.265625 2825.199219 1766.769531 C 2825.734375 1768.269531 2826.308594 1769.757812 2826.917969 1771.230469 C 2827.53125 1772.703125 2828.175781 1774.164062 2828.859375 1775.605469 C 2829.539062 1777.046875 2830.257812 1778.46875 2831.007812 1779.875 C 2831.757812 1781.28125 2832.546875 1782.671875 2833.367188 1784.039062 C 2834.183594 1785.40625 2835.039062 1786.753906 2835.925781 1788.078125 C 2836.808594 1789.40625 2837.726562 1790.707031 2838.679688 1791.988281 C 2839.628906 1793.269531 2840.609375 1794.527344 2841.621094 1795.761719 C 2842.632812 1796.992188 2843.671875 1798.199219 2844.746094 1799.382812 C 2845.816406 1800.5625 2846.914062 1801.71875 2848.042969 1802.847656 C 2849.167969 1803.972656 2850.324219 1805.074219 2851.503906 1806.144531 C 2852.6875 1807.214844 2853.894531 1808.257812 2855.128906 1809.269531 C 2856.359375 1810.28125 2857.617188 1811.261719 2858.898438 1812.210938 C 2860.179688 1813.160156 2861.480469 1814.078125 2862.808594 1814.964844 C 2864.132812 1815.851562 2865.480469 1816.703125 2866.847656 1817.523438 C 2868.214844 1818.34375 2869.601562 1819.128906 2871.007812 1819.882812 C 2872.417969 1820.632812 2873.839844 1821.351562 2875.28125 1822.03125 C 2876.722656 1822.714844 2878.179688 1823.359375 2879.652344 1823.96875 C 2881.128906 1824.578125 2882.613281 1825.152344 2884.117188 1825.691406 C 2885.617188 1826.226562 2887.132812 1826.726562 2888.65625 1827.191406 C 2890.183594 1827.65625 2891.71875 1828.078125 2893.265625 1828.46875 C 2894.8125 1828.855469 2896.367188 1829.203125 2897.933594 1829.515625 C 2899.496094 1829.828125 2901.066406 1830.097656 2902.644531 1830.332031 C 2904.222656 1830.566406 2905.804688 1830.761719 2907.390625 1830.917969 C 2908.980469 1831.074219 2910.570312 1831.191406 2912.160156 1831.269531 C 2913.753906 1831.347656 2915.347656 1831.386719 2916.941406 1831.386719 C 2918.539062 1831.386719 2920.132812 1831.347656 2921.722656 1831.269531 C 2923.316406 1831.191406 2924.90625 1831.074219 2926.492188 1830.917969 C 2928.082031 1830.761719 2929.664062 1830.566406 2931.238281 1830.332031 C 2932.816406 1830.097656 2934.386719 1829.828125 2935.953125 1829.515625 C 2937.515625 1829.203125 2939.070312 1828.855469 2940.617188 1828.46875 C 2942.164062 1828.078125 2943.703125 1827.65625 2945.226562 1827.191406 C 2946.753906 1826.726562 2948.269531 1826.226562 2949.769531 1825.691406 C 2951.269531 1825.152344 2952.757812 1824.578125 2954.230469 1823.96875 C 2955.703125 1823.359375 2957.160156 1822.714844 2958.601562 1822.03125 C 2960.046875 1821.351562 2961.46875 1820.632812 2962.875 1819.882812 C 2964.28125 1819.128906 2965.667969 1818.34375 2967.035156 1817.523438 C 2968.40625 1816.703125 2969.75 1815.851562 2971.078125 1814.964844 C 2972.402344 1814.078125 2973.707031 1813.160156 2974.988281 1812.210938 C 2976.269531 1811.261719 2977.523438 1810.28125 2978.757812 1809.269531 C 2979.992188 1808.257812 2981.199219 1807.214844 2982.378906 1806.144531 C 2983.5625 1805.074219 2984.714844 1803.972656 2985.84375 1802.847656 C 2986.972656 1801.71875 2988.070312 1800.5625 2989.140625 1799.382812 C 2990.210938 1798.199219 2991.253906 1796.992188 2992.265625 1795.761719 C 2993.277344 1794.527344 2994.257812 1793.269531 2995.207031 1791.988281 C 2996.15625 1790.707031 2997.074219 1789.40625 2997.960938 1788.078125 C 2998.847656 1786.753906 2999.699219 1785.40625 3000.519531 1784.039062 C 3001.339844 1782.671875 3002.125 1781.28125 3002.878906 1779.875 C 3003.628906 1778.46875 3004.34375 1777.046875 3005.027344 1775.605469 C 3005.710938 1774.164062 3006.355469 1772.703125 3006.964844 1771.230469 C 3007.574219 1769.757812 3008.148438 1768.269531 3008.6875 1766.769531 C 3009.222656 1765.265625 3009.722656 1763.753906 3010.1875 1762.226562 C 3010.648438 1760.703125 3011.074219 1759.164062 3011.460938 1757.617188 C 3011.851562 1756.070312 3012.199219 1754.515625 3012.511719 1752.949219 C 3012.820312 1751.386719 3013.09375 1749.816406 3013.328125 1748.238281 C 3013.5625 1746.660156 3013.757812 1745.078125 3013.914062 1743.492188 C 3014.070312 1741.90625 3014.1875 1740.3125 3014.265625 1738.722656 C 3014.34375 1737.128906 3014.382812 1735.535156 3014.382812 1733.941406 Z M 3014.382812 1733.941406 " clip-rule="nonzero"/></clipPath><linearGradient x1="120.899971" gradientTransform="matrix(8.623024, 0, 0, -8.623678, 1776.979137, 1831.387517)" y1="95.099998" x2="143.499984" gradientUnits="userSpaceOnUse" y2="95.099998" xlink:type="simple" xlink:actuate="onLoad" id="id10" xlink:show="other"><stop stop-opacity="1" stop-color="rgb(74.783325%, 41.992188%, 42.260742%)" offset="0"/><stop stop-opacity="1" stop-color="rgb(74.905396%, 42.007446%, 42.070007%)" offset="0.0625"/><stop stop-opacity="1" stop-color="rgb(75.152588%, 42.041016%, 41.688538%)" offset="0.125"/><stop stop-opacity="1" stop-color="rgb(75.398254%, 42.073059%, 41.307068%)" offset="0.1875"/><stop stop-opacity="1" stop-color="rgb(75.643921%, 42.106628%, 40.925598%)" offset="0.25"/><stop stop-opacity="1" stop-color="rgb(75.891113%, 42.138672%, 40.544128%)" offset="0.3125"/><stop stop-opacity="1" stop-color="rgb(76.13678%, 42.170715%, 40.162659%)" offset="0.375"/><stop stop-opacity="1" stop-color="rgb(76.383972%, 42.204285%, 39.781189%)" offset="0.4375"/><stop stop-opacity="1" stop-color="rgb(76.629639%, 42.236328%, 39.401245%)" offset="0.5"/><stop stop-opacity="1" stop-color="rgb(76.876831%, 42.268372%, 39.019775%)" offset="0.5625"/><stop stop-opacity="1" stop-color="rgb(77.122498%, 42.301941%, 38.638306%)" offset="0.625"/><stop stop-opacity="1" stop-color="rgb(77.368164%, 42.333984%, 38.256836%)" offset="0.6875"/><stop stop-opacity="1" stop-color="rgb(77.615356%, 42.367554%, 37.875366%)" offset="0.75"/><stop stop-opacity="1" stop-color="rgb(77.861023%, 42.399597%, 37.493896%)" offset="0.8125"/><stop stop-opacity="1" stop-color="rgb(78.108215%, 42.431641%, 37.112427%)" offset="0.875"/><stop stop-opacity="1" stop-color="rgb(78.353882%, 42.46521%, 36.730957%)" offset="0.9375"/><stop stop-opacity="1" stop-color="rgb(78.601074%, 42.497253%, 36.349487%)" offset="1"/></linearGradient><clipPath id="id11"><path d="M 1818 1175 L 1945 1175 L 1945 1302 L 1818 1302 Z M 1818 1175 " clip-rule="nonzero"/></clipPath><clipPath id="id12"><path d="M 1944.265625 1238.941406 C 1944.265625 1236.878906 1944.164062 1234.824219 1943.960938 1232.769531 C 1943.761719 1230.71875 1943.457031 1228.679688 1943.054688 1226.660156 C 1942.652344 1224.636719 1942.152344 1222.640625 1941.554688 1220.667969 C 1940.957031 1218.695312 1940.261719 1216.753906 1939.472656 1214.851562 C 1938.683594 1212.945312 1937.804688 1211.082031 1936.832031 1209.265625 C 1935.859375 1207.445312 1934.800781 1205.679688 1933.65625 1203.964844 C 1932.511719 1202.25 1931.285156 1200.597656 1929.976562 1199.003906 C 1928.667969 1197.410156 1927.285156 1195.882812 1925.828125 1194.425781 C 1924.371094 1192.96875 1922.84375 1191.585938 1921.25 1190.277344 C 1919.65625 1188.96875 1918.003906 1187.742188 1916.289062 1186.597656 C 1914.574219 1185.453125 1912.808594 1184.394531 1910.992188 1183.421875 C 1909.171875 1182.449219 1907.3125 1181.570312 1905.40625 1180.78125 C 1903.503906 1179.992188 1901.5625 1179.296875 1899.589844 1178.699219 C 1897.617188 1178.101562 1895.621094 1177.601562 1893.597656 1177.199219 C 1891.578125 1176.796875 1889.539062 1176.492188 1887.488281 1176.292969 C 1885.4375 1176.089844 1883.378906 1175.988281 1881.316406 1175.988281 C 1879.257812 1175.988281 1877.199219 1176.089844 1875.148438 1176.292969 C 1873.097656 1176.492188 1871.058594 1176.796875 1869.035156 1177.199219 C 1867.015625 1177.601562 1865.019531 1178.101562 1863.042969 1178.699219 C 1861.070312 1179.296875 1859.132812 1179.992188 1857.226562 1180.78125 C 1855.324219 1181.570312 1853.460938 1182.449219 1851.644531 1183.421875 C 1849.824219 1184.394531 1848.058594 1185.453125 1846.34375 1186.597656 C 1844.632812 1187.742188 1842.976562 1188.96875 1841.382812 1190.277344 C 1839.789062 1191.585938 1838.265625 1192.96875 1836.804688 1194.425781 C 1835.347656 1195.882812 1833.964844 1197.410156 1832.65625 1199.003906 C 1831.351562 1200.597656 1830.125 1202.25 1828.976562 1203.964844 C 1827.832031 1205.679688 1826.773438 1207.445312 1825.800781 1209.265625 C 1824.832031 1211.082031 1823.949219 1212.945312 1823.160156 1214.851562 C 1822.371094 1216.753906 1821.679688 1218.695312 1821.078125 1220.667969 C 1820.480469 1222.640625 1819.980469 1224.636719 1819.578125 1226.660156 C 1819.175781 1228.679688 1818.875 1230.71875 1818.671875 1232.769531 C 1818.46875 1234.824219 1818.371094 1236.878906 1818.371094 1238.941406 C 1818.371094 1241.003906 1818.46875 1243.058594 1818.671875 1245.109375 C 1818.875 1247.164062 1819.175781 1249.199219 1819.578125 1251.222656 C 1819.980469 1253.246094 1820.480469 1255.242188 1821.078125 1257.214844 C 1821.679688 1259.1875 1822.371094 1261.128906 1823.160156 1263.03125 C 1823.949219 1264.9375 1824.832031 1266.796875 1825.800781 1268.617188 C 1826.773438 1270.433594 1827.832031 1272.203125 1828.976562 1273.914062 C 1830.125 1275.628906 1831.351562 1277.285156 1832.65625 1278.878906 C 1833.964844 1280.472656 1835.347656 1281.996094 1836.804688 1283.457031 C 1838.265625 1284.914062 1839.789062 1286.296875 1841.382812 1287.605469 C 1842.976562 1288.910156 1844.632812 1290.140625 1846.34375 1291.285156 C 1848.058594 1292.429688 1849.824219 1293.488281 1851.644531 1294.460938 C 1853.460938 1295.433594 1855.324219 1296.3125 1857.226562 1297.101562 C 1859.132812 1297.890625 1861.070312 1298.585938 1863.042969 1299.183594 C 1865.019531 1299.78125 1867.015625 1300.28125 1869.035156 1300.683594 C 1871.058594 1301.085938 1873.097656 1301.386719 1875.148438 1301.589844 C 1877.199219 1301.792969 1879.257812 1301.894531 1881.316406 1301.894531 C 1883.378906 1301.894531 1885.4375 1301.792969 1887.488281 1301.589844 C 1889.539062 1301.386719 1891.578125 1301.085938 1893.597656 1300.683594 C 1895.621094 1300.28125 1897.617188 1299.78125 1899.589844 1299.183594 C 1901.5625 1298.585938 1903.503906 1297.890625 1905.40625 1297.101562 C 1907.3125 1296.3125 1909.171875 1295.433594 1910.992188 1294.460938 C 1912.808594 1293.488281 1914.574219 1292.429688 1916.289062 1291.285156 C 1918.003906 1290.140625 1919.65625 1288.910156 1921.25 1287.605469 C 1922.84375 1286.296875 1924.371094 1284.914062 1925.828125 1283.457031 C 1927.285156 1281.996094 1928.667969 1280.472656 1929.976562 1278.878906 C 1931.285156 1277.285156 1932.511719 1275.628906 1933.65625 1273.914062 C 1934.800781 1272.203125 1935.859375 1270.433594 1936.832031 1268.617188 C 1937.804688 1266.796875 1938.683594 1264.9375 1939.472656 1263.03125 C 1940.261719 1261.128906 1940.957031 1259.1875 1941.554688 1257.214844 C 1942.152344 1255.242188 1942.652344 1253.246094 1943.054688 1251.222656 C 1943.457031 1249.199219 1943.761719 1247.164062 1943.960938 1245.109375 C 1944.164062 1243.058594 1944.265625 1241.003906 1944.265625 1238.941406 Z M 1944.265625 1238.941406 " clip-rule="nonzero"/></clipPath><linearGradient x1="4.799989" gradientTransform="matrix(8.623024, 0, 0, -8.623678, 1776.979137, 1831.387517)" y1="95.099998" x2="19.399991" gradientUnits="userSpaceOnUse" y2="95.099998" xlink:type="simple" xlink:actuate="onLoad" id="id13" xlink:show="other"><stop stop-opacity="1" stop-color="rgb(54.536438%, 39.309692%, 73.603821%)" offset="0"/><stop stop-opacity="1" stop-color="rgb(54.615784%, 39.320374%, 73.480225%)" offset="0.0625"/><stop stop-opacity="1" stop-color="rgb(54.774475%, 39.341736%, 73.233032%)" offset="0.125"/><stop stop-opacity="1" stop-color="rgb(54.933167%, 39.363098%, 72.987366%)" offset="0.1875"/><stop stop-opacity="1" stop-color="rgb(55.093384%, 39.38446%, 72.740173%)" offset="0.25"/><stop stop-opacity="1" stop-color="rgb(55.252075%, 39.404297%, 72.494507%)" offset="0.3125"/><stop stop-opacity="1" stop-color="rgb(55.410767%, 39.425659%, 72.24884%)" offset="0.375"/><stop stop-opacity="1" stop-color="rgb(55.570984%, 39.447021%, 72.001648%)" offset="0.4375"/><stop stop-opacity="1" stop-color="rgb(55.729675%, 39.468384%, 71.755981%)" offset="0.5"/><stop stop-opacity="1" stop-color="rgb(55.888367%, 39.489746%, 71.508789%)" offset="0.5625"/><stop stop-opacity="1" stop-color="rgb(56.048584%, 39.509583%, 71.263123%)" offset="0.625"/><stop stop-opacity="1" stop-color="rgb(56.207275%, 39.530945%, 71.01593%)" offset="0.6875"/><stop stop-opacity="1" stop-color="rgb(56.365967%, 39.552307%, 70.770264%)" offset="0.75"/><stop stop-opacity="1" stop-color="rgb(56.524658%, 39.573669%, 70.523071%)" offset="0.8125"/><stop stop-opacity="1" stop-color="rgb(56.684875%, 39.595032%, 70.277405%)" offset="0.875"/><stop stop-opacity="1" stop-color="rgb(56.843567%, 39.616394%, 70.031738%)" offset="0.9375"/><stop stop-opacity="1" stop-color="rgb(57.002258%, 39.63623%, 69.784546%)" offset="1"/></linearGradient></defs><g clip-path="url(#id2)"><g clip-path="url(#id3)"><path fill="url(#id4)" d="M 1776.980469 1770.160156 L 1776.980469 251.53125 L 3682.59375 251.53125 L 3682.59375 1770.160156 Z M 1776.980469 1770.160156 " fill-rule="nonzero"/></g></g><g clip-path="url(#id5)"><g clip-path="url(#id6)"><path fill="url(#id7)" d="M 2868.652344 416.242188 L 2868.652344 219.621094 L 3065.257812 219.621094 L 3065.257812 416.242188 Z M 2868.652344 416.242188 " fill-rule="nonzero"/></g></g><g clip-path="url(#id8)"><g clip-path="url(#id9)"><path fill="url(#id10)" d="M 2819.503906 1831.386719 L 2819.503906 1636.492188 L 3014.382812 1636.492188 L 3014.382812 1831.386719 Z M 2819.503906 1831.386719 " fill-rule="nonzero"/></g></g><g clip-path="url(#id11)"><g clip-path="url(#id12)"><path fill="url(#id13)" d="M 1818.371094 1301.894531 L 1818.371094 1175.988281 L 1944.265625 1175.988281 L 1944.265625 1301.894531 Z M 1818.371094 1301.894531 " fill-rule="nonzero"/></g></g><g fill="rgb(100%, 100%, 100%)" fill-opacity="1"><g transform="translate(2049.772971, 1529.819514)"><g><path d="M 1018.984375 -523.515625 C 1017.742188 -493.597656 1005.90625 -469.289062 983.46875 -450.59375 C 961.03125 -431.894531 934.851562 -422.546875 904.9375 -422.546875 L 287.9375 -422.546875 C 302.894531 -349.003906 337.171875 -291.351562 390.765625 -249.59375 C 444.367188 -207.84375 504.820312 -186.96875 572.125 -186.96875 C 623.226562 -186.96875 663.113281 -191.640625 691.78125 -200.984375 C 720.457031 -210.335938 743.207031 -220.3125 760.03125 -230.90625 C 776.863281 -241.5 788.394531 -248.664062 794.625 -252.40625 C 817.0625 -263.625 838.25 -269.234375 858.1875 -269.234375 C 884.363281 -269.234375 906.800781 -259.882812 925.5 -241.1875 C 944.195312 -222.488281 953.546875 -200.675781 953.546875 -175.75 C 953.546875 -142.09375 936.097656 -111.554688 901.203125 -84.140625 C 866.296875 -55.472656 819.550781 -31.164062 760.96875 -11.21875 C 702.382812 8.726562 643.175781 18.703125 583.34375 18.703125 C 478.644531 18.703125 387.34375 -3.109375 309.4375 -46.734375 C 231.53125 -90.367188 171.382812 -150.515625 129 -227.171875 C 86.625 -303.828125 65.4375 -390.144531 65.4375 -486.125 C 65.4375 -593.320312 87.875 -687.429688 132.75 -768.453125 C 177.625 -849.472656 236.832031 -911.484375 310.375 -954.484375 C 383.914062 -997.484375 462.441406 -1018.984375 545.953125 -1018.984375 C 628.222656 -1018.984375 705.816406 -996.546875 778.734375 -951.671875 C 851.648438 -906.804688 909.921875 -846.351562 953.546875 -770.3125 C 997.171875 -694.28125 1018.984375 -612.015625 1018.984375 -523.515625 Z M 545.953125 -813.328125 C 401.359375 -813.328125 315.972656 -745.390625 289.796875 -609.515625 L 779.671875 -609.515625 L 779.671875 -622.609375 C 774.679688 -674.960938 749.125 -719.835938 703 -757.234375 C 656.882812 -794.628906 604.535156 -813.328125 545.953125 -813.328125 Z M 545.953125 -813.328125 "/></g></g></g></svg>