<svg id="Icons" version="1.1" viewBox="0 0 32 32" xml:space="preserve" xmlns="http://www.w3.org/2000/svg" enable-background="new 0 0 32 32"><path d="M30 28H2c-.3 0-.7-.2-.9-.5-.2-.3-.2-.7 0-1l2-3c.2-.3.5-.5.9-.5h24c.4 0 .7.2.9.6l2 3c.2.3.1.7 0 1-.2.2-.6.4-.9.4zM27 5H5c-.6 0-1 .4-1 1v14c0 .6.4 1 1 1h22c.6 0 1-.4 1-1V6c0-.6-.4-1-1-1zM11.7 15.3c.4.4.4 1 0 1.4-.2.2-.4.3-.7.3s-.5-.1-.7-.3l-3-3c-.4-.4-.4-1 0-1.4l3-3c.4-.4 1-.4 1.4 0s.4 1 0 1.4L9.4 13l2.3 2.3zm7.2-5.9-4 8c-.2.4-.5.6-.9.6-.2 0-.3 0-.4-.1-.5-.2-.7-.8-.4-1.3l4-8c.2-.5.8-.7 1.3-.4.4.2.6.8.4 1.2zm5.8 4.3-3 3c-.2.2-.4.3-.7.3s-.5-.1-.7-.3c-.4-.4-.4-1 0-1.4l2.3-2.3-2.3-2.3c-.4-.4-.4-1 0-1.4s1-.4 1.4 0l3 3c.4.4.4 1 0 1.4z" fill="#ff0000" class="fill-000000"></path></svg>