<svg viewBox="0 0 24 24" xmlns="http://www.w3.org/2000/svg"><path d="M21.458 16.5a4 4 0 0 0-4-4h-.5V12a1 1 0 0 0-1-1h-12a1 1 0 0 0-1 1v9.5a2.5 2.5 0 0 0 2.5 2.5h9a2.5 2.5 0 0 0 2.5-2.5v-1h.5a4 4 0 0 0 4-4Zm-4 2h-.25a.249.249 0 0 1-.25-.25v-3.5a.25.25 0 0 1 .25-.25h.25a2 2 0 0 1 0 4ZM5.649 2.865a.25.25 0 0 0 .016-.43L3.3.905a.5.5 0 0 0-.75.511l.422 2.53a.25.25 0 0 0 .137.184.253.253 0 0 0 .229 0ZM3.646 5.094a.25.25 0 0 0-.1.335l2.22 4.3a.5.5 0 0 0 .444.27h3a.5.5 0 0 0 .439-.741l-3.026-5.5a.25.25 0 0 0-.339-.1ZM13.538 7.293h-.006a3.528 3.528 0 0 1-.636-.349.252.252 0 0 0-.361.084l-1.242 2.229a.5.5 0 0 0 .437.743h1.832a.5.5 0 0 0 .468-.323l.67-1.784a.25.25 0 0 0-.2-.337 3.526 3.526 0 0 1-.68-.156 3.936 3.936 0 0 1-.282-.107ZM17.017 2.815a3.68 3.68 0 0 0-2.811-2.8.5.5 0 0 0-.535.761c.529.806.21 1.282-.353 1.994a3.643 3.643 0 0 0-.542.819 2.038 2.038 0 0 0 1.151 2.784 2.046 2.046 0 0 0 2.245-.258 3.363 3.363 0 0 0 .845-3.3Z" fill="#ff0000" class="fill-000000"></path></svg>