<svg viewBox="0 0 512 512" xml:space="preserve" xmlns="http://www.w3.org/2000/svg" enable-background="new 0 0 512 512"><path d="M138.263 296.725c-4.58 0-4.58-6.979 0-6.979h54.899c4.594 0 4.594 6.979 0 6.979h-54.899zm87.524 0a3.485 3.485 0 0 1-3.488-3.49c0-1.9 1.558-3.488 3.488-3.46l54.895-.028a3.505 3.505 0 0 1 3.492 3.488 3.488 3.488 0 0 1-3.492 3.49h-54.895zm87.524 0a3.488 3.488 0 0 1-3.492-3.49c0-1.9 1.562-3.488 3.492-3.488h54.895c1.931 0 3.489 1.588 3.489 3.488a3.485 3.485 0 0 1-3.489 3.49h-54.895zm-87.524 26.867a3.485 3.485 0 0 1-3.488-3.49 3.485 3.485 0 0 1 3.488-3.488h54.895a3.488 3.488 0 1 1 0 6.978h-54.895zm87.524 0a3.488 3.488 0 1 1 0-6.978h54.895a3.485 3.485 0 0 1 3.489 3.488 3.485 3.485 0 0 1-3.489 3.49h-54.895zm-175.048 26.867a3.488 3.488 0 0 1-3.488-3.49 3.489 3.489 0 0 1 3.488-3.49h54.913a3.487 3.487 0 0 1 3.475 3.49c0 1.93-1.562 3.49-3.488 3.49h-54.9zm87.524 0a3.486 3.486 0 0 1-3.488-3.49 3.486 3.486 0 0 1 3.488-3.49h54.895a3.49 3.49 0 1 1 0 6.98h-54.895zm87.524 0a3.49 3.49 0 1 1 0-6.98h54.895a3.487 3.487 0 0 1 3.489 3.49c0 1.93-1.559 3.49-3.489 3.49h-54.895zm-177.076-27.094a3.497 3.497 0 0 1-3.488-3.49c0-1.9 1.576-3.49 3.488-3.49h58.77c1.93 0 3.488 1.59 3.488 3.49 0 1.93-1.558 3.49-3.488 3.49h-58.77zm-27.49-65.65v136.576h288.993V257.715H108.745zm21.278-60.456h72.797a3.494 3.494 0 0 1 3.489 3.488V225.8a3.493 3.493 0 0 1-3.489 3.488h-72.797a3.494 3.494 0 0 1-3.488-3.488v-25.053a3.493 3.493 0 0 1 3.488-3.488zm93.977 0h58.471a3.487 3.487 0 0 1 3.488 3.488V225.8a3.487 3.487 0 0 1-3.488 3.488H224a3.488 3.488 0 0 1-3.492-3.488v-25.053a3.487 3.487 0 0 1 3.492-3.488zm79.662 0h72.798a3.496 3.496 0 0 1 3.492 3.488V225.8a3.496 3.496 0 0 1-3.492 3.488h-72.798a3.487 3.487 0 0 1-3.488-3.488v-25.053a3.486 3.486 0 0 1 3.488-3.488zm-194.917-21.448v74.926h288.993v-74.926H108.745zm0-66.217v59.238h288.993v-4.397a12.813 12.813 0 0 1-2.906-1.816l-.027.028a8.141 8.141 0 0 1-6.342 3.035h-11.434a8.124 8.124 0 0 1-5.76-2.383 8.075 8.075 0 0 1-2.383-5.73v-36.966c0-2.101.824-4.001 2.127-5.448l.256-.311a8.126 8.126 0 0 1 5.76-2.385h11.434c2.242 0 4.271.908 5.73 2.385.197.198.369.396.541.595l.056.056.015.03h.014a14.145 14.145 0 0 1 2.92-1.788v-4.143H108.745zm288.993-24.909H108.745v17.931h288.993V84.685zM76.317 386.403V55.747a3.497 3.497 0 0 1 3.489-3.49h268.996V36.938H59.819v349.466h16.498zm325.79-266.821h-.014l-.07.027h-.084l-.07.028a6.62 6.62 0 0 0-3.236 1.815 6.989 6.989 0 0 0-1.234 1.645l-.141.313h-.015l-.028.059v.027l-.027.057h-.014l-.057.17-.014.027-.046.115-.028.056v.028l-.028.058v.028l-.028.027v.057h-.014l-.014.086-.028.057-.028.086-.014.056-.014.028v.027l-.015.059-.014.027v.057h-.015l-.014.059v.027l-.028.057v.055l-.018.058-.014.028v.056l-.028.086v.085l-.014.058-.014.028v.085l-.015.027-.015.059v.084l-.014.058v.028l-.014.056V125.794h-.014v.086l-.015.057v26.269l.015.086v.057l.014.028v.2l.014.056.014.085V152.804l.015.056.015.028V152.974l.014.027.014.057v.086l.028.057v.086l.014.027.018.028v.086l.028.056.014.057.015.028v.058h.014l.015.057v.027l.014.059.014.027v.029l.028.056.028.086.014.056.014.028v.03l.028.056v.028l.028.027v.029l.028.057.014.085h.015l.018.058.056.112.015.058.014.028.027.057.028.056.028.059.014.027.014.028.015.056.015.03.027.028.014.027.029.057.059.114.015.028.014.027.028.059h.014l.07.141.028.057h.015l.027.057.014.028.028.028.056.086.018.027.043.057.027.059h.015l.028.056.027.028.043.058h.014l.042.056.028.057.027.027.028.03.018.028c.155.198.323.368.495.539 1.25 1.247 2.966 2.042 4.864 2.042H455.321a6.877 6.877 0 0 0 4.864-2.015 6.968 6.968 0 0 0 2.015-4.793v-25.704a6.9 6.9 0 0 0-2.015-4.767 6.872 6.872 0 0 0-4.864-2.014h-51.835a7.04 7.04 0 0 0-1.379.141zm67.071 6.552V157.569c0 .313.126.596.34.822.197.199.495.341.808.341h11.448c.326 0 .624-.142.821-.341.2-.227.34-.51.34-.822v-36.966c0-.341-.14-.624-.34-.823a1.18 1.18 0 0 0-.821-.34h-11.448c-.313 0-.61.143-.808.34l-.087.084a1.12 1.12 0 0 0-.253.739v5.531zm-28.118 39.548h-23.317V435.74h23.317V165.682zM105.271 77.706h267.007V59.237H83.297v349.437h18.481V81.196a3.507 3.507 0 0 1 3.493-3.49zm271.561 79.862c0 .313.141.596.34.822.211.199.51.341.822.341h11.447a1.2 1.2 0 0 0 .822-.341c.199-.227.34-.51.34-.822v-36.966c0-.341-.127-.624-.34-.823a1.209 1.209 0 0 0-.822-.34h-11.447c-.313 0-.611.143-.822.34l-.073.084a1.216 1.216 0 0 0-.267.739v36.966zM41.577 456.365a3.497 3.497 0 0 1-3.489-3.49 3.496 3.496 0 0 1 3.489-3.488h307.295a3.482 3.482 0 0 1 3.474 3.488 3.481 3.481 0 0 1-3.474 3.49H41.577zm179.939 18.698a3.487 3.487 0 0 1-3.475-3.49 3.484 3.484 0 0 1 3.475-3.49h212.637a3.494 3.494 0 0 1 3.489 3.49 3.496 3.496 0 0 1-3.489 3.49H221.516zm234.41 0a3.489 3.489 0 0 1-3.488-3.49 3.487 3.487 0 0 1 3.488-3.49h26.584a3.494 3.494 0 0 1 3.489 3.49 3.496 3.496 0 0 1-3.489 3.49h-26.584zm-426.433-.57a3.488 3.488 0 1 1 0-6.978h100.744a3.488 3.488 0 0 1 3.488 3.49 3.487 3.487 0 0 1-3.488 3.488H29.493zm79.252-73.223v32.882h288.993V401.27H108.745z" fill-rule="evenodd" clip-rule="evenodd" fill="#ff0000" class="fill-000000"></path></svg>